<svg fill="none"> 

    <symbol id="tag" viewBox="0 0 40 40" fill="none" xmlns="http://www.w3.org/2000/svg">
        <path fill-rule="evenodd" clip-rule="evenodd" d="M33.5286 0C29.9627 0 27.0566 2.90602 27.0566 6.47202C27.0566 8.09004 27.6633 9.64958 28.7557 10.843C28.8839 10.9832 29.0622 11.0666 29.2519 11.0752C29.4415 11.0839 29.6267 11.0164 29.7666 10.8882C29.9065 10.76 29.9898 10.5813 29.9977 10.3916C30.0056 10.202 29.9378 10.0168 29.8092 9.8773C28.9574 8.94707 28.4853 7.73289 28.4853 6.47203C28.4853 3.67836 30.7349 1.42874 33.5286 1.42874C36.3222 1.42874 38.5718 3.67836 38.5718 6.47203C38.5718 7.6937 38.128 8.87436 37.3233 9.79361C37.1966 9.93614 37.1314 10.1232 37.1435 10.3136C37.1551 10.5036 37.2426 10.6812 37.3863 10.8068C37.5299 10.9324 37.7173 10.9949 37.9078 10.9814C38.0978 10.9678 38.2746 10.8788 38.3987 10.734C39.4311 9.55452 40.0001 8.03949 40.0001 6.47204C40.0001 2.90615 37.0945 0 33.5286 0ZM21.4286 3.57159C21.2389 3.57159 21.0576 3.64701 20.9233 3.78087L0.20911 24.4951C-0.0695407 24.7742 -0.0695407 25.2263 0.20911 25.5053L14.4945 39.7907C14.7731 40.0698 15.2256 40.0698 15.5047 39.7907L36.2189 19.0765C36.3527 18.9426 36.4285 18.7609 36.4285 18.5716V4.28519C36.4285 3.89078 36.1084 3.57102 35.714 3.57102H31.4283C31.2371 3.56801 31.0527 3.64229 30.9162 3.77653C30.7801 3.91076 30.7032 4.09402 30.7032 4.28519C30.7032 4.47674 30.7801 4.65999 30.9162 4.79423C31.0527 4.92846 31.2371 5.00236 31.4283 4.99973H34.9999V18.2754L15 38.2754L1.72428 24.9997L21.7242 4.99973H24.9998C25.1914 5.00237 25.3757 4.92846 25.5119 4.79423C25.6484 4.65999 25.7249 4.47673 25.7249 4.28519C25.7249 4.09401 25.6484 3.91076 25.5119 3.77653C25.3757 3.64229 25.1914 3.568 24.9998 3.57102L21.4286 3.57159ZM30.6683 8.3973C30.3776 8.41276 30.1257 8.60355 30.031 8.87882C29.9368 9.15408 30.0186 9.45912 30.2384 9.64992C30.5412 9.92103 30.7143 10.3079 30.7143 10.7144C30.7143 11.5119 30.0831 12.1431 29.2856 12.1431C28.4881 12.1431 27.8568 11.5119 27.8568 10.7144C27.8595 10.5232 27.7856 10.3388 27.6513 10.2027C27.5171 10.0665 27.3342 9.99001 27.1427 9.99001C26.9515 9.99001 26.7682 10.0666 26.634 10.2027C26.4998 10.3388 26.4259 10.5232 26.4285 10.7144C26.4285 12.2837 27.7162 13.5714 29.2856 13.5714C30.855 13.5714 32.1427 12.2837 32.1427 10.7144C32.1427 9.90252 31.7961 9.12731 31.1913 8.5854C31.0676 8.47152 30.9078 8.40478 30.7396 8.39686C30.7158 8.39573 30.6921 8.39617 30.6683 8.3973ZM19.3898 15.5654C19.0776 15.582 18.8121 15.8003 18.7356 16.1038L15.598 27.8129C15.5445 27.9973 15.5675 28.1952 15.6621 28.3623C15.7564 28.5297 15.914 28.6518 16.0991 28.7016C16.2847 28.7514 16.4822 28.7242 16.6478 28.6266C16.8129 28.5289 16.9321 28.3687 16.9777 28.1824L20.1153 16.4734C20.1783 16.2516 20.1304 16.013 19.9863 15.8327C19.8423 15.6525 19.6202 15.5529 19.3898 15.5654ZM23.0478 18.7463C22.6353 18.7165 22.2115 18.8036 21.8299 19.0238C20.8122 19.6113 20.4585 20.9333 21.046 21.9506C21.6334 22.9683 22.9554 23.3236 23.9727 22.7361C24.9904 22.1486 25.3441 20.8254 24.7566 19.8077C24.3894 19.1716 23.7352 18.7961 23.0478 18.7463ZM22.8148 20.1679C23.0912 20.1313 23.3683 20.2607 23.5191 20.5224C23.7205 20.8715 23.6074 21.2976 23.2582 21.499C22.9094 21.7003 22.4845 21.5857 22.2831 21.2369C22.0817 20.8877 22.1948 20.4632 22.544 20.2618C22.6311 20.2112 22.7228 20.18 22.8148 20.1679ZM12.9601 21.2716C12.5476 21.2418 12.1222 21.3301 11.7406 21.5507C10.7229 22.1381 10.3692 23.4601 10.9567 24.4774C11.5442 25.4952 12.8661 25.8488 13.8835 25.2614C14.9012 24.6739 15.2549 23.3519 14.6674 22.3346C14.3001 21.6985 13.6475 21.3214 12.9601 21.2716ZM12.727 22.6947C13.0034 22.6581 13.2806 22.7874 13.4314 23.0491C13.6328 23.3983 13.5181 23.8229 13.169 24.0243C12.8202 24.2256 12.3952 24.1121 12.1938 23.7633C11.9925 23.4145 12.1056 22.9881 12.4548 22.7867C12.5419 22.7366 12.635 22.7067 12.727 22.6947Z" fill="#FF3692"/>
    </symbol>

    <symbol id="ratings" viewBox="0 0 55 43" fill="none" xmlns="http://www.w3.org/2000/svg">
        <path d="M30.5048 13.3539L32.7707 18.2531C32.8296 18.3795 32.9121 18.4819 33.0141 18.5557C33.1161 18.629 33.24 18.6755 33.3818 18.6924L37.6509 19.1829L38.298 17.7819C38.5447 17.2487 38.9229 16.8197 39.3888 16.5242C39.8547 16.2287 40.4051 16.0661 40.9972 16.0661V16.061C41.584 16.061 42.1344 16.2249 42.6055 16.5242C43.0714 16.8197 43.4496 17.2487 43.6963 17.7819L45.9622 22.6812C46.0211 22.8076 46.1036 22.91 46.2071 22.9837C46.3072 23.057 46.4329 23.1035 46.5747 23.1204L51.9811 23.7406C52.5695 23.8073 53.0975 24.031 53.5273 24.3796C53.9571 24.7282 54.2831 25.1966 54.4663 25.7533C54.6475 26.3068 54.6613 26.8776 54.5199 27.4108L54.5028 27.4705C54.3562 27.9816 54.0677 28.4477 53.6521 28.8273L49.6467 32.4754C49.5414 32.5713 49.4674 32.6822 49.4294 32.8001C49.3896 32.9199 49.3829 33.0529 49.4105 33.1914L50.4856 38.4732C50.6013 39.0473 50.5496 39.6129 50.3494 40.1237C50.1473 40.6362 49.799 41.0892 49.3208 41.4326C48.8463 41.7742 48.3026 41.9626 47.7451 41.995C47.1895 42.0274 46.6301 41.901 46.1196 41.6173L41.3775 38.9722C41.2532 38.9022 41.1236 38.8679 40.9979 38.8679C40.8717 38.8679 40.7426 38.9022 40.6183 38.9722L35.8781 41.6173C35.3672 41.9024 34.8083 42.0274 34.2527 41.995C33.6937 41.9626 33.1519 41.7747 32.677 41.4326C32.2006 41.0911 31.8519 40.6363 31.6483 40.1185C31.4481 39.6092 31.3964 39.0436 31.5122 38.4713L31.8903 36.6104L28.1873 34.5445C28.063 34.4745 27.932 34.4402 27.8077 34.4402C27.6815 34.4402 27.5524 34.4745 27.4281 34.5445L23.7251 36.6104L24.1032 38.4713C24.219 39.0436 24.1673 39.6078 23.967 40.1185C23.7635 40.6344 23.4148 41.0892 22.9384 41.4326C22.464 41.7742 21.9203 41.9626 21.3627 41.995C20.8086 42.0274 20.2478 41.901 19.7372 41.6173L14.997 38.9722C14.8727 38.9022 14.7418 38.8679 14.6175 38.8679C14.4913 38.8679 14.3622 38.9022 14.2379 38.9722L9.49578 41.6173C8.9848 41.9024 8.42589 42.0274 7.87029 41.995C7.31281 41.9626 6.76956 41.7747 6.2946 41.4326C5.81682 41.0892 5.4681 40.6363 5.26598 40.1237C5.06386 39.6125 5.01405 39.0473 5.12981 38.4732L6.20492 33.1914C6.23244 33.0529 6.2258 32.9199 6.18595 32.8001C6.14799 32.6822 6.07397 32.5727 5.96864 32.4754L1.96327 28.8273C1.54718 28.4496 1.26109 27.983 1.11258 27.4705L1.0955 27.4108C0.954111 26.8762 0.967872 26.3067 1.14911 25.7533C1.33225 25.198 1.6582 24.7282 2.08806 24.3796C2.51791 24.031 3.04739 23.8073 3.63424 23.7406L9.04064 23.1204C9.18203 23.1049 9.30823 23.057 9.40834 22.9837C9.51034 22.9104 9.5948 22.8076 9.65315 22.6812L11.9191 17.7819C12.1658 17.2487 12.5439 16.8197 13.0099 16.5242C13.481 16.2254 14.0314 16.061 14.6182 16.061V16.0661C15.2103 16.0661 15.7607 16.2287 16.2266 16.5242C16.6925 16.8197 17.0706 17.2487 17.3174 17.7819L17.9645 19.1829L22.2336 18.6924C22.375 18.6769 22.5012 18.629 22.6013 18.5557C22.7033 18.4824 22.7877 18.3795 22.8461 18.2531L25.112 13.3539C25.3587 12.8206 25.7369 12.3917 26.2028 12.0962C26.6687 11.8007 27.2191 11.6381 27.8112 11.6381V11.6348C28.398 11.6348 28.9484 11.7988 29.4195 12.0962C29.8854 12.3936 30.2636 12.8206 30.5103 13.3539L30.5048 13.3539ZM21.671 37.5373C21.4675 37.5679 21.2621 37.5782 21.0585 37.5665C20.4996 37.5341 19.9559 37.3461 19.4815 37.0041C19.007 36.6626 18.6564 36.2078 18.4529 35.69C18.2507 35.1807 18.2009 34.615 18.3167 34.0442L19.3918 28.7625C19.4193 28.6239 19.4127 28.4909 19.3728 28.3711C19.3349 28.2532 19.2609 28.1437 19.1555 28.0465L15.1502 24.3983C14.7189 24.0051 14.4238 23.515 14.2824 22.9785C14.1424 22.4471 14.1548 21.8782 14.336 21.3261C14.5191 20.7689 14.8451 20.301 15.2749 19.9524C15.4235 19.8326 15.5838 19.7269 15.7546 19.6362L15.3129 18.6843C15.2474 18.5424 15.1506 18.4316 15.0316 18.3545C14.9125 18.2793 14.7678 18.2366 14.6107 18.2366V18.2418C14.4485 18.2418 14.3038 18.2812 14.1899 18.3545C14.0708 18.4297 13.9726 18.5424 13.9085 18.6843L11.6426 23.5836C11.4215 24.0618 11.0956 24.457 10.6937 24.7473C10.2899 25.0377 9.81169 25.2223 9.28367 25.2838L3.87726 25.904C3.72212 25.9228 3.58405 25.9792 3.4754 26.068C3.36675 26.1568 3.28373 26.278 3.2339 26.4269C3.18551 26.5773 3.17887 26.7243 3.21493 26.8577L3.22204 26.8883C3.26 27.0081 3.33591 27.1241 3.44646 27.2251L7.45183 30.8733C7.84183 31.2271 8.11797 31.656 8.27311 32.1277C8.42682 32.5961 8.45624 33.1017 8.35091 33.6181L7.2758 38.8998C7.24496 39.0534 7.25683 39.2005 7.30854 39.332C7.36026 39.4603 7.45183 39.5782 7.57946 39.6703C7.7104 39.7642 7.85037 39.8154 7.98511 39.8239C8.12507 39.8324 8.27168 39.7967 8.41306 39.7177L13.1552 37.0727C13.6159 36.8161 14.1131 36.6865 14.6117 36.6865C15.1104 36.6865 15.6057 36.8147 16.0683 37.0727L20.8085 39.7177C20.9499 39.7962 21.0965 39.8324 21.2364 39.8239C21.3726 39.8154 21.5126 39.7642 21.6435 39.6703C21.773 39.5763 21.866 39.4617 21.9144 39.3372C21.9662 39.2056 21.9785 39.0553 21.9472 38.8998L21.671 37.5396L21.671 37.5373ZM39.8547 19.6358C40.0255 19.7246 40.1859 19.8308 40.3344 19.952C40.7643 20.3006 41.0902 20.769 41.2733 21.3257C41.4546 21.8792 41.4683 22.4467 41.327 22.9781L41.3251 22.9813C41.1851 23.5146 40.89 24.0032 40.4587 24.3978L36.4533 28.046C36.3461 28.1432 36.274 28.2527 36.2341 28.3706C36.1943 28.4904 36.1876 28.6234 36.2171 28.762L37.2922 34.0437C37.4079 34.6145 37.3562 35.1802 37.156 35.6895C36.9525 36.2054 36.6037 36.662 36.1274 37.0036C35.6529 37.3452 35.1092 37.5336 34.5504 37.566C34.3449 37.5777 34.1414 37.5679 33.9378 37.5369L33.6617 38.897C33.629 39.0526 33.6427 39.201 33.6945 39.3344C33.7428 39.4594 33.8358 39.5736 33.9654 39.6675C34.0963 39.7615 34.2363 39.8127 34.3724 39.8212C34.5124 39.8296 34.6604 39.7939 34.8004 39.715L39.5406 37.0699C40.0032 36.8134 40.4985 36.6837 40.9971 36.6837C41.4958 36.6837 41.993 36.812 42.4537 37.0699L47.1958 39.715C47.3372 39.7934 47.4838 39.8296 47.6238 39.8212C47.7599 39.8127 47.8999 39.7615 48.0294 39.6675C48.1589 39.5755 48.2505 39.4589 48.3003 39.3293C48.3521 39.1996 48.3644 39.0507 48.3331 38.897L47.258 33.6153C47.1526 33.0995 47.1821 32.5935 47.3358 32.125C47.4909 31.6533 47.7671 31.2262 48.157 30.8706L52.1624 27.2224C52.273 27.1214 52.3489 27.0053 52.3868 26.8855L52.394 26.855C52.4286 26.7234 52.4234 26.575 52.375 26.4242C52.3266 26.2757 52.2421 26.1526 52.1335 26.0652C52.0248 25.9764 51.8868 25.9201 51.7316 25.9013L46.3252 25.2811C45.7991 25.2214 45.3208 25.0349 44.9152 24.7446C44.5114 24.4542 44.1869 24.061 43.9663 23.5808L41.7003 18.6816C41.6349 18.5397 41.5381 18.4288 41.419 18.3518C41.3032 18.2785 41.1599 18.239 40.9982 18.239V18.2339C40.8411 18.2339 40.6978 18.2747 40.5773 18.3518C40.4582 18.4269 40.36 18.5397 40.296 18.6816L39.8543 19.6335L39.8547 19.6358ZM10.9498 9.45483C10.5199 9.02917 10.5199 8.33902 10.9498 7.9134C11.3797 7.48774 12.0766 7.48774 12.5064 7.9134L16.2043 11.5751C16.6341 12.0008 16.6341 12.691 16.2043 13.1166C15.7744 13.5422 15.0774 13.5422 14.6476 13.1166L10.9498 9.45483ZM43.1038 7.9134C43.5336 7.48774 44.2325 7.48774 44.6619 7.9134C45.0917 8.33906 45.0917 9.02922 44.6619 9.45483L40.964 13.1166C40.5342 13.5422 39.8372 13.5422 39.4074 13.1166C38.9775 12.6909 38.9775 12.0008 39.4074 11.5751L43.1052 7.9134H43.1038ZM26.7031 2.08998C26.7031 1.48861 27.1965 1 27.8038 1C28.413 1 28.9046 1.48861 28.9046 2.08998V7.26922C28.9046 7.87059 28.4125 8.3592 27.8038 8.3592C27.1965 8.3592 26.7031 7.87059 26.7031 7.26922V2.08998ZM30.7739 19.1581L28.508 14.2588C28.4425 14.1188 28.3438 14.006 28.2252 13.929C28.1095 13.8557 27.9662 13.8162 27.8044 13.8162V13.813C27.6473 13.813 27.5041 13.8538 27.3836 13.9309C27.2645 14.0061 27.1662 14.1188 27.1008 14.2607L24.8348 19.1599C24.6137 19.6382 24.2878 20.0333 23.8859 20.3237C23.4803 20.614 23.0025 20.8005 22.4759 20.8602L17.0695 21.4804C16.9125 21.4973 16.7763 21.5555 16.6676 21.6429C16.559 21.7317 16.476 21.8529 16.4261 22.0019C16.3763 22.1541 16.3711 22.3026 16.4072 22.4374C16.4418 22.5671 16.5191 22.6939 16.6382 22.8015L20.6436 26.4496C21.0317 26.8034 21.3097 27.2305 21.4649 27.7022C21.6186 28.1706 21.648 28.6761 21.5427 29.1925L20.4676 34.4742C20.4367 34.6297 20.4486 34.7782 20.5003 34.9116C20.5487 35.0366 20.6417 35.1507 20.7712 35.2447C20.9022 35.3387 21.0421 35.3899 21.1769 35.3983C21.3168 35.4068 21.4649 35.3711 21.6048 35.2922L26.347 32.6471C26.8077 32.3906 27.3049 32.2609 27.8035 32.2609C28.3022 32.2609 28.7975 32.3892 29.26 32.6471L34.0022 35.2922C34.1436 35.3706 34.2902 35.4068 34.4301 35.3983C34.5663 35.3913 34.7063 35.3387 34.8358 35.2461C34.9653 35.1521 35.0583 35.0375 35.1067 34.913C35.1584 34.7815 35.1707 34.6311 35.1394 34.4756L34.0643 29.1939C33.959 28.6795 33.9884 28.172 34.1436 27.7036C34.2973 27.2319 34.5748 26.8048 34.9634 26.4511L38.9688 22.8029C39.086 22.6953 39.1657 22.5689 39.1998 22.4355C39.2345 22.304 39.2292 22.1555 39.179 22.0047C39.1306 21.8562 39.0461 21.7331 38.9375 21.6457C38.8288 21.5569 38.6908 21.5006 38.5356 21.4832L33.1306 20.863C32.6045 20.8034 32.1262 20.6187 31.7206 20.3265C31.3169 20.0361 30.9923 19.6429 30.7698 19.1627L30.7739 19.1581Z" fill="#7238FF" stroke="#F8F8F8" stroke-width="0.5"/>
    </symbol>

    <symbol id="user_circle" viewBox="0 0 38 38" fill="none" xmlns="http://www.w3.org/2000/svg">
        <path d="M11.4314 24.7691V27.7617C11.4314 28.2343 11.7465 28.5493 12.219 28.5493H24.898C25.3706 28.5493 25.6857 28.2343 25.6857 27.7617V24.7691C25.6857 22.564 23.9532 20.8314 21.7479 20.8314H15.369C13.164 20.8314 11.4313 22.6427 11.4313 24.7691H11.4314ZM13.0066 24.7691C13.0066 23.4303 14.0303 22.4066 15.3691 22.4066H21.7481C23.0869 22.4066 24.1106 23.4303 24.1106 24.7691V26.9741H13.0064L13.0066 24.7691Z" fill="#FF3556"/>
        <path d="M18.5978 19.6506C20.9603 19.6506 22.7717 17.2881 22.7717 15.1617C22.7717 12.9567 20.8818 11.0664 18.5978 11.0664C16.3139 11.0664 14.4239 12.8778 14.4239 15.1617C14.4239 17.2881 16.1567 19.6506 18.5978 19.6506ZM18.5978 12.6416C20.0155 12.6416 21.1968 13.7443 21.1968 15.1617C21.1968 16.5005 20.0941 18.0757 18.5978 18.0757C17.1015 18.0757 15.9988 16.5009 15.9988 15.1617C15.9991 13.7443 17.1015 12.6416 18.5978 12.6416Z" fill="#FF3556"/>
        <path d="M27.576 33.5111C22.0633 37.0549 14.9751 37.0549 9.46252 33.5111H9.38392L12.5341 33.275C13.0067 33.275 13.3217 32.8814 13.2428 32.4088C13.1642 31.9362 12.8491 31.6212 12.3766 31.7001L7.88765 32.0151C7.65153 32.0151 7.494 32.0937 7.33648 32.2513C7.17896 32.4088 7.10036 32.6449 7.17896 32.8024L7.49401 37.2913C7.49401 37.685 7.88766 38 8.28163 38H8.36023C8.8328 38 9.14785 37.6064 9.06892 37.1338L8.9114 35.0074C14.9753 38.7088 22.5358 38.5512 28.3635 34.7713C28.7571 34.5352 28.8361 34.0626 28.5996 33.6686C28.4424 33.3539 27.9699 33.275 27.5759 33.5111L27.576 33.5111Z" fill="#FF3556"/>
        <path d="M5.28856 8.23124L0.87823 7.75867C0.405659 7.68007 0.0906093 7.99479 0.0120111 8.46736C-0.0665881 8.86101 0.248131 9.25498 0.720702 9.33358L2.76851 9.57035C1.03608 12.4844 0.0909504 15.7917 0.0909504 19.1779C0.0909504 22.7217 1.11465 26.1083 2.92608 29.1006C3.1622 29.4943 3.63477 29.5732 4.02876 29.3367C4.42241 29.1006 4.50133 28.628 4.26488 28.234C2.53244 25.5565 1.66589 22.4063 1.66589 19.1777C1.66589 15.949 2.53211 12.7988 4.26488 10.1214V10.0428L3.94983 13.193C3.87123 13.5866 4.18595 13.9806 4.65852 14.0592H4.73712C5.13077 14.0592 5.44581 13.7442 5.52474 13.3505L5.99731 9.09776C5.99764 8.70346 5.68259 8.30981 5.28862 8.23087L5.28856 8.23124Z" fill="#FF3556"/>
        <path d="M29.3087 0.592594C29.2301 0.198946 28.7576 -0.116095 28.3636 0.0414258C27.97 0.120025 27.6549 0.592594 27.8124 0.98655L28.4425 3.42798C25.4499 1.5374 22.0633 0.592519 18.598 0.592519C15.0542 0.592519 11.6676 1.61622 8.6753 3.50655C8.28166 3.74267 8.20273 4.21524 8.43918 4.60924C8.6753 5.00289 9.14788 5.08181 9.54187 4.84536C12.2194 3.11292 15.3696 2.24637 18.5982 2.24637C21.8268 2.24637 24.9771 3.19149 27.6545 4.84536H27.7331L25.213 5.47545C24.7408 5.63265 24.5046 6.0263 24.5832 6.42024C24.6618 6.81389 24.9769 6.97141 25.3709 6.97141H25.607L29.9384 5.86872C30.332 5.79013 30.6471 5.31755 30.4896 4.9236L29.3087 0.592594Z" fill="#FF3556"/>
        <path d="M36.5533 29.1792L34.2693 28.943C36.0807 26.029 37.1045 22.6428 37.1045 19.1775C37.1045 15.6337 36.0808 12.2471 34.2693 9.25479C34.0332 8.86115 33.5606 8.78222 33.1666 9.01868C32.773 9.25479 32.6941 9.72737 32.9305 10.1214C34.663 12.7989 35.5295 15.9491 35.5295 19.1777C35.5295 22.3278 34.6633 25.399 33.0094 28.0768L33.3245 25.1628C33.4031 24.7691 33.0884 24.3752 32.6158 24.2966C32.2221 24.2966 31.8282 24.5327 31.7496 25.0053L31.277 29.4942C31.277 29.7303 31.3556 29.8878 31.4345 30.0453C31.592 30.2029 31.7496 30.2815 31.9857 30.3604L36.396 30.833H36.4746C36.8683 30.833 37.1833 30.5179 37.2622 30.1243C37.2622 29.5734 36.9472 29.1795 36.5532 29.1795L36.5533 29.1792Z" fill="#FF3556"/>
    </symbol>

    <symbol id="gear" viewBox="0 0 42 41" fill="none" xmlns="http://www.w3.org/2000/svg">
        <path d="M39.0001 16.2225H36.1153C35.7673 14.9411 35.2601 13.7146 34.6013 12.5652L36.6421 10.525C37.4209 9.74588 37.4209 8.47721 36.6421 7.69691L33.6454 4.7002C32.8894 3.94426 31.5708 3.94566 30.8172 4.7002L28.7771 6.73966C27.6269 6.08085 26.4012 5.57375 25.1198 5.22563V2.34118C25.1198 1.23861 24.2224 0.341187 23.1198 0.341187H18.8833C17.7807 0.341187 16.8833 1.2386 16.8833 2.34118V5.22662C15.6019 5.57468 14.3755 6.08181 13.226 6.74065L11.1866 4.70119C10.4321 3.94595 9.11407 3.94455 8.35782 4.70119L5.3604 7.6979C4.58158 8.47707 4.58158 9.74573 5.3604 10.526L7.40057 12.5655C6.74176 13.7149 6.23467 14.9406 5.88654 16.2228L3.00002 16.2224C1.89746 16.2224 1.00003 17.1198 1.00003 18.2224V22.4596C1.00003 23.5622 1.89745 24.4596 3.00002 24.4596H5.88483C6.23289 25.7403 6.74073 26.9671 7.39886 28.1162L5.35805 30.1563C4.57924 30.9355 4.57924 32.2042 5.35805 32.9845L8.35476 35.9812C9.1107 36.7371 10.4294 36.7357 11.1829 35.9812L13.2231 33.9417C14.3732 34.6005 15.5989 35.1076 16.8803 35.4558V38.3412C16.8803 39.4438 17.7778 40.3412 18.8803 40.3412H23.1168C24.2194 40.3412 25.1168 39.4438 25.1168 38.3412V35.4558C26.3982 35.1077 27.6247 34.6006 28.7741 33.9417L30.8136 35.9812C31.5681 36.7364 32.8861 36.7378 33.6423 35.9812L36.6397 32.9845C37.4186 32.2053 37.4186 30.9366 36.6397 30.1563L34.5996 28.1162C35.2577 26.966 35.7655 25.7403 36.1136 24.4596H38.9984C40.101 24.4596 40.9984 23.5622 40.9984 22.4596V18.2224C40.9984 17.1198 40.101 16.2224 38.9984 16.2224L39.0001 16.2225ZM39.6667 22.4597C39.6667 22.8271 39.3679 23.1262 39.0001 23.1262H35.5966C35.2873 23.1262 35.0188 23.3388 34.9473 23.6404C34.594 25.1403 34.0045 26.5639 33.1955 27.871C33.0329 28.1342 33.0723 28.4742 33.2915 28.6931L35.6977 31.0992C35.9584 31.3593 35.9584 31.7826 35.6977 32.0424L32.701 35.0391C32.4483 35.2918 32.0091 35.2911 31.7581 35.0391L29.352 32.633C29.1341 32.4144 28.7935 32.3757 28.5299 32.5369C27.2232 33.3456 25.7992 33.9348 24.2986 34.2888C23.9981 34.3595 23.7845 34.628 23.7845 34.9374V38.3408C23.7845 38.7083 23.4857 39.0074 23.1179 39.0074H18.8814C18.5133 39.0074 18.2149 38.7079 18.2149 38.3408V34.9374C18.2149 34.628 18.0023 34.3595 17.7007 34.2888C16.2001 33.9347 14.7762 33.3456 13.4694 32.5369C13.3607 32.4697 13.2393 32.4376 13.1189 32.4376C12.9468 32.4376 12.7754 32.5042 12.6477 32.633L10.2408 35.0398C9.99096 35.2904 9.5514 35.2918 9.29872 35.0398L6.30273 32.0438C6.04196 31.7838 6.04196 31.3604 6.30273 31.1006L8.70959 28.6945C8.92814 28.476 8.96826 28.1353 8.80567 27.8724C7.99623 26.565 7.40714 25.1417 7.05379 23.6419C6.98305 23.3406 6.71383 23.1277 6.40449 23.1277L3.00029 23.128C2.63217 23.128 2.33374 22.8286 2.33374 22.4615V18.2243C2.33374 17.8569 2.63252 17.5577 3.00029 17.5577H6.40376C6.71311 17.5577 6.98164 17.3452 7.05307 17.0436C7.40641 15.543 7.9959 14.1194 8.80432 12.813C8.96691 12.5498 8.92749 12.2098 8.70824 11.9909L6.30282 9.58478C6.04205 9.32471 6.04205 8.90134 6.30282 8.64159L9.29953 5.64488C9.55292 5.3929 9.99142 5.3936 10.2424 5.64488L12.6485 8.05102C12.867 8.27098 13.2077 8.30969 13.4706 8.1471C14.7773 7.33836 16.2013 6.7492 17.7019 6.39522C18.0024 6.32448 18.216 6.05596 18.216 5.74662L18.2157 2.34134C18.2157 1.97392 18.5145 1.67478 18.8822 1.67478H23.1187C23.4868 1.67478 23.7853 1.97428 23.7853 2.34134V5.74481C23.7853 6.05416 23.9978 6.32269 24.2994 6.39342C25.8 6.74746 27.224 7.33661 28.5307 8.14529C28.7946 8.30859 29.1346 8.26917 29.3528 8.04922L31.7597 5.64236C32.0088 5.39179 32.4491 5.39037 32.7018 5.64236L35.6978 8.63834C35.9585 8.89842 35.9585 9.32178 35.6978 9.58154L33.2916 11.9877C33.0731 12.2062 33.033 12.5469 33.1955 12.8098C34.0043 14.1158 34.5934 15.539 34.9468 17.0403C35.0175 17.3416 35.2868 17.5545 35.5961 17.5545H38.9996C39.3677 17.5545 39.6661 17.854 39.6661 18.221V22.4582L39.6667 22.4597Z" fill="#FFAA05" stroke="#FFAA05" stroke-width="0.2"/>
        <path d="M21.0002 8.67438C14.5677 8.67438 9.33307 13.9083 9.33307 20.3415C9.33307 26.7741 14.567 32.0087 21.0002 32.0087C27.4328 32.0087 32.6674 26.7748 32.6674 20.3415C32.6674 13.909 27.4335 8.67438 21.0002 8.67438ZM21.0002 30.6744C15.3022 30.6744 10.6665 26.0392 10.6665 20.3406C10.6665 14.6421 15.3017 10.0069 21.0002 10.0069C26.6988 10.0069 31.334 14.6421 31.334 20.3406C31.334 26.0392 26.6988 30.6744 21.0002 30.6744Z" fill="#FFAA05" stroke="#FFAA05" stroke-width="0.2"/>
        <path d="M15.8361 20.3155L18.1961 17.9548C18.4569 17.694 18.4569 17.2727 18.1961 17.0119C17.9353 16.7512 17.514 16.7512 17.2533 17.0119L14.422 19.8439C14.1612 20.1047 14.1612 20.526 14.422 20.7868L17.3032 23.6687C17.5639 23.9295 17.9852 23.9295 18.246 23.6687C18.5068 23.4079 18.5068 22.9867 18.246 22.7259L15.836 20.3151L15.8361 20.3155Z" fill="#FFAA05" stroke="#FFAA05" stroke-width="0.2"/>
        <path d="M24.6977 17.0127C24.4369 16.7519 24.0157 16.7519 23.7549 17.0127C23.4941 17.2735 23.4941 17.6948 23.7549 17.9556L26.1649 20.3663L23.8049 22.727C23.5441 22.9878 23.5441 23.4091 23.8049 23.6699C24.0657 23.9306 24.4869 23.9306 24.7477 23.6699L27.579 20.8378C27.8398 20.5771 27.8398 20.1558 27.579 19.895L24.6978 17.0131L24.6977 17.0127Z" fill="#FFAA05" stroke="#FFAA05" stroke-width="0.2"/>
        <path d="M22.467 13.1529C22.1077 13.0804 21.7543 13.3123 21.6804 13.6731L19.0138 26.7421C18.9406 27.1028 19.1725 27.4547 19.5333 27.5287C19.8852 27.6026 20.248 27.372 20.3198 27.0085L22.9864 13.9395C23.0596 13.5787 22.8277 13.2268 22.467 13.1529Z" fill="#FFAA05" stroke="#FFAA05" stroke-width="0.2"/>
    </symbol>


</svg>