<svg width="26" height="25" fill="none" xmlns="http://www.w3.org/2000/svg"><path d="M12.803 24.553C19.53 24.553 25 19.27 25 12.776 25 6.282 19.529 1 12.803 1 6.078 1 .606 6.283.606 12.776c0 6.493 5.472 11.777 12.197 11.777zm0-21.983c5.829 0 10.57 4.579 10.57 10.206 0 5.628-4.741 10.207-10.57 10.207-5.828 0-10.57-4.579-10.57-10.207 0-5.627 4.742-10.206 10.57-10.206z" fill="#52526C" stroke="#52526C" stroke-width=".5"/><path d="M10.704 17.578a.757.757 0 00.556.246.757.757 0 00.555-.246l7.066-7.57a.883.883 0 000-1.19.748.748 0 00-1.11 0l-6.511 6.975-2.584-2.767a.748.748 0 00-1.11 0 .883.883 0 000 1.19l3.138 3.362z" fill="#52526C" stroke="#52526C" stroke-width=".5"/></svg>