<svg width="38" height="32" fill="none" xmlns="http://www.w3.org/2000/svg"><path d="M36.273 1H1.729a.64.64 0 00-.64.64v17.907c0 .354.286.64.64.64h7.646c.007 0 .015.004.023.004.005 0 .01-.004.016-.004h26.858a.64.64 0 00.64-.64V1.64a.638.638 0 00-.64-.64zM15.796 12.285l1.771 2.3-3.363 4.323H10.7l5.095-6.623zm7.677-3.208l7.65 9.83H15.825l7.648-9.83zm12.16 9.83h-2.89L23.979 7.642c-.016-.02-.04-.031-.058-.05-.02-.019-.03-.044-.053-.061-.014-.011-.031-.014-.044-.023a.624.624 0 00-.114-.056c-.039-.015-.075-.03-.116-.039a.596.596 0 00-.117-.008c-.042 0-.083 0-.124.008a.575.575 0 00-.11.038.607.607 0 00-.119.058c-.013.01-.03.011-.043.022-.022.017-.034.041-.053.062-.018.018-.042.028-.058.05l-4.591 5.9-2.075-2.698c-.017-.021-.04-.033-.06-.052-.02-.02-.033-.047-.057-.065-.013-.01-.028-.012-.04-.02a.571.571 0 00-.117-.057c-.037-.015-.073-.03-.112-.038-.04-.008-.08-.008-.121-.008-.04 0-.08 0-.12.008-.04.007-.075.022-.113.037a.614.614 0 00-.117.058c-.012.009-.028.01-.04.02-.023.018-.036.043-.056.064-.02.02-.044.031-.06.053l-6.205 8.063H2.37V2.279h33.264v16.628zm-18.552 3.777H6.846a.64.64 0 00-.64.64v7.036c0 .354.287.64.64.64h10.236c.075 0 .15-.017.223-.045.025-.01.046-.022.07-.035.026-.013.054-.022.078-.04.014-.01.021-.025.035-.037a.615.615 0 00.09-.096.657.657 0 00.066-.096.638.638 0 00.042-.113.61.61 0 00.026-.126c0-.018.01-.034.01-.052v-7.037a.64.64 0 00-.64-.64zm-9.595 1.279h8.956v4.401l-2.039-2.854c-.021-.03-.051-.046-.076-.071-.025-.025-.042-.057-.072-.078-.007-.004-.014-.005-.02-.01-.04-.025-.083-.039-.127-.056-.034-.013-.066-.032-.103-.039-.041-.008-.084-.003-.126-.003-.04 0-.077-.004-.116.003-.038.007-.072.027-.109.04-.042.017-.084.03-.122.055-.006.005-.014.005-.02.01-.03.021-.047.052-.073.078-.024.025-.055.04-.075.07l-1.704 2.386-.77-1.101c-.022-.032-.054-.05-.08-.076-.027-.027-.046-.06-.078-.082-.004-.003-.01-.003-.013-.006-.042-.028-.09-.042-.137-.06-.032-.011-.061-.03-.093-.035-.04-.009-.081-.003-.122-.003-.041 0-.082-.006-.123.003-.032.006-.062.024-.094.035-.046.018-.093.032-.135.06-.005.003-.01.003-.014.006-.032.022-.05.053-.076.08-.027.026-.06.045-.082.078l-2.05 2.927h-.307v-5.758zm1.868 5.758l1.01-1.444.507.723-.516.72H9.354zm4.529-2.739l1.956 2.739h-3.912l1.956-2.739z" fill="#52526C" stroke="#52526C" stroke-width=".2"/><path d="M8.785 25.882a.64.64 0 100-1.28h-.007a.636.636 0 00-.636.64c0 .354.29.64.643.64zm23.009-3.198H21.56a.639.639 0 00-.64.64v7.036c0 .354.286.64.64.64h10.235a.626.626 0 00.224-.045c.025-.01.046-.022.07-.035.025-.013.053-.022.078-.04.014-.01.02-.025.034-.037a.62.62 0 00.091-.096.58.58 0 00.065-.096.63.63 0 00.043-.113.61.61 0 00.025-.126c0-.018.01-.034.01-.052v-7.037a.64.64 0 00-.64-.64zM22.2 23.963h8.955v4.401l-2.038-2.854c-.021-.03-.051-.046-.076-.071-.025-.025-.043-.057-.073-.078-.006-.004-.013-.005-.02-.01-.04-.025-.083-.039-.126-.056-.035-.013-.067-.032-.103-.039-.042-.008-.084-.003-.126-.003-.04 0-.077-.004-.117.003-.037.007-.071.027-.108.04-.042.017-.084.03-.122.055-.006.005-.014.005-.02.01-.031.021-.048.052-.073.078-.025.025-.055.04-.076.07l-1.703 2.386-.77-1.101c-.022-.032-.055-.051-.081-.077-.026-.026-.045-.058-.077-.08-.004-.004-.01-.004-.014-.007-.042-.028-.09-.042-.137-.06-.032-.012-.061-.03-.093-.035-.04-.009-.081-.003-.122-.003-.041 0-.082-.006-.123.003-.032.006-.06.023-.092.035-.048.017-.095.032-.138.06-.005.003-.01.003-.014.006-.031.022-.05.053-.075.08-.027.026-.06.045-.082.078l-2.05 2.927H22.2v-5.758zm1.868 5.758l1.01-1.444.506.723-.515.72h-1.001zm4.529-2.739l1.956 2.739H26.64l1.956-2.739z" fill="#52526C" stroke="#52526C" stroke-width=".2"/><path d="M23.497 25.882a.64.64 0 100-1.28h-.006a.636.636 0 00-.636.64c0 .354.29.64.642.64zM9.624 8.676a2.561 2.561 0 002.56-2.559 2.561 2.561 0 00-2.56-2.558 2.561 2.561 0 00-2.558 2.558 2.561 2.561 0 002.558 2.56zm0-3.838a1.28 1.28 0 010 2.559 1.28 1.28 0 01-1.279-1.28c0-.705.574-1.279 1.28-1.279zm-4.291 7.496a.638.638 0 00.904 0 .639.639 0 000-.905l-.826-.827.826-.826a.639.639 0 10-.904-.905l-1.28 1.279a.639.639 0 000 .904l1.28 1.28zm25.584 0a.638.638 0 00.904 0l1.28-1.28a.639.639 0 000-.904L31.82 8.87a.639.639 0 10-.904.905l.826.826-.826.827a.639.639 0 000 .905z" fill="#52526C" stroke="#52526C" stroke-width=".2"/></svg>