<svg width="29" height="27" fill="none" xmlns="http://www.w3.org/2000/svg"><path d="M26 1.094a.6.6 0 00-.315-.09H7.747c-1.543 0-2.797 1.243-2.797 2.766l-.106 15.448H1.602A.602.602 0 001 19.82v2.783a3.706 3.706 0 003.702 3.702.607.607 0 00.124-.012h14.967a3.763 3.763 0 004.026-3.752v-9.03h4.06c.333 0 .603-.27.603-.602V3.966A2.92 2.92 0 0026 1.094v0zM2.205 22.604v-2.181h14.1v2.118c0 .944.355 1.854.995 2.547H4.62a.614.614 0 00-.085.006 2.5 2.5 0 01-2.33-2.49v0zm20.41-18.638v18.575a2.547 2.547 0 01-.745 1.795 2.522 2.522 0 01-1.726.76.59.59 0 00-.098-.008h-.212a2.576 2.576 0 01-2.324-2.546V19.82a.603.603 0 00-.602-.602H6.049l.105-15.444A1.58 1.58 0 017.747 2.21h15.466a2.875 2.875 0 00-.599 1.756v0zm4.662 8.34H23.82v-8.34a1.729 1.729 0 013.458 0v8.34z" fill="#52526C" stroke="#52526C" stroke-width=".5"/><path d="M8.734 7.531h5.705a.602.602 0 100-1.205H8.734a.602.602 0 100 1.205zm10.643 3.103H8.733a.602.602 0 100 1.205h10.643a.602.602 0 000-1.205zm0 4.306H8.733a.603.603 0 000 1.205h10.643a.602.602 0 100-1.205z" fill="#52526C" stroke="#52526C" stroke-width=".5"/></svg>