<svg width="27" height="16" fill="none" xmlns="http://www.w3.org/2000/svg"><path d="M25.95 10.104l-4.53 4.588a1.043 1.043 0 01-1.491-.002 1.083 1.083 0 01.002-1.515l4.53-4.588c.574-.582.576-1.53.004-2.114L19.927 1.83a1.083 1.083 0 01.005-1.515 1.043 1.043 0 011.492.005l4.537 4.641a3.686 3.686 0 01-.012 5.142zM7.072 1.831c.41-.42.408-1.098-.005-1.515a1.043 1.043 0 00-1.492.005L1.04 4.962a3.686 3.686 0 00.012 5.142l4.529 4.588a1.042 1.042 0 001.491-.002 1.083 1.083 0 00-.002-1.515L2.54 8.587a1.516 1.516 0 01-.004-2.114L7.073 1.83zM13.5 6.433c-.582 0-1.054.481-1.054 1.072 0 .59.473 1.071 1.054 1.071.582 0 1.055-.48 1.055-1.071 0-.59-.473-1.072-1.055-1.072zm4.218 0c-.581 0-1.054.481-1.054 1.072 0 .59.473 1.071 1.054 1.071.582 0 1.055-.48 1.055-1.071 0-.59-.473-1.072-1.055-1.072zm-8.436 0c-.582 0-1.055.481-1.055 1.072 0 .59.473 1.071 1.055 1.071.581 0 1.054-.48 1.054-1.071 0-.59-.473-1.072-1.054-1.072z" fill="#52526C"/></svg>