<svg width="58" height="26" fill="none" xmlns="http://www.w3.org/2000/svg"><path d="M2.857 13.618l.02.015a7.08 7.08 0 004.508 1.615 7.08 7.08 0 004.518-1.623c.002 0 .003 0 .005-.002a7.111 7.111 0 002.599-5.498c0-3.926-3.196-7.121-7.122-7.121C3.46 1.004.264 4.199.264 8.125a7.11 7.11 0 002.593 5.493zm2.01-1.1a3.053 3.053 0 012.517-1.34c1.026 0 1.96.52 2.52 1.341a5.027 5.027 0 01-2.519.694c-.92 0-1.772-.264-2.519-.695zm2.518-3.375a1.018 1.018 0 11.001-2.036 1.018 1.018 0 010 2.036zm0-6.104a5.093 5.093 0 015.087 5.086 5.039 5.039 0 01-1.031 3.038 5.083 5.083 0 00-1.529-1.33 3.022 3.022 0 00.525-1.708 3.056 3.056 0 00-3.052-3.052 3.056 3.056 0 00-3.052 3.052c0 .632.194 1.22.524 1.709a5.09 5.09 0 00-1.528 1.33A5.047 5.047 0 012.3 8.124 5.093 5.093 0 017.385 3.04zm11.192 7.541v3.642c0 .562.455 1.017 1.018 1.017h36.624c.562 0 1.017-.455 1.017-1.017V2.017c0-.562-.455-1.017-1.017-1.017H19.595c-.563 0-1.018.455-1.018 1.017v3.65L16.84 7.406a1.015 1.015 0 000 1.439l1.738 1.737zm1.737-3.772c.191-.191.298-.449.298-.72V3.036h34.59v10.17h-34.59V10.16c0-.27-.107-.529-.298-.719l-1.317-1.315 1.317-1.317z" fill="#52526C" stroke="#fff" stroke-width=".4"/><path d="M23.663 7.61H52.15a1.016 1.016 0 100-2.034H23.663a1.016 1.016 0 100 2.035zm0 3.053h14.243a1.016 1.016 0 100-2.035H23.663a1.016 1.016 0 100 2.035zM56.33 23.37H38.017a1.016 1.016 0 100 2.034H56.33a1.016 1.016 0 100-2.035zm.17-4h-9c-.276 0-.5.446-.5 1 0 .552.224 1 .5 1h9c.276 0 .5-.448.5-1 0-.554-.224-1-.5-1z" fill="#52526C" stroke="#fff" stroke-width=".4"/></svg>