<svg width="32" height="24" fill="none" xmlns="http://www.w3.org/2000/svg"><path d="M2.963 17.901C1.329 17.901 0 19.27 0 20.951c0 1.68 1.329 3.048 2.963 3.048 1.633 0 2.962-1.367 2.962-3.049 0-1.681-1.329-3.049-2.962-3.049zm0 4.574c-.817 0-1.482-.684-1.482-1.525 0-.84.665-1.524 1.482-1.524s1.48.684 1.48 1.524c0 .841-.663 1.525-1.48 1.525z" fill="#52526C"/><path d="M2.985 20.188h-.008a.748.748 0 00-.736.762c0 .421.335.762.745.762a.75.75 0 00.74-.762.752.752 0 00-.741-.762zM30.745 0H.559C.249 0 0 .333 0 .745v3.727c0 .412.25.745.559.745h30.186c.309 0 .559-.333.559-.745V.745c0-.412-.25-.745-.56-.745zm-.56 3.726H1.119V1.491h29.068v2.235zm.56 4.622H.559c-.31 0-.559.333-.559.745v3.726c0 .413.25.746.559.746h30.186c.309 0 .559-.333.559-.745V9.092c0-.412-.25-.745-.56-.745zm-.56 3.726H1.119V9.84h29.068v2.235zM8.147 20.188H18.51c.41 0 .741-.341.741-.763a.75.75 0 00-.74-.762H8.146c-.41 0-.74.34-.74.762s.33.763.74.763zm5.914 1.524a.751.751 0 00-.74-.763H8.147c-.41 0-.74.34-.74.762s.33.763.74.763h5.174a.75.75 0 00.74-.762z" fill="#52526C"/></svg>