<svg width="46" height="28" fill="none" xmlns="http://www.w3.org/2000/svg"><path d="M13.407 3.91H.907a.781.781 0 00-.781.78v17.97c0 .431.349.78.781.78h12.5a.78.78 0 00.781-.78V4.69a.781.781 0 00-.781-.78zm-.781 17.968H1.688V5.472h10.938v16.406zM45.093 3.91h-12.5a.781.781 0 00-.781.78v17.97c0 .431.349.78.781.78h12.5a.78.78 0 00.781-.78V4.69a.781.781 0 00-.781-.78zm-.781 17.968H33.374V5.472h10.938v16.406zM29.25 0h-12.5a.781.781 0 00-.782.781V26.57c0 .432.35.781.781.781h12.5a.78.78 0 00.782-.781V.78a.781.781 0 00-.783-.78zm-.782 25.788H17.53V1.562h10.938v24.226z" fill="#52526C"/><path d="M4.03 8.593h3.125a.781.781 0 100-1.563H4.03a.781.781 0 100 1.563zm4.689.001a.78.78 0 00.781.781h.782a.773.773 0 00.274-.055l.045-.016c.01-.005.02-.006.03-.011.035-.017.058-.048.09-.07.045-.032.092-.061.13-.102.035-.037.058-.081.083-.124.027-.042.055-.081.074-.129.02-.053.024-.109.033-.165.005-.037.021-.071.021-.11 0-.008-.004-.015-.004-.023-.002-.051-.019-.101-.031-.153-.013-.05-.018-.102-.041-.148-.003-.008-.002-.017-.006-.024l-.284-.568a.77.77 0 00.367-.646.781.781 0 00-.782-.781H9.5c-.009 0-.016.005-.023.005-.053.001-.104.018-.156.032-.05.011-.1.018-.147.04-.008.003-.016.002-.023.006-.035.017-.058.047-.09.07-.046.031-.092.06-.13.102-.035.037-.058.08-.084.124-.026.042-.054.081-.072.128-.02.053-.025.109-.034.166-.006.036-.022.07-.022.108 0 .009.004.016.004.024.002.051.02.101.032.154.012.05.018.102.04.148.003.008.003.016.007.023l.283.568a.769.769 0 00-.366.646zM4.055 13.28h-.007a.777.777 0 00-.777.782.784.784 0 001.566 0 .782.782 0 00-.782-.782zm6.222 0H6.376a.78.78 0 100 1.563h3.901a.78.78 0 100-1.563zm-6.222-2.345h-.007a.777.777 0 00-.777.782.784.784 0 001.566 0 .782.782 0 00-.782-.782zm6.222 0H6.376a.78.78 0 100 1.563h3.901a.78.78 0 100-1.563zm-5.075 9.378H9.11a1.955 1.955 0 001.953-1.954 1.955 1.955 0 00-1.953-1.953H5.202A1.955 1.955 0 003.25 18.36c0 1.078.876 1.953 1.953 1.953zm3.908-2.344a.39.39 0 010 .781H5.202a.392.392 0 01-.39-.39c0-.215.176-.391.39-.391H9.11zm26.607-9.376h3.125a.781.781 0 100-1.563h-3.125a.781.781 0 100 1.563zm4.689 0a.78.78 0 00.78.781h.782a.773.773 0 00.275-.055l.044-.016c.01-.005.02-.006.031-.01.035-.018.058-.048.089-.07.046-.033.093-.062.131-.103.035-.037.057-.08.083-.124.027-.042.055-.081.073-.129.02-.053.025-.108.033-.165.006-.037.022-.07.022-.109 0-.009-.005-.016-.005-.023-.001-.052-.018-.102-.03-.154-.013-.05-.019-.102-.041-.148-.004-.008-.003-.016-.007-.023l-.283-.568a.77.77 0 00.366-.646.781.781 0 00-.781-.781h-.781c-.009 0-.016.005-.023.005-.052.001-.104.018-.155.032-.05.011-.102.018-.147.04-.008.003-.017.002-.024.006-.035.017-.057.047-.089.07-.046.031-.093.06-.131.102-.034.037-.057.08-.084.124-.025.042-.053.081-.072.128-.02.053-.025.109-.033.166-.006.036-.022.07-.022.108 0 .009.005.016.005.024.001.051.019.101.031.154.013.05.018.102.04.148.004.008.003.016.007.023l.283.568a.764.764 0 00-.367.645zm-4.664 4.687h-.008a.777.777 0 00-.776.782.784.784 0 001.566 0 .782.782 0 00-.782-.782zm6.222 0h-3.901a.78.78 0 100 1.563h3.901a.78.78 0 100-1.563zm-6.222-2.345h-.008a.777.777 0 00-.776.782.784.784 0 001.566 0 .782.782 0 00-.782-.782zm6.222 0h-3.901a.78.78 0 100 1.563h3.901a.78.78 0 100-1.563zm-5.074 9.378h3.907a1.955 1.955 0 001.953-1.954 1.955 1.955 0 00-1.953-1.953h-3.908a1.955 1.955 0 00-1.953 1.953c0 1.078.876 1.953 1.953 1.953zm3.907-2.344a.39.39 0 010 .781h-3.908a.392.392 0 01-.39-.39c0-.215.175-.391.39-.391h3.908zM19.873 4.686h3.125a.781.781 0 100-1.563h-3.125a.781.781 0 100 1.563zm4.689 0a.78.78 0 00.781.781h.782a.773.773 0 00.274-.055l.045-.016c.01-.005.02-.006.03-.011.035-.017.058-.048.09-.07.045-.032.092-.061.13-.102.035-.037.058-.081.083-.124.027-.042.055-.081.073-.129.02-.053.026-.109.034-.165.005-.037.021-.07.021-.11 0-.008-.004-.015-.004-.023-.002-.051-.019-.101-.032-.153-.012-.05-.017-.102-.04-.148-.003-.008-.002-.017-.006-.024l-.284-.568a.77.77 0 00.366-.645.781.781 0 00-.78-.781h-.782c-.009 0-.016.004-.023.004-.052.001-.102.02-.153.03-.05.013-.103.02-.149.042-.008.003-.016.002-.023.006-.036.017-.058.047-.09.07-.046.031-.093.06-.13.102-.035.037-.058.08-.084.124-.026.042-.054.081-.072.128-.02.053-.026.109-.034.166-.005.036-.022.07-.022.108 0 .009.005.016.005.024.002.051.019.101.031.154.013.05.018.102.04.148.004.008.003.016.007.023l.284.568a.766.766 0 00-.368.646zM19.898 9.37h-.007a.777.777 0 00-.777.781.784.784 0 001.566 0 .782.782 0 00-.782-.78zm6.222 0h-3.9a.78.78 0 100 1.563h3.901a.78.78 0 100-1.563zm-6.222 2.343h-.007a.777.777 0 00-.777.781.784.784 0 001.566 0 .782.782 0 00-.782-.781zm6.222 0h-3.9a.78.78 0 100 1.562h3.901a.78.78 0 100-1.562zm-6.222 2.344h-.007a.777.777 0 00-.777.78.784.784 0 001.566 0 .782.782 0 00-.782-.78zm6.222 0h-3.9a.78.78 0 100 1.562h3.901a.78.78 0 100-1.562zm-6.222 2.344h-.007a.777.777 0 00-.777.782.784.784 0 001.566 0 .782.782 0 00-.782-.782zm6.222 0h-3.9a.78.78 0 100 1.563h3.901a.78.78 0 100-1.563zm-6.222-9.375h-.007a.778.778 0 00-.777.782.784.784 0 001.566 0 .782.782 0 00-.782-.782zm6.222 0h-3.9a.781.781 0 100 1.563h3.901a.781.781 0 100-1.563zm-5.075 17.197h3.908a1.955 1.955 0 001.953-1.953 1.955 1.955 0 00-1.953-1.954h-3.908a1.955 1.955 0 00-1.953 1.954c0 1.077.876 1.953 1.953 1.953zm3.908-2.344a.391.391 0 010 .781h-3.908a.392.392 0 01-.39-.39c0-.215.175-.391.39-.391h3.908z" fill="#52526C"/></svg>