<svg width="30" height="31" fill="none" xmlns="http://www.w3.org/2000/svg"><path d="M29.121 25.666h-2.695V5.451a.879.879 0 00-.88-.879H5.333V1.877a.879.879 0 00-1.758 0v2.695H.88a.879.879 0 000 1.758h2.695v20.215a.88.88 0 00.88.879h20.214v2.695a.879.879 0 001.758 0v-2.695h2.695a.879.879 0 000-1.758zM24.668 6.33v16.335l-5.53-5.53a.879.879 0 00-1.244 0L15.88 19.15l-3.773-3.773a.879.879 0 00-1.243 0l-5.531 5.53V6.33h19.336zM5.332 25.666v-2.273l6.152-6.152 6.41 6.41a.879.879 0 101.243-1.243l-2.015-2.015 1.394-1.394 6.152 6.152v.515H5.332z" fill="#52526C"/><path d="M19.395 15.12a3.52 3.52 0 003.515-3.516 3.52 3.52 0 00-3.515-3.516 3.52 3.52 0 00-3.516 3.516 3.52 3.52 0 003.516 3.515zm0-5.274c.969 0 1.757.788 1.757 1.758a1.76 1.76 0 01-1.758 1.757 1.76 1.76 0 01-1.757-1.758c0-.969.788-1.757 1.758-1.757z" fill="#52526C"/></svg>