<svg width="43" height="21" fill="none" xmlns="http://www.w3.org/2000/svg"><path d="M41.735 0H1.346a.747.747 0 00-.748.748v9.72c0 .415.334.749.748.749h40.389a.747.747 0 00.748-.748V.748A.747.747 0 0041.735 0zm-.748 9.72H2.094V1.497h38.893V9.72zM8.825 17.267h10.466a.747.747 0 100-1.495H8.825a.747.747 0 100 1.495zm5.973 2.648a.747.747 0 00-.748-.748H8.825a.747.747 0 100 1.496h5.225a.747.747 0 00.748-.748zm26.934-4.144H31.267a.747.747 0 100 1.496h10.465a.747.747 0 100-1.495zm-5.242 3.396h-5.224a.747.747 0 100 1.496h5.225a.747.747 0 100-1.496zM6.053 15.242l-2.46 2.46-.222-.222a.747.747 0 10-1.058 1.057l.752.752c.14.14.325.21.51.215H2.094v-2.991h1.494a.747.747 0 100-1.496H1.346a.747.747 0 00-.748.748v4.487c0 .414.334.748.748.748h4.488a.747.747 0 00.748-.748v-.746a.747.747 0 00-1.496-.002H3.612a.745.745 0 00.51-.215l2.99-2.989a.747.747 0 10-1.059-1.058zM28.275 21a.747.747 0 00.748-.748v-4.48a.747.747 0 00-.748-.748h-4.488a.747.747 0 00-.748.748v4.48c0 .413.334.748.748.748h4.488zm-3.74-4.48h2.992v2.984h-2.992V16.52z" fill="#52526C"/></svg>