<svg width="30" height="29" fill="none" xmlns="http://www.w3.org/2000/svg"><path d="M6.77 13.533H.97a.967.967 0 00-.968.967v13.533c0 .534.434.967.967.967h5.8a.967.967 0 00.967-.967V14.5a.967.967 0 00-.967-.967zm-.968 13.533H1.936v-11.6h3.866v11.6zm11.6-9.666h-5.8a.967.967 0 00-.966.967v9.667c0 .533.433.966.966.966h5.8a.966.966 0 00.967-.966v-9.667a.966.966 0 00-.967-.967zm-.966 9.667h-3.867v-7.733h3.867v7.733zm11.6-13.534h-5.8a.966.966 0 00-.967.967v13.533c0 .534.432.967.967.967h5.8a.966.966 0 00.966-.967V14.5a.966.966 0 00-.966-.967zm-.967 13.533h-3.867v-11.6h3.867v11.6zM28.035 0H24.17a.966.966 0 100 1.933h1.533l-11.2 11.2-9.95-9.95a.966.966 0 00-1.366 0l-2.9 2.9A.966.966 0 101.653 7.45l2.216-2.217 9.95 9.95a.964.964 0 001.367 0L27.069 3.3v1.533a.966.966 0 101.933 0V.967A.966.966 0 0028.036 0z" fill="#52526C"/></svg>