<svg width="39" height="27" fill="none" xmlns="http://www.w3.org/2000/svg"><path d="M32.842 12.47A6.165 6.165 0 0039 6.312 6.165 6.165 0 0032.842.153a6.165 6.165 0 00-6.158 6.159 6.165 6.165 0 006.158 6.158zm.009-4.106l-.01-.002-.008.002a2.055 2.055 0 01-2.044-2.052c0-1.132.921-2.053 2.053-2.053s2.053.92 2.053 2.053a2.055 2.055 0 01-2.044 2.052zm.675 2.683V9.664a3.43 3.43 0 002.667-2.668h1.383a4.791 4.791 0 01-4.05 4.05zm-.684-9.525a4.792 4.792 0 014.735 4.105h-1.383a3.426 3.426 0 00-3.352-2.737 3.425 3.425 0 00-3.42 3.422 3.427 3.427 0 002.736 3.352v1.383a4.793 4.793 0 01-4.105-4.735 4.794 4.794 0 014.789-4.79zm0 12.317a6.165 6.165 0 00-6.158 6.158 6.165 6.165 0 006.158 6.158 6.138 6.138 0 004.34-1.795l.015-.01c.004-.004.005-.01.01-.014A6.137 6.137 0 0039 19.997a6.165 6.165 0 00-6.158-6.158zm1.454 7.605l-.004.002-.002.004c-.372.37-.884.6-1.448.6a2.055 2.055 0 01-2.053-2.053c0-1.132.921-2.053 2.053-2.053s2.053.921 2.053 2.053c0 .564-.23 1.076-.6 1.447zm-6.243-1.447a4.793 4.793 0 014.104-4.735v1.384a3.426 3.426 0 00-2.736 3.351 3.425 3.425 0 003.42 3.421c.697 0 1.344-.212 1.885-.57l.98.979c-.8.6-1.79.96-2.864.96a4.795 4.795 0 01-4.79-4.79zm8.62 2.862l-.98-.979c.359-.541.57-1.187.57-1.883a3.426 3.426 0 00-2.737-3.351v-1.383a4.793 4.793 0 014.105 4.735 4.754 4.754 0 01-.958 2.861zM24.257 6.652c-.012-.02-.032-.032-.046-.052a12.904 12.904 0 00-4.713-4.705A12.997 12.997 0 0013.01.15 13.051 13.051 0 001.74 6.654C-1.845 12.864.29 20.83 6.498 24.413a13 13 0 006.488 1.744c4.636 0 8.955-2.492 11.272-6.503 2.385-4.132 2.224-9.038.027-12.917-.01-.028-.012-.058-.028-.085zm-1.556.11l-6.54 3.776a4.103 4.103 0 00-2.478-1.428V1.542c1.797.105 3.559.63 5.131 1.538a11.557 11.557 0 013.887 3.681zm-12.44 6.392A2.74 2.74 0 0113 10.417a2.74 2.74 0 012.737 2.737A2.74 2.74 0 0113 15.892a2.74 2.74 0 01-2.737-2.738zM2.925 7.338a11.675 11.675 0 019.39-5.795v7.568a4.099 4.099 0 00-1.93 7.206l-3.776 6.54C1.508 19.5-.167 12.695 2.924 7.339zM23.073 18.97a11.68 11.68 0 01-10.086 5.818c-1.802 0-3.584-.427-5.2-1.237l3.782-6.553c.446.166.927.262 1.43.262a4.11 4.11 0 004.105-4.106 4.08 4.08 0 00-.262-1.43l6.546-3.78c1.689 3.38 1.71 7.516-.315 11.026z" fill="#52526C"/></svg>