<svg width="28" height="28" fill="none" xmlns="http://www.w3.org/2000/svg"><path d="M5.734 24.025c.011.01.026.017.037.028A12.935 12.935 0 0014.001 27a12.93 12.93 0 008.248-2.962l.008-.004A12.984 12.984 0 0027 14c0-7.167-5.833-13-13-13S1 6.833 1 14c0 4.03 1.844 7.639 4.734 10.025zm3.668-2.007a5.573 5.573 0 014.596-2.448c1.872 0 3.577.95 4.598 2.45-1.359.783-2.915 1.266-4.596 1.266-1.68 0-3.235-.483-4.598-1.268zM14 15.856a1.858 1.858 0 11.001-3.715A1.858 1.858 0 0114 15.856zm0-11.142c5.12 0 9.286 4.165 9.286 9.285 0 2.085-.717 3.993-1.883 5.545a9.275 9.275 0 00-2.79-2.429 5.51 5.51 0 00.958-3.116c0-3.071-2.5-5.571-5.571-5.571a5.578 5.578 0 00-5.571 5.571 5.54 5.54 0 00.956 3.118 9.291 9.291 0 00-2.79 2.427c-1.164-1.554-1.88-3.46-1.88-5.545 0-5.12 4.165-9.285 9.285-9.285z" fill="#52526C" stroke="#fff" stroke-width="2"/></svg>