<svg width="64" height="20" fill="none" xmlns="http://www.w3.org/2000/svg"><path d="M8.204 12.324V2.034c0-.57-.46-1.03-1.029-1.03H2.03c-.57 0-1.03.46-1.03 1.03v10.29c0 .57.46 1.03 1.03 1.03h5.145c.57 0 1.03-.46 1.03-1.03zM6.146 3.062V6.15H3.058V3.062h3.088zm-3.088 8.233V8.207h3.088v3.088H3.058zM16.435 1.004h-5.146c-.57 0-1.03.46-1.03 1.03v10.29c0 .57.46 1.03 1.03 1.03h5.146c.57 0 1.03-.46 1.03-1.03V2.034c0-.57-.46-1.03-1.03-1.03zm-1.03 2.058V6.15h-3.087V3.062h3.088zm-3.087 8.233V8.207h3.088v3.088h-3.088zm19.028 1.029V2.034c0-.57-.46-1.03-1.03-1.03h-5.145c-.57 0-1.03.46-1.03 1.03v10.29c0 .57.46 1.03 1.03 1.03h5.146c.57 0 1.03-.46 1.03-1.03zm-2.058-9.262V6.15H26.2V3.062h3.088zM26.2 11.295V8.207h3.088v3.088H26.2zm14.406 1.029V2.034c0-.57-.46-1.03-1.03-1.03h-5.145c-.57 0-1.03.46-1.03 1.03v10.29c0 .57.46 1.03 1.03 1.03h5.146c.569 0 1.029-.46 1.029-1.03zm-2.059-9.262V6.15H35.46V3.062h3.087zm-3.087 8.233V8.207h3.087v3.088H35.46zm19.028 1.029V2.034c0-.57-.46-1.03-1.03-1.03h-5.145c-.57 0-1.03.46-1.03 1.03v10.29c0 .57.46 1.03 1.03 1.03h5.145c.57 0 1.03-.46 1.03-1.03zm-2.059-9.262V6.15h-3.087V3.062h3.087zm-3.087 8.233V8.207h3.087v3.088h-3.087zM62.734 1.004h-5.146c-.57 0-1.03.46-1.03 1.03v10.29c0 .57.46 1.03 1.03 1.03h5.146c.569 0 1.029-.46 1.029-1.03V2.034c0-.57-.46-1.03-1.03-1.03zm-1.03 2.058V6.15h-3.087V3.062h3.088zm-3.087 8.233V8.207h3.088v3.088h-3.088zM11.3 17.004H5.7c-.387 0-.7.447-.7 1 0 .553.313 1 .7 1h5.6c.387 0 .7-.447.7-1 0-.553-.313-1-.7-1zm18.4 2h5.6c.387 0 .7-.447.7-1 0-.553-.313-1-.7-1h-5.6c-.387 0-.7.447-.7 1 0 .553.313 1 .7 1zm28.6-2h-5.6c-.387 0-.7.447-.7 1 0 .553.313 1 .7 1h5.6c.387 0 .7-.447.7-1 0-.553-.313-1-.7-1zM20.837 4.09h-.01c-.57 0-1.024.46-1.024 1.029a1.033 1.033 0 002.064 0c0-.57-.462-1.03-1.03-1.03zm23.149 0h-.01c-.568 0-1.023.46-1.023 1.029a1.033 1.033 0 002.063 0c0-.57-.462-1.03-1.03-1.03zM20.837 8.206h-.01c-.57 0-1.024.46-1.024 1.03a1.033 1.033 0 002.064 0c0-.57-.462-1.03-1.03-1.03zm23.149 0h-.01c-.568 0-1.023.46-1.023 1.03a1.033 1.033 0 002.063 0c0-.57-.462-1.03-1.03-1.03z" fill="#52526C" stroke="#fff" stroke-width=".4"/></svg>