<svg width="26" height="25" fill="none" xmlns="http://www.w3.org/2000/svg"><path fill-rule="evenodd" clip-rule="evenodd" d="M6.118 16.823a.765.765 0 00.764-.764v-3.824a.765.765 0 00-.764-.764H2.294a.765.765 0 00-.765.764v3.824c0 .422.343.764.765.764h3.824zm-3.06-1.529V13h2.295v2.294H3.059zm3.06 9.177a.765.765 0 00.764-.765v-3.824a.765.765 0 00-.764-.764H2.294a.765.765 0 00-.765.764v3.824c0 .422.343.765.765.765h3.824zm-3.06-1.53v-2.294h2.295v2.294H3.059zM0 2.294v4.589a2.295 2.295 0 002.295 2.293h21.41A2.295 2.295 0 0026 6.883v-4.59A2.295 2.295 0 0023.705 0H2.295A2.295 2.295 0 000 2.294zm18.353-.765h5.352c.423 0 .766.343.766.765v4.589a.766.766 0 01-.766.764h-5.352V1.53zm-16.824.765c0-.422.344-.765.766-.765h14.528v6.118H2.295a.766.766 0 01-.766-.764v-4.59zM22.02 5.51a.765.765 0 001.08-1.081l-1.146-1.147a.765.765 0 00-1.082 0L19.724 4.43a.765.765 0 001.081 1.081l.607-.606.606.606zM3.823 5.353h6.89a.765.765 0 100-1.53h-6.89a.765.765 0 000 1.53zm5.352 9.559h9.56a.765.765 0 000-1.53h-9.56a.765.765 0 100 1.53zm0 7.647h5.736a.765.765 0 000-1.53H9.176a.765.765 0 000 1.53z" fill="#52526C"/></svg>