<svg width="27" height="21" fill="none" xmlns="http://www.w3.org/2000/svg"><path d="M2.097 3.178h22.875a1.088 1.088 0 100-2.178H2.097a1.088 1.088 0 100 2.178zm0 4.268h22.875a1.088 1.088 0 100-2.178H2.097a1.088 1.088 0 100 2.178zm5.447 2.089a1.088 1.088 0 100 2.179h11.981a1.088 1.088 0 100-2.179H7.544zm2.717 5.447H3.723A2.725 2.725 0 001 17.705a2.725 2.725 0 002.723 2.724h6.538a2.725 2.725 0 002.724-2.724 2.725 2.725 0 00-2.723-2.723zM3.723 18.25a.546.546 0 01-.545-.545c0-.3.245-.544.545-.544h6.538c.3 0 .545.245.545.544 0 .3-.245.545-.544.545H3.723zm19.617-3.268H16.8a2.725 2.725 0 00-2.723 2.723 2.725 2.725 0 002.723 2.724h6.539a2.725 2.725 0 002.723-2.724 2.725 2.725 0 00-2.723-2.723zM16.8 18.25a.546.546 0 01-.544-.545c0-.3.245-.544.544-.544h6.539a.545.545 0 010 1.089H16.8z" fill="#52526C" stroke="#fff" stroke-width=".3"/></svg>