<svg width="43" height="29" fill="none" xmlns="http://www.w3.org/2000/svg"><path d="M16.893 3.839h.117l.66 3.966c.007.034.024.063.035.095.013.04.023.079.042.116a.73.73 0 00.092.137c.024.03.045.06.073.086.044.042.096.07.148.1.03.016.055.038.086.05a.753.753 0 00.281.057h6.144c.1 0 .193-.022.281-.057.032-.013.057-.034.087-.05a.7.7 0 00.148-.1c.028-.026.048-.056.073-.086a.728.728 0 00.092-.137c.018-.037.029-.076.041-.116.011-.032.029-.06.035-.095l.66-3.966h.12a.768.768 0 100-1.535h-1.124L23.675.342a.768.768 0 00-1.277.852l.74 1.11-3.276-.001.74-1.109a.767.767 0 10-1.278-.852l-1.307 1.96h-1.124a.768.768 0 100 1.537zM23.92 6.91h-4.842l-.511-3.072h5.865L23.92 6.91zM3.071 17.659h3.84a.767.767 0 00.768-.768V13.82a.767.767 0 00-.768-.768H5.76a.767.767 0 10-1.536 0H3.071a.767.767 0 00-.767.768v3.072c0 .425.343.768.767.768zm.768-3.072h.384a.767.767 0 101.536 0h.385v1.536H3.839v-1.536zm8.446.003h13.821a.767.767 0 100-1.536H12.285a.767.767 0 100 1.535zm0 2.304h7.672a.767.767 0 100-1.536h-7.672a.767.767 0 100 1.536zm19.195-.77h3.84a.767.767 0 100-1.536h-3.84a.767.767 0 100 1.536zm5.376 0c0 .425.344.768.768.768h.768l.005-.001c.114 0 .22-.03.318-.075.006-.004.014-.003.02-.006.035-.016.056-.046.087-.067.046-.032.092-.06.13-.102.034-.036.055-.08.081-.12.026-.043.054-.08.072-.128.02-.052.025-.107.033-.162.005-.037.021-.07.021-.108 0-.008-.004-.015-.004-.023-.002-.05-.019-.1-.031-.15-.012-.05-.018-.101-.04-.147-.003-.007-.002-.015-.006-.022l-.279-.559a.757.757 0 00.36-.634.767.767 0 00-.768-.768h-.767c-.01 0-.017.005-.025.006-.048.001-.095.017-.144.028-.052.012-.106.019-.152.042-.007.003-.016.002-.023.006-.034.017-.056.046-.086.067-.047.033-.093.06-.13.102-.034.037-.056.08-.082.121-.025.042-.053.08-.071.127-.02.052-.025.107-.033.162-.005.037-.022.07-.022.108 0 .008.005.015.005.023.002.05.018.1.03.15.013.05.018.101.04.146.004.008.003.017.007.023l.279.559a.756.756 0 00-.36.634z" fill="#52526C"/><path d="M.768 28.415h41.464a.767.767 0 00.768-.768v-16.9a.767.767 0 00-.768-.768H.768a.767.767 0 00-.768.767v16.9c0 .425.343.769.768.769zm.768-1.536v-6.915h39.928v6.915H1.536zm39.928-15.365v6.915H1.536v-6.915h39.928z" fill="#52526C"/><path d="M6.911 21.502H5.76a.767.767 0 10-1.536 0H3.071a.767.767 0 00-.767.768v3.072c0 .425.343.768.767.768h3.84a.767.767 0 00.768-.768V22.27a.767.767 0 00-.768-.768zm-.767 3.072H3.839v-1.536h.384a.767.767 0 101.536 0h.385v1.536zm19.962-3.07H12.285a.767.767 0 100 1.536h13.821a.767.767 0 100-1.536zm-6.149 2.304h-7.672a.767.767 0 100 1.535h7.672a.767.767 0 100-1.535zm15.363-.77h-3.84a.767.767 0 100 1.536h3.84a.767.767 0 100-1.536zm3.84.002a.767.767 0 00-.768-.768h-.768c-.009 0-.016.005-.026.005-.047.001-.092.017-.14.028-.053.013-.106.019-.155.042-.007.003-.015.002-.022.006-.035.017-.056.047-.086.067-.047.033-.093.061-.13.103-.034.036-.056.079-.082.12-.025.042-.054.08-.071.127-.02.052-.025.107-.033.163-.006.037-.022.069-.022.107 0 .009.005.015.005.023.001.05.018.1.03.15.013.05.018.101.04.146.003.008.003.017.006.024l.28.558a.757.757 0 00-.36.634c0 .425.342.768.767.768h.773a.76.76 0 00.317-.076c.007-.004.015-.002.021-.005.035-.017.056-.047.087-.068.046-.032.092-.06.13-.102.033-.036.055-.08.081-.12.025-.043.054-.08.072-.128.02-.052.025-.107.032-.162.006-.037.022-.07.022-.108 0-.008-.005-.015-.005-.023-.001-.05-.018-.1-.03-.15-.013-.05-.018-.1-.04-.147-.003-.007-.003-.015-.006-.022l-.28-.558a.755.755 0 00.361-.635z" fill="#52526C"/></svg>