<svg width="28" height="28" fill="none" xmlns="http://www.w3.org/2000/svg"><path d="M15.075 2.075c0 .41.33.74.74.74h11.09a.739.739 0 100-1.48h-11.09c-.41 0-.74.331-.74.74zm.739 3.603h9.611a.739.739 0 100-1.479h-9.61a.739.739 0 100 1.479zm0 2.671h8.871a.739.739 0 100-1.479h-8.87a.739.739 0 100 1.479zm11.091 1.192h-11.09a.739.739 0 100 1.479h11.09a.739.739 0 100-1.479zM12.855 0H1.026c-.409 0-.74.33-.74.74v11.089c0 .409.331.74.74.74h11.829c.088 0 .175-.02.26-.053.028-.01.051-.025.077-.039.03-.015.063-.026.092-.046.016-.012.024-.03.04-.043a.771.771 0 00.106-.113.807.807 0 00.074-.109.651.651 0 00.05-.135.702.702 0 00.028-.14c.002-.021.013-.04.013-.062V.739a.74.74 0 00-.74-.739zM1.765 1.479h10.35v8.045l-2.356-3.3c-.025-.035-.06-.054-.089-.083-.029-.03-.048-.065-.083-.09-.007-.004-.015-.005-.023-.01-.045-.03-.095-.046-.145-.065-.04-.016-.078-.037-.12-.045-.047-.01-.095-.005-.144-.004-.046 0-.091-.005-.136.004-.045.008-.084.03-.127.046-.047.019-.096.034-.14.063-.007.005-.016.006-.023.011-.035.025-.055.06-.084.09-.028.029-.064.048-.088.082L6.59 8.98 5.7 7.707c-.026-.037-.063-.058-.094-.088-.03-.03-.051-.068-.088-.094-.006-.003-.011-.003-.017-.007-.048-.033-.104-.049-.159-.069-.036-.014-.07-.034-.107-.041-.046-.01-.094-.003-.141-.003-.047 0-.095-.007-.141.003-.037.007-.071.027-.107.041-.055.02-.11.036-.16.069-.005.004-.011.004-.016.007-.036.026-.057.062-.087.092-.03.031-.069.053-.094.09L2.12 11.088h-.356v-9.61zm2.16 9.61l1.167-1.667.584.835-.595.833H3.924zm5.233-3.164l2.26 3.165h-4.52l2.26-3.165zm3.41 6.959H.74a.738.738 0 00-.739.74v11.089c0 .409.33.739.74.739h11.828c.088 0 .175-.02.26-.052.028-.01.051-.026.077-.039.03-.015.063-.026.092-.047.016-.011.024-.03.04-.042a.771.771 0 00.106-.113.814.814 0 00.074-.11.651.651 0 00.05-.134.702.702 0 00.029-.14c.001-.022.012-.04.012-.062v-11.09a.74.74 0 00-.74-.74zm-11.09 1.478h10.35v8.046l-2.356-3.3c-.024-.035-.06-.055-.089-.084-.029-.028-.048-.064-.083-.088-.007-.005-.015-.006-.022-.01-.046-.03-.096-.047-.145-.066-.041-.016-.079-.037-.12-.046-.048-.01-.096-.004-.145-.003-.046 0-.091-.005-.136.003-.044.009-.084.03-.126.047-.048.019-.097.034-.14.063-.008.005-.016.006-.024.011-.035.025-.055.06-.084.09-.028.028-.064.048-.087.082L6.3 23.863l-.89-1.272c-.024-.037-.062-.058-.092-.089-.03-.03-.052-.068-.09-.093-.004-.003-.01-.003-.015-.007-.05-.033-.105-.049-.16-.069-.036-.014-.07-.034-.107-.041-.046-.01-.093-.003-.14-.003-.048 0-.095-.007-.142.003-.037.007-.071.027-.107.041-.055.02-.11.036-.16.069-.005.003-.011.003-.015.007-.037.025-.057.062-.088.092-.03.03-.068.052-.094.09l-2.367 3.38H1.48v-9.609zm2.16 9.611l1.167-1.668.585.836-.596.832H3.637zm5.233-3.165l2.26 3.165h-4.52l2.26-3.165zm18.389-7.924H15.431c-.409 0-.74.33-.74.74v11.089c0 .409.331.739.74.739H27.26c.088 0 .174-.02.26-.052.028-.01.051-.026.077-.039.03-.015.063-.026.092-.047.016-.011.024-.03.04-.042a.766.766 0 00.106-.113.805.805 0 00.074-.11.657.657 0 00.05-.134.695.695 0 00.028-.14c.002-.022.013-.04.013-.062v-11.09a.74.74 0 00-.74-.74zm-11.09 1.478h10.35v8.046l-2.356-3.3c-.025-.035-.06-.055-.089-.084-.029-.028-.048-.064-.083-.088-.007-.005-.015-.006-.023-.01-.046-.03-.095-.047-.145-.066-.04-.016-.078-.037-.12-.046-.047-.01-.096-.004-.144-.003-.046 0-.091-.005-.136.003-.045.009-.084.03-.127.047-.047.019-.096.034-.14.063-.007.005-.016.006-.023.011-.035.025-.055.06-.084.09-.029.028-.064.048-.088.082l-1.968 2.756-.89-1.272c-.026-.037-.063-.058-.094-.089-.03-.03-.051-.068-.088-.093-.006-.003-.012-.003-.017-.007-.048-.033-.104-.049-.159-.069-.036-.014-.07-.034-.107-.041-.046-.01-.094-.003-.141-.003-.047 0-.095-.007-.141.003-.037.007-.071.027-.107.041-.055.02-.11.036-.16.069-.005.003-.011.003-.016.007-.036.025-.057.062-.087.092-.03.03-.069.052-.095.09l-2.366 3.38h-.356v-9.609zm2.16 9.611l1.167-1.668.584.836-.595.832H18.33zm5.233-3.165l2.26 3.165h-4.52l2.26-3.165z" fill="#52526C"/><path d="M4.353 5.913a1.85 1.85 0 001.848-1.849 1.85 1.85 0 00-1.848-1.847 1.85 1.85 0 00-1.848 1.847 1.85 1.85 0 001.848 1.849zm0-2.218a.37.37 0 010 .739.37.37 0 010-.739zm0 17.218a1.85 1.85 0 001.848-1.849 1.85 1.85 0 00-1.848-1.847 1.85 1.85 0 00-1.848 1.847 1.85 1.85 0 001.848 1.849zm0-2.218a.37.37 0 010 .739.37.37 0 010-.739zm15 2.218a1.85 1.85 0 001.848-1.849 1.85 1.85 0 00-1.848-1.847 1.85 1.85 0 00-1.848 1.847 1.85 1.85 0 001.848 1.849zm0-2.218a.37.37 0 010 .739.37.37 0 010-.739z" fill="#52526C"/></svg>