<svg width="24" height="20" fill="none" xmlns="http://www.w3.org/2000/svg"><path d="M11.54 11.035a5.525 5.525 0 005.518-5.517A5.526 5.526 0 0011.54-.001a5.526 5.526 0 00-5.52 5.519 5.525 5.525 0 005.519 5.517zm0-9.03a3.516 3.516 0 013.512 3.513 3.515 3.515 0 01-3.512 3.51 3.515 3.515 0 01-3.512-3.51 3.516 3.516 0 013.512-3.512zM1.003 16.056h21.073a1.002 1.002 0 100-2.007H1.003a1.002 1.002 0 100 2.007zm2.737 3.943h15.52c.41 0 .74-.447.74-1 0-.553-.33-1-.74-1H3.74c-.41 0-.74.447-.74 1 0 .553.33 1 .74 1z" fill="#52526C"/></svg>