<svg width="34" height="26" fill="none" xmlns="http://www.w3.org/2000/svg"><path d="M33.318-.001H1.41a.59.59 0 00-.59.59v24.819c0 .327.263.59.59.59h31.91a.59.59 0 00.59-.59V.59a.59.59 0 00-.59-.591zm-2.954 10.637h2.363v4.725h-2.363v-4.725zm0-1.181V5.317h2.363v4.138h-2.363zm0 7.088h2.363v4.138h-2.363v-4.138zm2.363-12.408h-2.363V2.957a.588.588 0 00.59.587.59.59 0 00.418-.173l.173-.173.173.173a.59.59 0 00.836 0 .59.59 0 000-.835l-.591-.591a.59.59 0 00-.836 0l-.59.59a.588.588 0 00-.173.416V1.18h2.363v2.954zM2 1.181h27.182v23.636H2V1.181zm28.364 23.636v-2.954h2.363v1.177a.59.59 0 00-1.008-.415l-.173.174-.173-.174a.59.59 0 10-.836.836l.591.59a.589.589 0 00.836 0l.59-.59a.588.588 0 00.173-.415v1.771h-2.363z" fill="#52526C"/><path d="M7.91 8.864c.977 0 1.773-.796 1.773-1.773 0-.978-.796-1.774-1.773-1.774-.978 0-1.773.796-1.773 1.774 0 .977.795 1.773 1.773 1.773zm0-2.365a.592.592 0 11-.001 1.184.592.592 0 010-1.184z" fill="#52526C"/><path d="M27.428 2.999H4.572A.577.577 0 004 3.582v12.826c0 .322.255.583.571.583H9.66c.016.002.033.008.05.008.012 0 .022-.008.034-.008h2.808l.014.002.01-.002H25.13l.01.002.014-.002h2.274c.317 0 .572-.26.572-.583V3.582A.577.577 0 0027.428 3zm-13.147 7.993l.731 1.027-2.735 3.806h-1.44l3.444-4.833zm4.571-2.343l5.157 7.176H13.695l5.157-7.176zm8.005 7.176h-1.43l-6.113-8.506c-.02-.029-.049-.045-.073-.068-.018-.018-.03-.041-.051-.058-.007-.005-.015-.006-.022-.01-.036-.025-.076-.04-.118-.056-.03-.011-.057-.026-.088-.032-.037-.008-.074-.005-.112-.005-.036 0-.07-.003-.106.004-.032.007-.061.022-.092.034-.04.016-.08.03-.115.055-.007.004-.015.005-.021.01-.022.016-.033.039-.051.057-.024.024-.053.04-.074.069l-2.669 3.713-.978-1.373c-.02-.028-.05-.045-.073-.069-.02-.018-.032-.043-.054-.06-.007-.004-.014-.005-.02-.01a.522.522 0 00-.12-.055c-.03-.012-.056-.026-.086-.033-.036-.007-.071-.003-.108-.004-.038 0-.075-.003-.112.005-.029.006-.054.02-.082.03a.55.55 0 00-.125.058c-.006.005-.013.005-.018.01-.023.016-.035.039-.053.058-.025.024-.054.04-.075.07l-4.394 6.166H5.143V4.165h21.714v11.66zm.571 3.174H4.572c-.316 0-.571.224-.571.5 0 .277.255.5.571.5h22.857c.317 0 .572-.223.572-.5 0-.276-.255-.5-.572-.5zm-5.857 2H4.43c-.237 0-.429.224-.429.5 0 .277.192.5.429.5h17.14c.237 0 .429-.223.429-.5 0-.276-.192-.5-.429-.5z" fill="#52526C"/></svg>