<svg width="39" height="34" fill="none" xmlns="http://www.w3.org/2000/svg"><path d="M18.794.696A.695.695 0 0018.097 0H.698a.695.695 0 00-.696.696V14.62c0 .385.311.696.696.696h17.4a.689.689 0 00.249-.05c.03-.012.055-.03.083-.046.034-.018.07-.03.102-.056.01-.008.014-.02.023-.028a.64.64 0 00.095-.113c.025-.034.052-.065.07-.102.018-.038.027-.08.038-.122a.644.644 0 00.029-.14c0-.014.007-.024.007-.038V.696zm-17.4.696h16.007v11.24L13.076 7.22c-.018-.022-.044-.034-.064-.054-.018-.017-.027-.04-.047-.055-.015-.013-.035-.016-.05-.027a.748.748 0 00-.25-.104.67.67 0 00-.134-.011.684.684 0 00-.13.01.633.633 0 00-.122.038.692.692 0 00-.13.067c-.016.011-.036.014-.051.027-.02.015-.03.039-.047.055-.02.02-.045.032-.064.054L9.3 10.584 8.19 9.289c-.014-.014-.03-.02-.044-.035-.013-.012-.018-.029-.032-.04-.021-.019-.047-.025-.07-.04a.719.719 0 00-.128-.072.741.741 0 00-.122-.033.647.647 0 00-.133-.016.714.714 0 00-.133.016.636.636 0 00-.121.034.657.657 0 00-.128.07c-.022.015-.048.022-.07.04-.015.012-.02.029-.033.041-.014.014-.031.02-.044.035L3.16 13.923H1.394V1.393zm3.598 12.531L7.66 10.81l.754.88-1.783 2.233H4.992zm7.54-5.155l4.118 5.155H8.413l4.119-5.155z" fill="#52526C"/><path d="M4.528 6.26a1.741 1.741 0 000-3.48 1.741 1.741 0 000 3.48zm0-2.088a.35.35 0 01.348.348.35.35 0 01-.348.349.349.349 0 010-.696zm14.263 14.531a.696.696 0 00-.696-.696H.696a.695.695 0 00-.696.696v13.923c0 .385.311.696.696.696h17.4a.689.689 0 00.248-.05c.031-.012.055-.03.084-.046.034-.018.07-.03.102-.056.01-.008.014-.02.023-.028.038-.034.066-.073.095-.113.025-.034.052-.066.07-.102.018-.039.027-.08.038-.122a.649.649 0 00.028-.14c.001-.014.008-.024.008-.038V18.703zm-17.399.696H17.4v11.24l-4.325-5.413c-.018-.022-.044-.034-.064-.054-.018-.017-.027-.04-.047-.055-.015-.013-.035-.016-.05-.027a.755.755 0 00-.25-.104.673.673 0 00-.134-.011.688.688 0 00-.13.01.635.635 0 00-.122.038.691.691 0 00-.13.067c-.016.011-.036.014-.051.027-.02.015-.03.039-.047.055-.02.02-.045.032-.064.054L9.297 28.59l-1.11-1.295c-.014-.015-.031-.02-.044-.035-.013-.012-.018-.029-.032-.04-.021-.019-.048-.025-.07-.04a.716.716 0 00-.128-.072.737.737 0 00-.122-.034.644.644 0 00-.133-.015.71.71 0 00-.133.015.632.632 0 00-.122.035.654.654 0 00-.127.07c-.022.015-.049.021-.07.04-.015.012-.02.029-.033.041-.014.014-.031.02-.044.035L3.157 31.93H1.392V19.399zm3.598 12.53l2.668-3.112.754.88L6.63 31.93H4.99zm7.54-5.154l4.118 5.155H8.411l4.118-5.155z" fill="#52526C"/><path d="M4.526 24.267a1.741 1.741 0 000-3.48 1.741 1.741 0 000 3.48zm0-2.088a.35.35 0 01.348.348.349.349 0 01-.348.348.349.349 0 010-.696zM20.902 6.263h17.402a.695.695 0 100-1.392H20.902a.695.695 0 100 1.392zm0 2.783h8.344a.695.695 0 100-1.392h-8.344a.695.695 0 100 1.392zM37.8 29.436l-.9.9-.9-.9a.695.695 0 10-.984.984l1.392 1.392a.694.694 0 00.985 0l1.392-1.392a.695.695 0 10-.984-.984zm-2.292-2.059a.694.694 0 00.493-.204l.9-.9.9.9a.694.694 0 00.984 0 .695.695 0 000-.984l-1.392-1.392a.695.695 0 00-.985 0l-1.392 1.392a.695.695 0 00.492 1.188zM20.882 15.31h8.353a.695.695 0 00.697-.697v-2.088a.695.695 0 00-.697-.696h-8.353a.695.695 0 00-.696.696v2.088c0 .385.311.697.696.697zm.696-2.089h6.961v.696h-6.96v-.696z" fill="#52526C"/></svg>