<svg width="41" height="6" fill="none" xmlns="http://www.w3.org/2000/svg"><path d="M11.602.67h16.661a.832.832 0 110 1.666h-16.66a.832.832 0 110-1.666zm3.333 3.665h9.996a.832.832 0 110 1.666h-9.996a.832.832 0 110-1.666zm19.661-2.668h2.986l-.244-.244A.832.832 0 1138.516.245l1.665 1.666a.826.826 0 010 1.18l-1.665 1.664a.83.83 0 01-1.178 0 .832.832 0 010-1.178l.244-.244h-2.986a.832.832 0 110-1.666zM.67 2.182a.825.825 0 01.181-.271L2.516.245a.832.832 0 111.178 1.178l-.244.244h2.987a.832.832 0 110 1.666H3.45l.244.244a.832.832 0 11-1.178 1.178L.851 3.09a.834.834 0 01-.18-.908z" fill="#52526C"/></svg>