<svg width="27" height="27" fill="none" xmlns="http://www.w3.org/2000/svg"><path d="M5.91 10.177h1.581V7.644h5.214v11.945h-2.05v1.582h5.68V19.59h-2.05V7.644H19.5v2.533h1.581V6.062H5.91v4.115z" fill="#52526C"/><path d="M25.32 22.186V4.814A2.476 2.476 0 0027 2.472 2.474 2.474 0 0024.53 0a2.474 2.474 0 00-2.34 1.679H4.81A2.474 2.474 0 002.47 0 2.474 2.474 0 000 2.472C0 3.56.704 4.484 1.68 4.814v17.372A2.476 2.476 0 000 24.528a2.474 2.474 0 002.47 2.473 2.474 2.474 0 002.333-1.661h17.394A2.474 2.474 0 0024.53 27 2.474 2.474 0 0027 24.528a2.476 2.476 0 00-1.68-2.342zm-3.137 1.572H4.817a2.482 2.482 0 00-1.556-1.572V4.814a2.482 2.482 0 001.55-1.553h17.378a2.482 2.482 0 001.55 1.553v17.372a2.482 2.482 0 00-1.556 1.572zM24.53 1.582a.891.891 0 010 1.78.891.891 0 010-1.78zm-22.06 0a.891.891 0 010 1.78.891.891 0 010-1.78zm0 23.837a.891.891 0 010-1.781.891.891 0 010 1.78zm22.06 0a.891.891 0 010-1.781.89.89 0 010 1.78z" fill="#52526C"/></svg>