<svg width="53" height="31" fill="none" xmlns="http://www.w3.org/2000/svg"><path d="M21.915 14.159l.021.015a7.391 7.391 0 004.704 1.685c1.788 0 3.43-.636 4.713-1.693l.004-.002a7.42 7.42 0 002.71-5.735C34.068 4.333 30.735 1 26.64 1s-7.43 3.333-7.43 7.429a7.416 7.416 0 002.705 5.73zm2.096-1.148a3.184 3.184 0 012.627-1.398c1.07 0 2.044.543 2.628 1.4a5.238 5.238 0 01-2.627.723 5.24 5.24 0 01-2.628-.725zm2.628-3.52a1.062 1.062 0 110-2.124 1.062 1.062 0 010 2.123zm0-6.368a5.312 5.312 0 015.306 5.306 5.26 5.26 0 01-1.076 3.169 5.299 5.299 0 00-1.594-1.388 3.155 3.155 0 00.548-1.781 3.188 3.188 0 00-3.184-3.184 3.188 3.188 0 00-3.184 3.184c0 .659.202 1.272.547 1.782a5.309 5.309 0 00-1.594 1.387 5.265 5.265 0 01-1.075-3.17 5.312 5.312 0 015.306-5.305zM8.429 29.82c4.095 0 7.429-3.334 7.429-7.43 0-4.095-3.334-7.428-7.43-7.428C4.334 14.962 1 18.295 1 22.39s3.333 7.429 7.429 7.429zm5.199-8.49h-2.21a3.172 3.172 0 00-1.927-1.927v-2.21a5.32 5.32 0 014.137 4.136zm-5.2 0a1.062 1.062 0 110 2.123 1.062 1.062 0 010-2.123zm-1.06-4.138v2.21a3.18 3.18 0 00-2.123 2.988 3.188 3.188 0 003.184 3.183c1.382 0 2.548-.89 2.987-2.122h2.21a5.314 5.314 0 01-5.197 4.245 5.312 5.312 0 01-5.306-5.306 5.315 5.315 0 014.245-5.198zM44.833 29.82c4.096 0 7.429-3.334 7.429-7.43 0-4.095-3.333-7.428-7.429-7.428-4.095 0-7.429 3.333-7.429 7.429 0 4.095 3.334 7.429 7.43 7.429zm0-8.49a1.062 1.062 0 110 2.123 1.062 1.062 0 010-2.123zm5.306 1.06a5.313 5.313 0 01-4.245 5.199v-2.21a3.18 3.18 0 002.123-2.988 3.18 3.18 0 00-2.123-2.988v-2.21a5.313 5.313 0 014.245 5.198zm-6.367-5.198v2.21a3.18 3.18 0 00-2.123 2.988c0 1.38.89 2.548 2.123 2.987v2.21a5.314 5.314 0 01-4.245-5.197 5.314 5.314 0 014.245-5.198zM20.27 21.315h12.739a1.06 1.06 0 100-2.123h-12.74a1.06 1.06 0 100 2.123zm0 3.185h12.739a1.06 1.06 0 100-2.122h-12.74a1.06 1.06 0 100 2.122zm4.246 1.064a1.06 1.06 0 100 2.123h4.246a1.06 1.06 0 100-2.123h-4.246z" fill="#52526C" stroke="#fff" stroke-width=".5"/></svg>