<svg width="32" height="26" fill="none" xmlns="http://www.w3.org/2000/svg"><path d="M1.074 25h24.889a.519.519 0 00.519-.518v-9.55a2.601 2.601 0 001.503-1.858h3.163a.519.519 0 00.519-.518v-2.074a.518.518 0 00-.231-.432c-1.083-.721-1.323-2.928-1.325-3.716 0-2.39-.64-4.058-1.902-4.96C27.166.63 26.003.63 25.445.63c-.56 0-1.722 0-2.765.745-1.262.901-1.902 2.57-1.902 4.958a7.604 7.604 0 01-.086 1.038H1.074a.519.519 0 00-.518.518v16.593a.519.519 0 00.518.518zm24.37-3.63l-6.913-5.184 4.148-3.112h.225a2.597 2.597 0 002.54 2.075v6.222zm0-7.259a1.558 1.558 0 01-1.466-1.037h2.933a1.558 1.558 0 01-1.466 1.037zm-3.63-7.777c0-2.035.495-3.42 1.469-4.115.772-.552 1.676-.552 2.162-.552.485 0 1.389 0 2.161.552.974.695 1.468 2.08 1.468 4.115a9.46 9.46 0 00.206 1.793c.158.735.388 1.347.69 1.836h-.896a.519.519 0 000 1.037h1.556v1.037H20.26V11H27a.518.518 0 100-1.037h-6.082c.302-.488.532-1.1.69-1.836.127-.59.195-1.19.207-1.793zM1.594 8.408h18.874c-.201.673-.52 1.313-1.014 1.642a.517.517 0 00-.23.432v2.074a.518.518 0 00.518.518h1.21l-6.5 4.874a1.564 1.564 0 01-1.866 0l-10.37-7.777a1.563 1.563 0 01-.622-1.245v-.518zm0 2.592l6.913 5.186-6.913 5.185V11zm.622 11.2l7.155-5.366 2.593 1.944a2.606 2.606 0 003.111 0l2.593-1.944 7.155 5.366a1.562 1.562 0 01.623 1.245v.518H1.593v-.518a1.563 1.563 0 01.622-1.245z" fill="#52526C" stroke="#52526C" stroke-width=".4"/></svg>