<svg width="35" height="29" fill="none" xmlns="http://www.w3.org/2000/svg"><path d="M17.287 20.02c5.322 0 9.652-4.329 9.652-9.651S22.608.718 17.287.718c-5.321 0-9.65 4.33-9.65 9.65 0 5.323 4.329 9.653 9.65 9.653zm0-17.624c4.396 0 7.973 3.577 7.973 7.973 0 4.397-3.577 7.973-7.973 7.973-4.395 0-7.972-3.576-7.972-7.973 0-4.396 3.577-7.973 7.972-7.973zm15.947 21.186H1.338a.839.839 0 100 1.678h31.896a.838.838 0 100-1.678zm-7.555 5.197a.838.838 0 100-1.678H8.893a.838.838 0 100 1.678h16.786z" fill="#52526C"/><path d="M16.693 15.578a.832.832 0 001.188 0l3.357-3.356a.838.838 0 10-1.187-1.186l-1.924 1.924V5.755a.838.838 0 10-1.679 0v7.205l-1.892-1.892a.838.838 0 10-1.186 1.187l3.323 3.323z" fill="#52526C"/></svg>