<svg width="33" height="31" fill="none" xmlns="http://www.w3.org/2000/svg"><path d="M6.22 16.08a2.903 2.903 0 00-2.9 2.9c0 1.6 1.3 2.9 2.9 2.9 1.6 0 2.9-1.3 2.9-2.9 0-1.599-1.3-2.9-2.9-2.9zm0 4.64a1.741 1.741 0 010-3.48 1.741 1.741 0 010 3.48z" fill="#52526C" stroke="#52526C" stroke-width=".4"/><path d="M6.22 13.76A5.226 5.226 0 001 18.98c0 4.788 4.572 10.559 4.767 10.802a.58.58 0 00.914-.01c.195-.256 4.759-6.298 4.759-10.792a5.226 5.226 0 00-5.22-5.22zm-.01 14.682c-1.15-1.585-4.05-5.93-4.05-9.462a4.065 4.065 0 014.06-4.06 4.065 4.065 0 014.06 4.06c0 3.316-2.925 7.824-4.07 9.462zM29.68 6.22c0-1.599-1.3-2.9-2.9-2.9-1.6 0-2.9 1.301-2.9 2.9 0 1.6 1.3 2.9 2.9 2.9 1.6 0 2.9-1.3 2.9-2.9zm-4.64 0a1.741 1.741 0 013.48 0 1.741 1.741 0 01-3.48 0z" fill="#52526C" stroke="#52526C" stroke-width=".4"/><path d="M27.241 17.012C27.436 16.756 32 10.714 32 6.22A5.226 5.226 0 0026.78 1a5.226 5.226 0 00-5.22 5.22c0 4.788 4.572 10.559 4.767 10.802a.58.58 0 00.914-.01zM26.78 2.16a4.065 4.065 0 014.06 4.06c0 3.316-2.925 7.824-4.07 9.462-1.151-1.585-4.05-5.93-4.05-9.462a4.065 4.065 0 014.06-4.06zm.45 20.3h-9.86c-1.44 0-2.61-1.17-2.61-2.61s1.17-2.61 2.61-2.61h6.09a.58.58 0 000-1.16h-6.09a3.774 3.774 0 00-3.77 3.77 3.774 3.774 0 003.77 3.77h9.86c1.44 0 2.61 1.17 2.61 2.61s-1.17 2.61-2.61 2.61H9.54a.58.58 0 000 1.16h17.69A3.774 3.774 0 0031 26.23a3.774 3.774 0 00-3.77-3.77z" fill="#52526C" stroke="#52526C" stroke-width=".4"/></svg>