<svg width="34" height="18" fill="none" xmlns="http://www.w3.org/2000/svg"><path d="M1.381 16.516h21.156a2.252 2.252 0 004.234 0h6.141a.75.75 0 000-1.502h-6.141a2.252 2.252 0 00-4.234 0H1.38a.75.75 0 100 1.502zm23.273-1.502a.75.75 0 110 1.502.75.75 0 010-1.502zM10.39 12.012h12.762a6.006 6.006 0 000-12.012h-6.756a.75.75 0 000 1.501h2.8a6.006 6.006 0 000 9.01H10.39a.75.75 0 100 1.5zm8.258-6.006a4.504 4.504 0 119.009 0 4.504 4.504 0 01-9.009 0zM5.886 12.012h1.501a.75.75 0 100-1.501H5.886a.75.75 0 000 1.501z" fill="#52526C"/></svg>