<svg width="23" height="22" fill="none" xmlns="http://www.w3.org/2000/svg"><path d="M11.007 22C4.912 22 0 17.07 0 10.961 0 4.887 4.948-.025 11.078.001c6.056.024 10.943 4.957 10.929 11.06-.014 6.016-4.955 10.939-11 10.939z" fill="#60B158"/><path d="M8.86 12.913c.235-.37.44-.718.67-1.044.887-1.262 2.017-2.245 3.278-3.07a19.113 19.113 0 012.872-1.532c.237-.102.493-.153.743-.217.085-.022.183-.003.295-.003-.042.038-.07.064-.097.083-2.832 2.146-5.071 4.835-6.719 8.066a2.16 2.16 0 01-.173.294c-.229.332-.536.438-.893.268a2.33 2.33 0 01-.56-.383c-.603-.559-1.048-1.252-1.444-1.98a16.84 16.84 0 01-.493-.977 2.101 2.101 0 01-.164-.543c-.061-.377.06-.696.368-.913a.92.92 0 011.011-.074c.235.122.411.317.542.546.14.246.26.508.387.764l.378.715z" fill="#fff"/></svg>