<svg width="28" height="29" fill="none" xmlns="http://www.w3.org/2000/svg"><path d="M13.518 27.962c-.11-.058-.207-.129-.323-.18a4234.406 4234.406 0 00-9.506-4.31c-.168-.078-.22-.182-.245-.343-.55-4.084-1.105-8.168-1.667-12.246C1.305 7.453.84 4.021.367.59.356.48.349.376.337.247h26.539c-.071.523-.136 1.047-.207 1.57-.316 2.333-.64 4.666-.956 6.999l-.95 6.914-.892 6.514c-.039.297-.084.588-.116.885-.02.18-.097.278-.265.355a4265.28 4265.28 0 00-9.506 4.31c-.103.046-.2.11-.297.168h-.168zM1.906 1.617c.02.161.032.297.052.44l.348 2.571.834 6.113c.278 2.049.562 4.09.84 6.14.24 1.77.485 3.54.717 5.304.026.181.104.278.272.356 2.798 1.266 5.602 2.533 8.394 3.806a.52.52 0 00.478-.007c2.779-1.266 5.564-2.533 8.349-3.786.2-.09.278-.207.31-.414.252-1.874.51-3.754.763-5.628.336-2.45.665-4.898.995-7.348.336-2.436.672-4.878 1.001-7.314.013-.078 0-.156 0-.24-7.786.007-15.554.007-23.353.007z" fill="#FF6A5B" stroke="#FF6A5B" stroke-width=".478"/><path d="M7.399 6.399c.258 1.635.51 3.218.769 4.82H20.71c-.09.692-.174 1.364-.265 2.03a816.99 816.99 0 01-.75 5.525.398.398 0 01-.193.271 930.694 930.694 0 01-5.745 2.656.43.43 0 01-.323-.006 925.415 925.415 0 01-5.745-2.65c-.077-.039-.174-.123-.18-.194-.123-1.118-.227-2.242-.343-3.392.452-.045.892-.09 1.363-.143.059.582.117 1.138.168 1.7.026.278.04.562.09.834.02.103.11.232.201.271a389.94 389.94 0 004.465 2.061.394.394 0 00.298 0 404.425 404.425 0 004.49-2.08.4.4 0 00.195-.252c.232-1.706.458-3.412.684-5.125.007-.032 0-.07 0-.148h-.316c-3.82 0-7.638 0-11.457.006-.259 0-.369-.045-.407-.336-.37-2.397-.763-4.787-1.15-7.205h15.353V6.38c-4.569.019-9.144.019-13.744.019z" fill="#FF6A5B" stroke="#FF6A5B" stroke-width=".478"/></svg>