<svg width="27" height="30" fill="none" xmlns="http://www.w3.org/2000/svg"><path d="M13.5 28.948c-.388 0-.75-.103-1.087-.282l-3.442-2.029c-.518-.282-.259-.385-.104-.436.7-.231.829-.283 1.553-.694.078-.05.181-.025.26.026l2.639 1.566c.103.052.233.052.31 0l10.327-5.93c.103-.052.155-.155.155-.283V9.049c0-.128-.052-.23-.155-.282L13.629 2.86c-.103-.05-.232-.05-.31 0L2.993 8.767c-.104.051-.156.18-.156.282v11.837c0 .103.052.23.156.282l2.82 1.618c1.528.77 2.485-.129 2.485-1.027V10.076c0-.154.13-.308.31-.308h1.32c.156 0 .311.129.311.308V21.76c0 2.028-1.113 3.21-3.054 3.21-.595 0-1.06 0-2.38-.643l-2.718-1.54A2.164 2.164 0 011 20.91V9.075c0-.77.414-1.49 1.087-1.874L12.413 1.27a2.326 2.326 0 012.174 0L24.913 7.2A2.164 2.164 0 0126 9.076v11.837c0 .77-.414 1.489-1.087 1.874l-10.326 5.931a2.668 2.668 0 01-1.087.231zm3.183-8.14c-4.529 0-5.46-2.053-5.46-3.8 0-.153.129-.307.31-.307h1.346c.155 0 .285.102.285.256.207 1.361.802 2.029 3.545 2.029 2.174 0 3.106-.488 3.106-1.643 0-.668-.26-1.156-3.65-1.49-2.82-.282-4.58-.898-4.58-3.132 0-2.08 1.76-3.312 4.71-3.312 3.313 0 4.943 1.13 5.15 3.594a.412.412 0 01-.078.232c-.051.05-.129.102-.207.102h-1.345a.303.303 0 01-.285-.23c-.31-1.413-1.113-1.875-3.235-1.875-2.38 0-2.666.821-2.666 1.438 0 .744.337.975 3.546 1.386 3.183.41 4.684 1.002 4.684 3.21-.026 2.259-1.889 3.543-5.176 3.543z" fill="#41B883" stroke="#fff" stroke-width=".5"/></svg>