<svg width="26" height="27" viewBox="0 0 26 27" fill="none" xmlns="http://www.w3.org/2000/svg">
<path d="M25.988 2.32387C26.1492 3.60153 24.6574 4.67955 23.4882 4.00079C22.0367 3.28211 23.4479 1.92461 23.1656 1.00629C21.7141 0.247688 20.0207 1.44549 19.4159 2.76307C18.2467 4.99896 17.9645 7.51434 17.4806 9.90994C18.8112 10.1096 20.3836 10.1096 21.4319 9.19126C21.5125 8.27294 20.4239 6.87551 21.9964 6.43632C23.851 5.9572 24.1333 8.71214 22.8027 9.51067C21.3109 10.7883 19.2143 10.988 17.3597 10.7484C16.5533 14.9806 15.9082 19.4923 13.2068 23.0059C11.5537 25.2817 8.89265 27.318 5.90904 26.9586C4.41723 26.8388 3.00606 25.4414 3.48989 23.8843C3.89308 22.4868 6.03 21.8879 6.91702 23.1656C7.76372 24.2037 6.71542 25.0821 6.15095 25.8007C7.11861 26.9187 8.89265 25.3615 9.53776 24.4432C11.2715 21.8879 11.6344 18.7737 12.2795 15.8191C12.6423 13.663 13.0858 11.4671 13.7309 9.35096C12.2391 8.19309 10.9086 6.51617 8.81201 6.43632C7.36053 6.23669 6.11063 8.03338 6.99765 9.27111C8.20723 10.8283 10.0619 12.1858 10.0619 14.3418C10.0216 16.977 7.15893 18.6938 4.69946 18.3744C2.72383 18.1748 0.425639 17.1367 0.0627667 15.0205C-0.380744 13.5033 1.63521 12.2257 2.68351 13.5033C3.61085 14.4616 2.48191 15.5795 2.48191 16.5777C3.48989 18.015 6.27191 17.6956 6.63478 15.859C6.8767 14.5814 5.6268 13.8227 4.90106 12.9444C3.44957 11.5469 2.84479 9.1114 4.135 7.39456C5.58649 5.23852 8.73138 4.79933 10.9489 6.03705C12.1182 6.63595 13.0052 7.67404 14.0132 8.5125C15.1018 5.43815 16.7952 2.20409 19.8191 0.646955C21.5932 -0.191505 24.0526 -0.391138 25.5444 1.12607C25.8267 1.44549 25.988 1.88468 25.988 2.32387Z" fill="#7366FF"/>
</svg>
