<svg width="30" height="30" fill="none" xmlns="http://www.w3.org/2000/svg"><path d="M14.915 29.918c-.123 0-.246 0-.37-.123l-11.48-6.05c-.37-.123-.494-.37-.494-.616L.102 6.217c0-.494.247-.864.617-.988L14.67.291h.493l13.95 4.938c.37.124.617.494.617.988l-2.47 16.912c0 .247-.246.493-.493.74l-11.48 6.05h-.37zM4.3 22.388l10.616 5.555 10.617-5.555 2.222-15.677-12.839-4.568L2.077 6.711 4.3 22.388z" fill="#FF3556"/><path d="M22.816 21.647c-.37 0-.617-.123-.74-.493L15.78 7.574 9.607 21.03c-.247.37-.74.617-1.11.37-.371-.246-.618-.74-.371-1.11l6.79-15.06c.123-.248.493-.495.74-.495.37 0 .617.247.74.494l7.16 15.184c.247.37 0 .864-.37 1.111-.247.123-.37.123-.37.123z" fill="#FF3556"/><path d="M20.717 17.08h-9.875c-.494 0-.864-.37-.864-.741 0-.494.37-.864.864-.864h9.875c.494 0 .864.37.864.864-.123.37-.493.74-.864.74z" fill="#FF3556"/></svg>