<svg width="34" height="30" fill="none" xmlns="http://www.w3.org/2000/svg"><path d="M17.09 28.962L1.065 1.282c.136-.014.225-.028.32-.028.934 0 1.861.007 2.795-.007.232-.007.34.082.45.273 4.096 7.082 8.193 14.157 12.29 21.24.047.088.102.177.17.293.552-.955 1.097-1.889 1.636-2.822 3.613-6.237 7.225-12.474 10.831-18.718.109-.184.218-.272.45-.266 1.015.014 2.038.007 3.128.007-5.364 9.257-10.687 18.459-16.045 27.708z" fill="#41B883" stroke="#F8F8F8" stroke-width=".765"/><path d="M7.363 1.254c1.111 0 2.154-.007 3.197.014.123 0 .286.122.354.232 1.677 2.876 3.347 5.766 5.01 8.65.382.654.764 1.315 1.166 2.003.47-.81.927-1.595 1.384-2.378 1.595-2.754 3.19-5.515 4.791-8.269.069-.109.232-.231.348-.231 1.043-.02 2.093-.014 3.204-.014-3.245 5.61-6.469 11.179-9.727 16.802-3.245-5.616-6.469-11.185-9.727-16.809z" fill="#41B883" stroke="#F8F8F8" stroke-width=".765"/></svg>