<svg width="33" height="33" fill="none" xmlns="http://www.w3.org/2000/svg"><path d="M16.514 19.159a2.672 2.672 0 100-5.343 2.672 2.672 0 000 5.343z" fill="#67BEFD"/><path d="M16.514 22.38c8.445 0 15.291-2.613 15.291-5.838 0-3.224-6.846-5.838-15.29-5.838-8.446 0-15.292 2.614-15.292 5.838 0 3.225 6.846 5.839 15.291 5.839z" stroke="#67BEFD" stroke-width="1.434"/><path d="M11.458 19.461c4.223 7.314 9.91 11.936 12.702 10.323 2.792-1.612 1.633-8.848-2.59-16.162C17.349 6.31 11.662 1.687 8.87 3.3c-2.793 1.612-1.634 8.848 2.589 16.162z" stroke="#67BEFD" stroke-width="1.434"/><path d="M11.458 13.623c-4.223 7.313-5.382 14.55-2.59 16.162 2.793 1.612 8.48-3.01 12.703-10.324 4.222-7.314 5.381-14.55 2.589-16.162-2.793-1.612-8.48 3.01-12.702 10.324z" stroke="#67BEFD" stroke-width="1.434"/></svg>