<svg width="32" height="33" fill="none" xmlns="http://www.w3.org/2000/svg"><path fill-rule="evenodd" clip-rule="evenodd" d="M31.938 7.73a.514.514 0 01.017.134v6.974a.509.509 0 01-.255.442l-5.85 3.37v6.68a.51.51 0 01-.253.442l-12.21 7.034c-.028.016-.058.026-.089.037l-.034.014a.511.511 0 01-.26 0c-.014-.004-.027-.012-.04-.017-.029-.01-.058-.019-.084-.034L.672 25.772a.51.51 0 01-.255-.442V4.406a.52.52 0 01.018-.133c.004-.015.013-.028.018-.043.01-.027.018-.054.032-.079.01-.016.024-.03.035-.045.015-.02.028-.041.045-.06.015-.014.034-.024.05-.037.019-.015.035-.032.056-.044L6.777.448a.51.51 0 01.508 0l6.104 3.517h.001c.02.013.038.029.056.043.016.013.035.024.05.038.017.019.03.04.045.06.011.015.026.029.035.045.014.026.022.052.033.079.005.015.013.028.017.043a.514.514 0 01.018.133v13.07l5.086-2.932V7.863c0-.045.007-.09.018-.132.005-.016.013-.029.018-.043.01-.027.019-.055.033-.08.01-.016.024-.03.034-.044.015-.02.028-.042.046-.06.015-.014.033-.025.05-.038.019-.015.035-.031.055-.044h.001l6.105-3.517a.509.509 0 01.508 0L31.7 7.422c.021.013.038.029.057.044.016.012.034.024.049.038.018.018.03.04.045.06.012.015.026.028.035.045.014.024.023.052.033.079.005.014.014.027.018.043zm-1 6.814v-5.8l-2.136 1.23-2.951 1.701v5.8l5.088-2.931h-.001zm-6.104 10.492v-5.804l-2.903 1.66-8.289 4.734v5.858l11.192-6.448zm-23.4-19.75v19.75l11.19 6.448v-5.858l-5.845-3.31-.002-.002-.003-.001c-.02-.012-.036-.028-.054-.042-.016-.013-.034-.023-.048-.037l-.002-.002c-.016-.016-.028-.036-.042-.053-.012-.018-.028-.032-.038-.05v-.002c-.012-.019-.019-.042-.027-.063-.008-.02-.02-.037-.024-.058-.007-.024-.008-.05-.01-.075-.003-.019-.008-.038-.008-.057V8.218l-2.95-1.701-2.136-1.23zm5.596-3.81l-5.085 2.93 5.084 2.93 5.085-2.93-5.085-2.93h.001zm2.645 18.285l2.95-1.7V5.287l-2.136 1.23-2.95 1.7v12.775l2.136-1.23zM25.343 4.934l-5.085 2.93 5.085 2.93 5.084-2.931-5.084-2.93zm-.51 6.741l-2.95-1.7-2.136-1.231v5.8l2.95 1.7 2.137 1.231v-5.8zm-11.7 13.07l7.459-4.261 3.728-2.13-5.081-2.928-5.85 3.371-5.333 3.073 5.077 2.875z" fill="#FF2D20"/></svg>