<svg width="32" height="32" fill="none" xmlns="http://www.w3.org/2000/svg"><g clip-path="url(#clip0_310_419)" fill="#41B883"><path d="M22.206 31.874a.668.668 0 01-.287-.066l-4.499-2.183a.656.656 0 01.003-1.183c1.983-.952 2.94-1.764 3.53-2.998.65-1.326.848-2.975.848-7.064V8.623c0-.363.295-.657.657-.657h4.845c.363 0 .657.295.657.658V20.08c0 4.08-.303 6.045-1.206 7.78-.866 1.733-2.018 2.804-4.247 3.94a.663.663 0 01-.301.073zm-3.04-2.862l3.03 1.469c1.781-.946 2.684-1.81 3.387-3.217.795-1.532 1.063-3.342 1.063-7.183V9.282l-3.53-.001v9.1c0 4.377-.22 6.09-.98 7.637-.586 1.224-1.46 2.121-2.97 2.994z"/><path d="M13.303 25.2c-6.317 0-9.655-2.98-9.655-8.617 0-5.448 3.531-8.969 8.994-8.969.55 0 1.005.03 1.45.102V.993c0-.363.295-.657.658-.657h4.845c.363 0 .657.294.657.657V23.87a.658.658 0 01-.532.645c-2.517.486-4.375.685-6.417.685zm-.661-16.27c-4.665 0-7.68 3.005-7.68 7.654 0 4.846 2.807 7.303 8.341 7.303 1.807 0 3.473-.164 5.633-.561V1.65h-3.53v6.88a.655.655 0 01-.827.632c-.632-.168-1.176-.232-1.937-.232zm6.952 14.94h.013-.013zm-6.51-2.65c-2.857 0-4.496-1.725-4.496-4.733 0-3.062 1.689-4.89 4.518-4.893h.033c.71.002 1.3.105 1.83.294.262.093.437.34.437.619v7.926a.657.657 0 01-.567.65c-.699.1-1.175.136-1.755.136zm.032-8.312h-.002c-2.656 0-3.212 1.946-3.212 3.58 0 2.267 1.07 3.417 3.182 3.417a9.32 9.32 0 001.009-.051V13a5.223 5.223 0 00-.92-.096l-.057.003zm14.186-6.162h-4.845a.657.657 0 01-.657-.657v-5.07c0-.363.294-.657.657-.657h4.845c.363 0 .657.294.657.657v5.07a.656.656 0 01-.657.657zm-4.188-1.314h3.531V1.676h-3.531v3.756z"/></g><defs><clipPath id="clip0_310_419"><path fill="#fff" transform="translate(.035 .336)" d="M0 0h31.538v31.538H0z"/></clipPath></defs></svg>