<svg width="30" height="26" fill="none" xmlns="http://www.w3.org/2000/svg"><path d="M8.7 23.143c-1.109-.869-2.292-1.702-3.1-2.876-1.702-2.069-3.011-4.464-3.907-6.982C1.152 11.648.967 9.893.27 8.32c-.73-1.143.125-2.393 1.382-2.756.56-.107 1.543-.633.355-.257-1.064.778-1.167-.707-.076-.8.746-.1 1.02-.707.765-1.254-.8-.52 1.94-1.09.561-1.866C1.82-.156 5.265-.453 4.415 1.299c-.204 1.348 2.406-.247 1.8 1.31.616.747 2.306.17 2.264 1.218.897.062 1.204.813 2.046.87.872.393 2.454.703 2.75 1.682-.865.683-2.869-1.41-2.965.48.261 2.79.194 5.666 1.22 8.324.485 1.61 1.66 2.877 2.722 4.13 1.015 1.228 2.391 2.092 3.793 2.82 1.23.578 2.557.961 3.897 1.202.544-.414 1.504-1.955 2.352-1.305.04.73-1.684 1.525-.08 1.445.94-.283 1.593.725 2.368-.184.713.842 2.967-.538 2.459 1.183-.687.442-1.689.175-2.377.782-1.134-.564-2.037.506-3.293.37-1.394.249-2.813.35-4.227.352-2.32-.183-4.688-.26-6.895-1.064-1.243-.36-2.456-1.065-3.549-1.77zm1.96.846c1.213.523 2.4 1.074 3.73 1.24 2.11.293 4.29.742 6.408.332-.958-.431-1.95.168-2.904-.308-1.146.245-2.375-.063-3.54-.215-1.323-.587-2.752-.991-3.992-1.754-1.55-.564.8.723 1.22.827.968.548-1.066-.28-1.353-.508-.81-.454-.914-.359-.08.102.168.098.334.2.51.284zm-2.31-1.626c1.176.434-.006-.824-.545-.751-.238-.413-.912-.674-.437-.895-.854.295-.895-1.124-1.297-.922-.904-.284-.352-1.292-1.429-1.91-.098-.652-1.07-1.218-1.38-2.201-.137-.504-1.098-1.95-.507-.604.502 1.295 1.387 2.405 2.123 3.513.571 1.055 1.246 2.157 2.287 2.816.35.335.69.849 1.185.954zm-3.39-3.707c.041-.177.215.383 0 0zm4.797 4.227c.26-.116-.374-.146 0 0zm.639.232c-.066-.32-.292.18 0 0zm.799.332c.38-.36-.586-.227 0 0zm1.37.76c.231-.34-.74-.128 0 0zm-2.63-1.826c.59-.381-.764-.005 0 0zm.599.298c-.017-.202-.214.09 0 0zm2.997 1.863c.481.303 2.813.664 1.353.124-.245.052-2.707-.694-1.353-.124zm-4.758-3.691c-.046-.202-.747-.223 0 0zm1.395.81c.364-.252-.753-.195 0 0zm1.174.717c.52-.196-.845-.197 0 0zm-3.136-2.143c.565.432 2.28.055.865-.258-.643-.341-2.094-.575-1.105.206l.24.052zm3.93 2.39c.236-.4-.987-.228 0 0zm-1.194-.945c1.382.389-1.162-.871-.34-.144l.181.082.16.062zm2.395 1.378c1.309.013-1.182-.18 0 0zm-5.635-3.577c-.051-.243-.323.02 0 0zm7.85 4.815c.034-.439-.428.326 0 0zm-5.616-3.453c-.08-.23-.409-.009 0 0zm-2.11-1.515c.752-.045-1.029-.33 0 0zm-2.5-1.61c-.093-.358-.817-.644 0 0zm6.562 4.149c-.137-.156-.065.034 0 0zm4.084 2.497c-.013-.24-.222.09 0 0zm-4.445-2.869c.073-.308-.641-.093 0 0zm-3.043-1.92c.56-.06-.895-.377 0 0zm5.147 3.185c.871-.344-.85-.168 0 0zm-2.677-1.81c1.004.129-1.195-.68-.22-.073l.22.073zm3.49 2.137c.937-.558.628 1.308 1.59.158.95-.69-.82.854.35.123.846-.563 2.095.267 2.885.538.567-.027 1.119.49 1.7.175 1.12-.3-2.19-.446-1.322-.979-1.025.297-1.782-.354-2.286-1.008-1.15-.265-2.479-.85-3.053-1.864-.234-.38.338.054-.202-.568-.692-.614-1.038-1.31-1.503-2.057-.556-.295-.62-1.164-.677-.03.005-.716-.67-1.198-.835-.997-.003-.69.722-.345.214-.855-.109-.715-.469-1.46-.577-2.268-.168-.389-.024-1.222-.574-.341-.2.93-.066-1.145.245-.46.41-.699-.146-.617-.17-.52.267-.589.17-1.425-.069-1.106.142-.624.225-2.298-.212-2.001.264-.653.502-2.989-.648-2.098-.465.006-1.272.168-1.653.357 1.195.657-.12.237-.607.133-.064.607-.546.345-1.148.35.962.12-.468.98-1.02.646-.717.341.618 1.193.014 1.456.075.397-1.097-.143-1.005.774-.696-.292-.096 1.087.252.62 1.183.32.833 1.047.863 1.738-.193.403-.952-.946-.17-.884-.617-1-.682-.361-1.195.103-.12.034 1.309.66.412.97.789.122.811.81.972 1.245.474.492.377-.543.944.048-.359-.527-1.9-1.485-.659-1.177-.006-.53-.224-.957.156-.947.377-.68-.394 1.676.455.812.235-.102.293-.68.716.055.613.601.221 1.037-.644.486.155.524 1.158.71.97 1.529.2.72.479.455.722.413.192.7.3.185.31-.148.875.187.67.703.943 1.063.604.271-.863-1.839.173-.635 1.09.98.408 1.39-.57 1.232.62-.05.819.834 1.593.803.706.334 1.184 1.62-.033 1.084-.422-.379-1.915-.846-.696-.125 1.127.52 2.022.83 3.108 1.483.778.553 1.114 1.186 1.408 1.311-.653.311-1.969-.248-.992-.42-.61-.11-1.295-.417-.711.34.496.413 1.759.369 1.985.416-.192.42-.521.454.008.487-.59.313.189.361.244.54zm-1.207-3.394c-.359-.374-.452-1.074-.064-.465.2.08.638 1.145.064.465zm3.93 2.487c.223-.015.006.17 0 0zm-4.497-3.404c-.013-.565.13.436 0 0zm-.39-.523c-.452-.87.569.246 0 0zm-4.732-3.254c.265-.07.13.452 0 0zm3.766 2.034c.163-.61.191.511 0 0zm-2.66-1.844c-.188-.336.391.316 0 0zm2.283.73c-.428-.955.302-.522.094.156l-.094-.156zM7 13.302c-.192-.313-.508-1.232-.406-1.512.092.457.975 1.966.433.625-.599-1.124.716.365.852.645.063.28-.37-.076-.077.578-.534-.745-.315.411-.802-.335zm-1.217-.835c.05-.728.278.5 0 0zm.547.188c.261-.55.443.766 0 0zM5.013 11.64c-.453-.449-.78-.862.021-.279.31.013-.686-.94.075-.302.8.146.395 1.308-.096.58zm.692-.018c.263-.26.14.256 0 0zm.426.136c-.4-.745.484.312 0 0zm-.847-.806c-1.317-1.168 1.656.61.216.217l-.216-.217zm3.774 2.185c-.57-.34-.15-2.397.044-.99.554-.18-.03.726.383.717-.066.571-.25.777-.427.273zm1.396.822c.056-.62.118.423 0 0zm-.242-.239c.063-.265.006.312 0 0zm-4.67-3.152c-.845-1.163 2.46 1.177.543.296-.2-.053-.442-.071-.542-.296zm2.689 1.42c-.08-.979.179.163 0 0zm2.04 1.305c.159-.558.012.369 0 0zm-4.599-3.168c.503-.107 2.085.88.633.282-.162-.178-.506-.098-.633-.282zm4.32 2.144c.053-1.001.3-.598.001.143l-.002-.143zM6.046 9.776c.205-.3-.544-1.354.108-.378.281.223.815.373.344.467.741.652-.18.177-.452-.089zm3.73 2.18c.142-1.14.126.669 0 0zM5.62 8.723c.156-.067.083.207 0 0zm.973.577c.25-.524.462.583 0 0zm2.745 1.52c-.002-.2.052.293 0 0zm-.159-.35c-.38-.936.355.496 0 0zm-.234-.614c-.064-.387.218.486 0 0zm.38-.616c-.26-.46.331-2.023.397-1.053-.276.755-.08 1.178.113.165.356-.798-.077 1.574-.51.888zm.392-2.326c.114-.14.025.168 0 0zm-.653 12.827c-.155-.135.02.085 0 0zm1.346.678c.749.191.745-.116.068-.207-.364-.338-1.512-.695-.484-.042.068.172.283.167.416.249zM7.75 18.66c.413.306 1.554.868.588.117.326-.377-.623-.578-.309-.83-.8-.488-.631-.445-.07-.43-.963-.428.139-.396.087-.616-.371-.073-1.844-.652-.977.048-.88-.448-.21.166-.476.101-.9-.244.801.684-.143.453.516.408 1.39 1.045.218.432-.154.221.839.557 1.082.725zm1.408.806c1.712.55-.839-.672 0 0zm7.207 4.349c.022-.338-.234.289 0 0zm.74.31c.395-.38.017.608.655-.093.007-.501-.02-.798-.734-.188-.196.108-.284.57.08.282zM5.348 16.77c-.122-.475-.85-.472 0 0zm.79.517c-.293-.486-1.047-.44 0 0zm4.5 2.703c.44.389 2.018.285.534.048-.22-.324-1.396-.246-.534-.048zm6.186 3.806c.676-.566-.655.252 0 0zm1.406.962c.004-.181-.291.08 0 0zm.002-.254c.749-.79-.725.047 0 0zm-14.83-9.356c-.638-.907-.396-1.315-1.012-2.056-.116-.566-1.055-1.851-.486-.49.523.797.678 2.03 1.498 2.546zm14.595 9.105c1.378-.887-.565-.386 0 0zm1.052.41c.69-.59-.436-.123 0 0zM5.113 15.768c.198-.293-.51-.038 0 0zm13.716 8.615c.668-.429-.154-.363-.12.04l.12-.04zm-9.064-5.691c-.023-.29-.353.024 0 0zm.56.32c-.178-.358-.274.057 0 0zm9.576 5.661c.856-.615-.519-.117-.18.117l.18-.117zm-.328-.157c.697-.582-.736.257 0 0zm1.674 1.11c.468-.312-.568-.1 0 0zM5.542 15.555c.628.14 2.508 1.54 1.399.097-.568-.167-.228-1.55-.807-1.305.389.647.32.922-.497.514-1.026-.499-.576.247-.376.453-.273.062.362.236.281.242zm-2.858-2.248c.113-.463-1.034-2.546-.541-1.044.178.315.16.911.541 1.044zm5.246 3.222c-.323-.27-.015-.038 0 0zm.796.184c0-.49-.88-.199 0 0zm6.893 4.33c-.131-.335-.52-.008 0 0zm.331.24c-.048-.187-.19.037 0 0zm2.733 1.715c.263-.193-.328-.024 0 0zM4.112 13.67c.752-.29-.805-.207 0 0zm10.9 6.842c-.008-.485-.479.12 0 0zM3.816 12.98c.483-.162-.447-.107 0 0zm1.401.677c-.008-.16-.148.06 0 0zM22.31 24.099c.62-.125 2.036.315 2.264-.164-.754-.018-2.608-.53-2.696.123l.165.025.267.016zM5.662 13.77c.01-.492-.385-.019 0 0zm-3.685-2.547c-.167-.936-.636-.141 0 0zm.879.22c.01-.3-.804-.27 0 0zm.502.246c-.145-.117-.114.148 0 0zm3.16 2.02c.148-.137-.353-.102 0 0zm-3.495-2.574c-.084-.707-1.017-.106 0 0zM1.222 9.969c-.026-.326-.175.123 0 0zm.268-.201c-.044-.387-.23.049 0 0zm1.48.88c.627-.245-1.14-.506-.127-.046l.128.046zm19.815 12.193c.4-.366-.51-.113 0 0zm2.394 1.236c.16-.473-.404.063 0 0zM3.122 9.876c.066-.458-.496.091 0 0zM1.015 8.47C.902 7.823.918 6.69 2 7.072c-1.445.286 1 1.789.691.602.608.03 1.189-.358.87.23 1.197-.132 2.027-1.166 3.183-1.02.9-.12 1.885-.21 2.856-.57.798-.058 1.566-.914 1.128-1.421-1.088-.092-2.227.044-3.43.282-1.332.276-2.543.8-3.888 1.026-1.31.175.264.483-.112.551-.684.237.816.396-.088.646-.559-.106-1.14-.297-.901-.884-1.256.163-2.36.682-1.367 1.955h.073zm3.026-1.535c.294-1.08 1.577.89.482.144-.13-.098-.345-.177-.482-.144zm.057-.524c.425-.315.226.177 0 0zm.54.009c.038-.497 1.235.263.197.179l-.197-.18zm.738-.296c.27-.313.077.28 0 0zm.188-.126c.45-.537 2.542-.343 1.01-.052-.41-.308-.725.181-1.01.052zm2.731-.42c-.068-1.466 1.357.522 0 0zm.775-.003c.283-.74 1.1-.297.131-.149.021.079-.028.382-.13.149zM2.816 9.496c.847-.517-.898-.448 0 0zm.626.173c.297-.315-.645-.128 0 0zM1.598 8.365c.484-.37-.572-.14 0 0zm24.994 15.577c.014-.43-.37.194 0 0zm-2.54-1.726c.072-.495-.326.043 0 0zm3.238 1.893c.677.002 2.05-.21.578-.209-.231.036-1.345.028-.578.209zM3.993 9.366c.547-.038.856-.602-.106-.57-1.491-.153 1.315.51-.191.32-.203.134.285.287.297.25zm.482.243c-.057-.35-.17.186 0 0zm.571-1.519c.238-.293-.328-.078 0 0zm-1.82-3.03c.977-.332 2.313-.704 2.774.162-.47-.563-.19-1.117.254-.294.627.833.94-.379.533-.658.464.575.993.847.31.037.742-.889-1.483.116-1.989.106-.243.109-2.512.576-1.882.646zM3.8 3.966c.557-.419 1.926.25 1.047-.416-.085-.076-1.924.504-1.047.416zm2.03.083c.652.017-.28-.872.496-.47-.127-.414-.904-.492-1.284-.658-.215.38.437 1.134.789 1.128zM4.156 2.214c.225-.305-.395.154 0 0zm.83.198c1.05-.139-.268-.45-.212-.011l.212.01zm-1.55-1.208c-.74-.962 1.391.161.64-.846-.633-.502-1.24.565-.64.846zm9.493 5.094c.34-.6-1.4-.808-.228-.213.108.036.083.254.228.213z" fill="#7366FF"/></svg>