<svg width="33" height="17" fill="none" xmlns="http://www.w3.org/2000/svg"><g clip-path="url(#clip0_915_116)" fill="#FF9921"><path d="M2.6 3.576h4.875c1.43.012 2.468.437 3.11 1.273.642.837.855 1.979.637 3.426a6.718 6.718 0 01-.564 1.948 5.795 5.795 0 01-1.165 1.722 4.041 4.041 0 01-1.946 1.236 8.71 8.71 0 01-2.146.262H3.218L2.528 17H-.009L2.593 3.576m2.135 2.14l-1.092 5.617c.072.012.145.019.218.019h.255a9.303 9.303 0 002.91-.348c.777-.262 1.299-1.174 1.564-2.734.22-1.31.001-2.065-.654-2.262a7.94 7.94 0 00-2.419-.292 4.78 4.78 0 01-.417.019h-.382l.019-.02M14.1 0h2.51l-.71 3.576h2.257c1.24.025 2.162.287 2.766.786.604.5.786 1.448.546 2.847l-1.219 6.234h-2.547l1.164-5.954c.121-.624.084-1.067-.11-1.33-.193-.261-.611-.393-1.254-.393l-2.018-.019-1.49 7.695h-2.513L14.101-.002m10.062 3.578h4.875c1.431.012 2.468.437 3.11 1.273.643.837.855 1.979.637 3.426a6.715 6.715 0 01-.564 1.948 5.796 5.796 0 01-1.165 1.722 4.041 4.041 0 01-1.945 1.236 8.71 8.71 0 01-2.147.262h-2.182L24.09 17h-2.535l2.601-13.424m2.135 2.14L25.2 11.333c.072.012.145.019.218.019h.256a9.304 9.304 0 002.91-.348c.777-.262 1.298-1.174 1.564-2.734.219-1.31 0-2.065-.654-2.262a7.94 7.94 0 00-2.42-.292 4.78 4.78 0 01-.418.019h-.382l.018-.02z"/></g><defs><clipPath id="clip0_915_116"><path fill="#fff" d="M0 0h32.867v17H0z"/></clipPath></defs></svg>