<svg width="24" height="30" fill="none" xmlns="http://www.w3.org/2000/svg"><path d="M7.518 29.636c-.173-.07-.346-.15-.52-.208-3.797-1.027-7.572-4.79-6.925-10.377.277-2.435 1.166-4.594 2.666-6.522 1.5-1.939 3.174-3.716 5.068-5.263 1.05-.854 1.985-1.824 2.631-3.024.577-1.062.993-2.124.416-3.348-.092-.185.15-.53.242-.808h.577c1.155.947 2.147 2.02 2.713 3.428.635 1.593.831 3.22.335 4.906-.231.785-.462 1.605-.508 2.413-.023.53.22 1.12.496 1.592.312.52 1.005.6 1.558.347.543-.254.75-.647.67-1.293-.058-.473.22-.796.693-.75.207.011.415.092.588.196 3.52 1.847 5.449 4.767 5.76 8.703.162 2.101-.588 3.971-1.881 5.61-1.64 2.09-3.81 3.428-6.337 4.19-.22.07-.427.15-.647.22h-.461c-.566-.566-.508-.982.173-1.258 3.947-1.617 4.605-6.188 1.246-8.842-.935-.74-1.916-1.42-2.897-2.09-1.258-.854-2.678-1.523-3.498-2.955-.126.3-.219.566-.23.843-.047 1.166.38 2.135 1.2 2.943.242.243.508.485.681.774.566.923.554 1.87-.023 2.77-.543.843-1.327 1.27-2.343 1.143-1.028-.139-1.709-.716-2.043-1.709-.023-.08-.07-.161-.104-.253-1.328 1.327-1.8 3.358-1.154 4.905.45 1.074 1.188 1.87 2.216 2.413.762.404.82.658.323 1.316-.22-.012-.45-.012-.681-.012zm-2.77-2.609c-.381-1.027-.74-2.008-.578-3.105.289-1.962 1.2-3.543 2.782-4.744.3-.22.6-.45.993-.184.358.253.242.588.162.934-.139.59-.07 1.166.45 1.57.508.404 1.177.335 1.616-.15a1.401 1.401 0 000-1.893c-.335-.37-.716-.704-1.004-1.108-1.386-1.95-1.166-4.525.507-5.956.185-.15.566-.254.75-.173.185.092.347.473.312.692-.08.566.07 1.05.44 1.432.426.438.9.842 1.396 1.2 1.42 1.016 2.897 1.962 4.294 3.013 1.535 1.154 2.343 2.747 2.597 4.652.162 1.212-.196 2.297-.658 3.393 2.332-1.627 4.017-3.682 3.96-6.66-.058-3.348-1.698-5.852-4.526-7.665-.115.22-.196.393-.288.554-.831 1.42-2.77 1.732-3.971.612-.681-.635-1.073-1.454-1.004-2.366.069-.912.335-1.8.485-2.713.127-.808.311-1.627.277-2.435-.047-1.235-.52-2.355-1.27-3.29-.381.843-.693 1.685-1.12 2.47-.739 1.362-1.858 2.39-3.047 3.348C6.42 10 4.793 11.79 3.363 13.753c-.855 1.166-1.466 2.436-1.79 3.844-.808 3.532-.207 6.649 2.713 9.061.138.139.3.254.462.37z" fill="#67BEFD"/></svg>