<svg width="26" height="26" fill="none" xmlns="http://www.w3.org/2000/svg"><path d="M19.5 0h-13A6.5 6.5 0 000 6.5v13A6.5 6.5 0 006.5 26h13a6.5 6.5 0 006.5-6.5v-13A6.5 6.5 0 0019.5 0z" fill="url(#paint0_linear_421_1027)"/><path d="M9.1 16.575a.975.975 0 01-.69-.286l-2.6-2.6a.976.976 0 010-1.379l2.6-2.6a.975.975 0 111.38 1.38L7.879 13l1.91 1.91a.975.975 0 01-.689 1.665zm7.8 0a.975.975 0 01-.69-1.665L18.121 13l-1.91-1.91a.975.975 0 111.379-1.38l2.6 2.6a.975.975 0 010 1.38l-2.6 2.6a.977.977 0 01-.69.285zm-5.2 1.95a.975.975 0 01-.938-1.243l2.6-9.1a.975.975 0 111.875.536l-2.6 9.1a.975.975 0 01-.937.707z" fill="#fff"/><defs><linearGradient id="paint0_linear_421_1027" x1="4.16" y1="3.12" x2="13" y2="26" gradientUnits="userSpaceOnUse"><stop stop-color="#FF7979"/><stop offset="1" stop-color="#F94646"/></linearGradient></defs></svg>