<svg xmlns="http://www.w3.org/2000/svg" viewBox="0 0 42 44"><linearGradient id="a" gradientUnits="userSpaceOnUse" x1="10.608" y1="31.978" x2="32.317" y2="14.745" gradientTransform="matrix(1 0 0 -1 0 46)"><stop offset="0" stop-color="#9013fe"/><stop offset="1" stop-color="#6610f2"/></linearGradient><path d="M10.8 14.6c0-1.3 1-2.6 2.4-2.6h14.5c1.4 0 2.5 1.2 2.4 2.6 0 1.3 0 3 .4 4.3.4 1.4 1.1 2.2 2.3 2.3v1.3c-1.2.1-1.9 1-2.3 2.3-.4 1.4-.5 3-.4 4.3 0 1.3-1 2.6-2.4 2.6H13.3c-1.4 0-2.5-1.2-2.4-2.6 0-1.3 0-3-.4-4.3-.4-1.4-1.1-2.2-2.3-2.3v-1.3c1.2-.1 1.9-1 2.3-2.3.3-1.3.4-3 .3-4.3z" fill="url(#a)"/><linearGradient id="b" gradientUnits="userSpaceOnUse" x1="17.071" y1="28.549" x2="21.923" y2="20.342" gradientTransform="matrix(1 0 0 -1 0 46)"><stop offset="0" stop-color="#fff"/><stop offset="1" stop-color="#f1e5fc"/></linearGradient><path d="M20.9 27.2c2.3 0 3.7-1.1 3.7-3 0-1.4-1-2.4-2.5-2.6v-.1c1.1-.2 1.9-1.2 1.9-2.3 0-1.6-1.3-2.6-3.2-2.6h-4.3v10.5h4.4zM18.2 18h2.2c1.2 0 1.9.5 1.9 1.5s-.8 1.6-2.3 1.6h-1.9V18h.1zm0 7.8v-3.5h2.2c1.6 0 2.4.6 2.4 1.7s-.8 1.7-2.3 1.7h-2.3v.1z" fill="url(#b)"/><path d="M20.9 27.2c2.3 0 3.7-1.1 3.7-3 0-1.4-1-2.4-2.5-2.6v-.1c1.1-.2 1.9-1.2 1.9-2.3 0-1.6-1.3-2.6-3.2-2.6h-4.3v10.5h4.4zM18.2 18h2.2c1.2 0 1.9.5 1.9 1.5s-.8 1.6-2.3 1.6h-1.9V18h.1zm0 7.8v-3.5h2.2c1.6 0 2.4.6 2.4 1.7s-.8 1.7-2.3 1.7h-2.3v.1z" fill="none" stroke="#fff"/></svg>