<svg width="15" height="27" fill="none" xmlns="http://www.w3.org/2000/svg"><path d="M6.638 13.4a.84.84 0 01.145-.471.86.86 0 01.387-.313.876.876 0 01.94.184.845.845 0 01.187.925.852.852 0 01-.318.381A.872.872 0 016.89 14a.844.844 0 01-.252-.6zM3.612 27h7.776v-6.103H3.612V27zM8.655 0v10.493a3.158 3.158 0 011.62 1.395c.358.637.48 1.376.342 2.092a3.114 3.114 0 01-1.092 1.825 3.203 3.203 0 01-2.025.719 3.2 3.2 0 01-2.025-.719 3.114 3.114 0 01-1.092-1.825 3.08 3.08 0 01.342-2.092 3.157 3.157 0 011.62-1.395V0L0 15.8l2.87 2.824h9.26L15 15.799 8.655 0z" fill="url(#paint0_linear_421_1016)"/><defs><linearGradient id="paint0_linear_421_1016" x1=".354" y1="10.215" x2="15.888" y2="19.326" gradientUnits="userSpaceOnUse"><stop stop-color="#299CFC"/><stop offset="1" stop-color="#43BCFF"/></linearGradient></defs></svg>