<svg width="19" height="21" fill="none" xmlns="http://www.w3.org/2000/svg"><path d="M.324 6.164a.715.715 0 01.039-1.215L9.17.08a.676.676 0 01.643 0l8.827 4.867a.713.713 0 01.032 1.215L9.86 11.675a.677.677 0 01-.72 0L.323 6.164zM18.64 9.566l-1.478-.821-6.584 4.125a2.05 2.05 0 01-2.16 0L1.834 8.745l-1.473.82a.714.714 0 00-.039 1.215l8.815 5.505a.678.678 0 00.72 0l8.815-5.504a.714.714 0 00-.032-1.215zm0 4.598l-1.478-.815-6.584 4.132a2.038 2.038 0 01-2.16 0l-6.584-4.119-1.473.815a.714.714 0 00-.039 1.215l8.815 5.504a.678.678 0 00.72 0l8.815-5.504a.704.704 0 00.32-.617.72.72 0 00-.352-.598v-.013z" fill="url(#paint0_linear_422_39)"/><defs><linearGradient id="paint0_linear_422_39" x1="1.474" y1="16.883" x2="26.195" y2="-5.537" gradientUnits="userSpaceOnUse"><stop offset=".01" stop-color="#60B158"/><stop offset="1" stop-color="#46B7D0"/></linearGradient></defs></svg>