<svg width="26" height="26" fill="none" xmlns="http://www.w3.org/2000/svg"><path d="M15.82 8.65a.762.762 0 00-1.297.542v2.665L13 13.381l-1.524-1.524V9.192a.762.762 0 00-1.296-.542c-1.064 1.05-1.75 2.512-1.75 3.97 0 1.687.924 3.144 2.285 3.936v7.159h4.57v-7.16c1.36-.791 2.285-2.248 2.285-3.936 0-1.457-.686-2.918-1.75-3.969z" fill="#FFA53A"/><path d="M25.525 13.977l-1.074-.428c.018-.363.018-.73 0-1.098l1.074-.428a.764.764 0 00.45-.903l-.81-2.943a.76.76 0 00-.84-.557l-1.177.155a11.48 11.48 0 00-.55-.95l.699-.898a.76.76 0 00-.063-1.006L21.08 2.716a.76.76 0 00-1.006-.063l-.894.694a11.225 11.225 0 00-.955-.552l.155-1.12a.76.76 0 00-.557-.84L14.88.027a.756.756 0 00-.903.449l-.428 1.072a11.261 11.261 0 00-1.098 0L12.023.476a.758.758 0 00-.904-.449L8.177.835a.761.761 0 00-.557.84l.155 1.126a11.39 11.39 0 00-.952.55l-.897-.698a.761.761 0 00-1.006.063L2.766 4.92c-.272.271-.35.703-.113 1.006l.693.892c-.198.31-.382.629-.55.955l-1.12-.154a.762.762 0 00-.841.557l-.81 2.943a.764.764 0 00.45.903l1.074.428c-.018.363-.018.73 0 1.098l-1.074.428a.764.764 0 00-.45.903l.81 2.943c.1.371.462.618.84.557l1.126-.155c.169.326.402.694.6 1.001l-.698.897a.76.76 0 00.063 1.007l2.154 2.154a.76.76 0 001.006.063l.894-.694c.308.199.628.383.955.551l-.155 1.12a.76.76 0 00.557.84l2.943.81a.76.76 0 00.903-.45l.428-1.072c.367.018.733.018 1.098 0l.428 1.073c.145.355.53.548.903.449l2.943-.81a.761.761 0 00.557-.84l-.155-1.126c.326-.167.644-.35.952-.549l.897.697a.76.76 0 001.006-.062l2.154-2.154a.76.76 0 00.063-1.007l-.694-.892c.198-.309.383-.679.55-1.005l1.172.154a.754.754 0 00.84-.557l.81-2.943a.764.764 0 00-.45-.903zM13 21.43c-4.62 0-8.379-3.81-8.379-8.43 0-4.62 3.76-8.379 8.379-8.379 4.62 0 8.379 3.759 8.379 8.379 0 4.62-3.76 8.43-8.379 8.43z" fill="url(#paint0_linear_422_41)"/><defs><linearGradient id="paint0_linear_422_41" x1="13" y1="26" x2="13" y2="0" gradientUnits="userSpaceOnUse"><stop stop-color="#FF993A"/><stop offset="1" stop-color="#FF9414"/></linearGradient></defs></svg>