<svg width="27" height="24" fill="none" xmlns="http://www.w3.org/2000/svg"><path d="M10.116 15.762h6.309a2.368 2.368 0 002.365-2.365V2.364A2.368 2.368 0 0016.425 0h-6.309a2.368 2.368 0 00-2.365 2.364v11.033a2.368 2.368 0 002.365 2.365zm3.155-4.729a.788.788 0 110 1.577.788.788 0 010-1.577zm13.127 9.79a.789.789 0 00-.644-.333H.79a.79.79 0 00-.744 1.052 3.16 3.16 0 002.974 2.1h20.503c.85 0 1.634-.324 2.224-.93.342-.332.597-.731.752-1.171a.788.788 0 00-.1-.718zm-1.3-15.306a2.368 2.368 0 00-2.365-2.365h-2.366v10.245a3.946 3.946 0 01-3.942 3.94h-6.309a3.946 3.946 0 01-3.942-3.94V3.152H3.808a2.368 2.368 0 00-2.366 2.365v13.397H25.1V5.517z" fill="url(#paint0_linear_422_54)"/><defs><linearGradient id="paint0_linear_422_54" x1="13.271" y1="0" x2="13.271" y2="23.643" gradientUnits="userSpaceOnUse"><stop stop-color="#FC6773"/><stop offset="1" stop-color="#DE4D59"/></linearGradient></defs></svg>