<svg width="18" height="21" fill="none" xmlns="http://www.w3.org/2000/svg"><path d="M1.2 0C.554 0 0 .546 0 1.235V5.56c0 .346.264.617.6.617h1.8v-4.94C2.4.555 1.86 0 1.2 0zm7.85 6.663l-.064.383.334-.18a.584.584 0 01.56 0l.334.18-.064-.383a.63.63 0 01.172-.547l.271-.272-.374-.056a.6.6 0 01-.452-.338L9.6 5.101l-.168.35a.6.6 0 01-.452.337l-.373.056.27.272a.628.628 0 01.173.547zM7.2 17.912c0-.346.264-.618.6-.618h7.8V3.088C15.6 1.384 14.256 0 12.6 0H3.266c.207.365.334.783.334 1.235v16.677c0 1.025.804 1.853 1.8 1.853.68 0 1.8-.538 1.8-1.853zm.031-13.11l1.265-.19.566-1.18c.202-.422.874-.422 1.076 0l.566 1.18 1.265.19c.49.073.689.696.333 1.053l-.916.919.216 1.297c.085.507-.434.888-.87.65L9.6 8.11l-1.131.612c-.44.24-.955-.148-.871-.651l.216-1.297-.916-.919c-.355-.356-.158-.98.333-1.053zM6 10.5h7.2c.332 0 .6.276.6.618a.609.609 0 01-.6.617H6a.609.609 0 01-.6-.617c0-.342.268-.618.6-.618zm0 2.47h7.2c.332 0 .6.277.6.618a.609.609 0 01-.6.618H6a.609.609 0 01-.6-.618c0-.341.268-.617.6-.617zm11.4 5.56H8.343C8.05 20.07 6.68 21 5.4 21h11.4c.66 0 1.2-.556 1.2-1.235v-.618a.603.603 0 00-.6-.618z" fill="url(#paint0_linear_780_38)"/><defs><linearGradient id="paint0_linear_780_38" x1="9" y1="0" x2="9" y2="21" gradientUnits="userSpaceOnUse"><stop stop-color="#FF843E"/><stop offset="1" stop-color="#FFA26D"/></linearGradient></defs></svg>