<svg width="24" height="20" fill="none" xmlns="http://www.w3.org/2000/svg"><path d="M3.304.197a.709.709 0 00-.981 0 .713.713 0 000 .984l3.83 3.839.98-.984L3.305.197zm15.014 9.188l-7.77-7.802a.648.648 0 00-.484-.208.65.65 0 00-.484.208L7.133 4.036l3.028 3.035a2.07 2.07 0 012.35.388 2.112 2.112 0 010 2.952 2.113 2.113 0 01-2.944 0c-.636-.638-.76-1.594-.401-2.37L6.152 5.02.207 10.979a.65.65 0 00-.207.485c0 .18.07.36.207.485l7.825 7.843a.648.648 0 00.484.208c.18 0 .36-.07.484-.208l9.373-9.395a.672.672 0 00-.055-1.012zm-6.788.042a.713.713 0 000-.984.684.684 0 00-.982 0 .713.713 0 000 .984.708.708 0 00.982 0zm7.825-2.98H17.36c1.996 2.052 2.196 2.084 2.437 2.67.027.065.03.135.051.202.517.2.888.697.888 1.286v2.771c0 .764.62 1.386 1.383 1.386.762 0 1.382-.622 1.382-1.386v-2.771a4.157 4.157 0 00-4.147-4.158z" fill="url(#paint0_linear_422_68)"/><defs><linearGradient id="paint0_linear_422_68" x1="11.751" y1="20" x2="11.751" y2="0" gradientUnits="userSpaceOnUse"><stop stop-color="#FF81FF"/><stop offset="1" stop-color="#A93AFF"/></linearGradient></defs></svg>