<svg width="36" height="40" fill="none" xmlns="http://www.w3.org/2000/svg"><path fill-rule="evenodd" clip-rule="evenodd" d="M28.526 38.078c-.565.032-1.238.14-1.85.179-.644.038-1.267.059-1.888.198-2.333.533.25 1.797 1.631 1.458 1.273-.305 2.533-.278 3.75-.402.284-.03.652-.114.938-.145.988-.124 1.907.008 2.887.103.274.027 1.914-.012 1.399-.743-.24-.335-1.414-1.348-1.809-1.678-1.384-1.167-1.957-2.26-3.038-3.428-1.264-1.367-1.956-2.21-3.62-1.963-1.53.224-.348.91.11 1.421.245.272 1.398 1.554 1.425 1.726-1.93-.72-3.745-1.843-5.673-2.82-1.725-.878-4.153-2.54-5.787-3.8-3.538-2.736-6.938-6.067-9.172-9.435-3.118-4.692-5.262-9.98-4.464-15.313.06-.438.59-2.493.44-2.702-.53-.725-1.978.924-2.203 1.686C.537 5.968.8 9.99 1.75 12.968c1.03 3.225 2.76 6.83 5.326 9.92 3.125 3.754 5.815 6.179 10.065 9.238 2.661 1.917 5.672 3.436 8.568 4.774.52.234 2.6 1.01 2.818 1.178z" fill="#FF3556"/></svg>