<svg width="210" height="211" fill="none" xmlns="http://www.w3.org/2000/svg"><path d="M194.246 120.616c-1.326 1.401-2.887 3.056-4.495 4.707l1.009.986c1.634-1.674 3.194-3.329 4.52-4.73l-1.034-.963zm-9.153 9.283a101.525 101.525 0 01-4.858 4.296l.906 1.077a105.852 105.852 0 004.936-4.364l-.984-1.009zm-10.032 8.184c-1.676 1.161-3.391 2.174-5.078 3.115a12.65 12.65 0 01-.428.242l.652 1.255.454-.264c1.735-.938 3.479-2.022 5.203-3.181l-.803-1.167zm-11.426 5.934a45.1 45.1 0 01-6.206 1.685l.256 1.377c2.116-.404 4.291-1 6.428-1.744l-.478-1.318zm-12.568 2.364c-1.023.034-2.041-.028-3.009-.088a29.937 29.937 0 01-3.328-.447l-.254 1.37c1.128.239 2.31.385 3.495.482 1.04.088 2.083.128 3.155.096l-.059-1.413zm-11.811-45.943l-1.077.906c1.267 1.536 2.091 3.556 2.282 5.586l1.394-.134a12.033 12.033 0 00-2.599-6.358zm-1.598 43.004c-1.557-.777-3.028-1.767-4.395-2.847l-.87 1.089c1.459 1.183 3.027 2.179 4.652 3.033.353.192.708.335 1.039.501l.564-1.278-.99-.498zm1.821-30.422c-.669 1.782-1.679 3.592-3.064 5.549l1.141.823c1.464-2.073 2.53-3.977 3.253-5.853l-1.33-.519zm-7.16 10.499c-1.481 1.538-3.055 3.022-4.742 4.376l.88 1.1a47.308 47.308 0 004.871-4.49l-1.009-.986zm.838-26.3c-2.276-.14-4.516.694-6.447 2.447l.932 1.054c1.671-1.477 3.514-2.19 5.452-2.071l.063-1.43zm-7.665 33.344l-1.253.604a33.792 33.792 0 003.468 5.683l1.122-.855c-1.284-1.659-2.387-3.477-3.337-5.432zm-3.2 1.043a55.62 55.62 0 01-5.705 3.029l.578 1.275a50.42 50.42 0 005.856-3.116l-.729-1.188zm-.031-13.348l-1.39.085a35.283 35.283 0 001.079 6.557l1.335-.356a36.57 36.57 0 01-1.024-6.286zm.536-13.071a21.836 21.836 0 00-1.546 4.986c-.078.482-.159 1.012-.238 1.493l1.399.183c.078-.481.157-.963.209-1.421a18.936 18.936 0 011.429-4.653l-1.253-.588zm-12.209 31.729a56.378 56.378 0 01-6.267 1.511l.23 1.4a49.98 49.98 0 006.438-1.525l-.401-1.386zm-12.672 2.09c-1.437.033-2.919.015-4.32-.12a56.684 56.684 0 01-2.077-.225l-.183 1.399c.723.093 1.424.16 2.125.228 1.476.115 2.98.159 4.49.106l-.035-1.388zm-8.531-72.022l-1.318.478c.71 1.892 1.14 3.984 1.249 6.18l1.39-.086c-.124-2.317-.549-4.507-1.321-6.572zm-.579 12.97a26.744 26.744 0 01-2.047 6.026l1.275.613a26.663 26.663 0 002.165-6.358l-1.393-.28zm-9.503 54.942l-.636 1.249a37.018 37.018 0 006.166 2.518l.423-1.335c-2.076-.638-4.043-1.464-5.953-2.432zm4.081-43.46a40.54 40.54 0 01-4.258 4.82l.983 1.008a47.979 47.979 0 004.39-4.981l-1.115-.847zm1.695-31.134c-1.33-1.298-2.895-2.342-4.62-3.153l-.587 1.252c1.582.754 3.008 1.693 4.222 2.91.275.26.525.543.753.8l1.053-.932c-.224-.306-.522-.592-.82-.877zm-15.997 66.867l-1.009.983a44.839 44.839 0 004.956 4.413l.846-1.115c-1.624-1.266-3.213-2.701-4.793-4.281zm5.233-26.614c-1.51 1.244-3.218 2.525-5.177 3.936l.83 1.145c1.984-1.434 3.717-2.738 5.228-3.982l-.88-1.099zm-.508-45.128a22.244 22.244 0 00-6.567.448l.304 1.38c2.045-.434 4.097-.6 6.154-.449l.145.01.135-1.402-.17.014zm-12.684 61.601l-1.164.755a77.98 77.98 0 003.801 5.388l1.122-.855c-1.286-1.611-2.538-3.389-3.759-5.288zm2.66-8.855a63.341 63.341 0 01-5.575 3.279l.653 1.256a66.04 66.04 0 005.7-3.345l-.778-1.19zm-8.988-2.497l-1.252.603a107.883 107.883 0 003.02 5.85l1.232-.678a84.888 84.888 0 01-3-5.775zm6.17-47.367a22.783 22.783 0 00-2.536 1.692 26.806 26.806 0 00-2.73 2.506l1.034.963a23.475 23.475 0 012.551-2.347c.74-.562 1.528-1.122 2.358-1.581l-.678-1.233zm-8.67 55.624c-1.142.368-2.302.661-3.437.932a28.32 28.32 0 01-2.797.411l.133 1.394a28.122 28.122 0 002.945-.451c1.18-.219 2.393-.558 3.608-.945l-.453-1.341zm-1.86-20.389l-1.357.33c.482 2.047 1.13 4.178 1.896 6.34l1.318-.478c-.744-2.137-1.371-4.193-1.856-6.192zm1.356-25.613c-1.065 1.904-1.897 3.968-2.544 6.189l1.361.4a30.55 30.55 0 012.43-5.904l-1.247-.685zM49.3 85.525a34.414 34.414 0 01.12-4.733l-1.401-.135a33.78 33.78 0 00-.11 4.952c.038.562.051 1.146.112 1.733l1.394-.133-.115-1.684zm-15.99 28.749l-.325 1.341c2.253.528 4.443.881 6.546 1.083l.134-1.402c-2.031-.173-4.173-.524-6.355-1.022zm-12.18-4.347l-.564 1.278a67.794 67.794 0 006.095 2.49l.47-1.333c-1.904-.651-3.92-1.48-6-2.435zM9.98 103.48l-.87 1.089c1.624 1.267 3.448 2.449 5.562 3.648l.707-1.22c-2.095-1.126-3.847-2.279-5.4-3.517zm-7.484-9.965l-1.34.452c.65 2.082 1.742 4.094 3.185 5.933l1.122-.855c-1.352-1.736-2.356-3.596-2.967-5.53zm203.29 17.721l-13.399 4.014 5.153 3.186 2.977 5.75 5.269-12.95z" fill="#52526C"/></svg>