<svg width="181" height="81" fill="none" xmlns="http://www.w3.org/2000/svg"><path d="M164.577 42.741c4.803.035 9.605.035 14.443.035.591 0 1.566-.696 1.67-1.183.209-1.114-.731-1.392-1.705-1.357-.627.034-1.288 0-1.914 0-6.717-.035-13.469 0-20.185-.14-7.692-.139-15.383-.382-23.074-.66-8.283-.314-16.566-.558-24.849-1.08-9.153-.591-18.306-1.496-27.459-2.227-3.271-.278-6.577-.418-9.814-.8-4.072-.453-8.109-1.044-12.18-1.601-4.316-.592-8.666-1.184-12.982-1.88-3.515-.556-7.03-1.252-10.51-2.018-.557-.14-1.253-1.01-1.357-1.636-.8-5.533-2.332-10.823-5.012-15.73C26.31 6.374 21.297 2.51 14.51.77 10.96-.135 7.933.352 4.975 2.232-.698 5.852-1.707 14.099 2.92 19.006c3.69 3.933 8.353 6.334 13.33 8.074 3.132 1.114 6.333 2.019 9.535 2.924 1.845.522 5.499.835 6.543 2.645.383.661.383 1.462.383 2.227l-.209 28.955c0 .662 0 1.392.348 1.984.348.592 1.183.905 1.74.522.418-.313.487-.94.522-1.462.557-10.057.696-20.463.383-30.66 0-.348 0-.731.209-1.01.348-.382.94-.313 1.462-.208 27.772 5.533 56.31 7.378 84.534 8.666 9.605.452 19.245.765 28.885.94 4.629.034 9.293.104 13.991.138zM2.573 12.324c-.034-4.037 2.958-8.039 5.882-8.84 3.097-.835 5.951-.069 8.735 1.08 5.046 2.088 8.422 5.777 10.72 10.719 1.774 3.863 3.027 7.83 3.688 11.972.174 1.218-.243 1.6-1.461 1.252-3.307-1.009-6.648-1.844-9.92-2.923-5.115-1.67-10.057-3.793-14.198-7.343C4 16.535 2.747 14.412 2.573 12.324z" fill="#FFB905"/><path d="M24.499 65.92c-.627.347-.731 1.252-.174 1.705 3.619 2.993 5.255 7.239 7.273 11.24 1.08 2.193 2.158 2.333 3.654.349 1.114-1.497 1.95-3.237 3.028-4.803 1.288-1.88 2.715-3.689 4.002-5.568.175-.244.279-.557.349-.87.173-.627-.279-1.253-.905-1.323-.488-.034-.905-.07-1.149.14-1.427 1.392-2.68 2.958-3.863 4.559-.73 1.009-1.183 2.262-1.88 3.306-.278.418-.8.87-1.252.905-.418.034-1.044-1.218-1.218-1.497-.487-.73-.975-1.496-1.462-2.227-1.079-1.601-2.192-3.167-3.236-4.768-.488-.696-1.427-1.218-2.262-1.427-.244-.035-.557.105-.905.278z" fill="#FFB905"/></svg>