<svg width="102" height="83" viewBox="0 0 102 83" fill="none" xmlns="http://www.w3.org/2000/svg">
<g clip-path="url(#clip0_901_1733)">
<path d="M79.6525 0.707947C79.3848 0.707947 79.117 0.732358 78.8492 0.75677C75.6115 1.12295 72.958 3.73501 72.5685 6.98177C72.2521 9.59383 73.3719 12.1815 75.4898 13.7194C76.0984 14.1588 76.6096 14.7447 76.9504 15.4038H76.1227V15.9897H75.9766V16.6H76.1227V17.0638H75.9766V17.6741H76.1227V18.1379H75.9766V18.7482H76.1227V19.2121H75.9766V19.7735H76.1227C76.1714 20.2862 76.6096 20.6768 77.1208 20.6768H77.6564V20.9453C77.6564 21.3359 77.9728 21.6532 78.3623 21.6532H80.8697C81.2592 21.6532 81.5757 21.3359 81.5757 20.9453V20.6768H82.1112C82.6225 20.6768 83.0606 20.2862 83.1093 19.7735H83.2554V19.1632H83.1093V18.6994H83.2554V18.0891H83.1093V17.6253H83.2554V17.015H83.1093V16.5512H83.2554V15.9409H83.1093V15.3794H82.306C82.6711 14.7203 83.1824 14.1344 83.8396 13.6462C85.6654 12.3035 86.7365 10.1309 86.7365 7.885C86.7852 3.9303 83.5962 0.707947 79.6525 0.707947Z" fill="#E2E0F9"/>
<path d="M22.664 4.93118H8.59332V15.4527H22.664V4.93118Z" fill="#E2E0F9"/>
<path d="M38.6091 14.0612H24.5385V21.9706H38.6091V14.0612Z" fill="#E2E0F9"/>
<path d="M78.3333 35.9275C81.5965 34.5972 83.1665 30.866 81.8399 27.5937C80.5134 24.3213 76.7926 22.7469 73.5293 24.0772C70.2661 25.4075 68.6961 29.1387 70.0227 32.411C71.3493 35.6834 75.07 37.2578 78.3333 35.9275Z" fill="#E2E0F9"/>
<path d="M57.159 23.1668L57.2077 22.9959L57.159 23.1668Z" fill="#E2E0F9"/>
<path d="M33.3393 49.2958C35.4835 40.1899 29.8605 31.065 20.7799 28.9149C11.6994 26.7647 2.60001 32.4035 0.455845 41.5094C-1.68832 50.6153 3.9347 59.7402 13.0152 61.8903C22.0957 64.0405 31.1952 58.4017 33.3393 49.2958Z" fill="#E2E0F9"/>
<path d="M46.6912 50.1662C56.0218 50.1662 63.5857 42.5811 63.5857 33.2244C63.5857 23.8677 56.0218 16.2827 46.6912 16.2827C37.3606 16.2827 29.7967 23.8677 29.7967 33.2244C29.7967 42.5811 37.3606 50.1662 46.6912 50.1662Z" fill="#E2E0F9"/>
<path d="M32.2245 35.0699C34.0061 32.6685 33.5091 29.2736 31.1145 27.487C28.7198 25.7005 25.3344 26.1988 23.5528 28.6002C21.7712 31.0015 22.2682 34.3964 24.6628 36.183C27.0575 37.9696 30.443 37.4712 32.2245 35.0699Z" fill="#E2E0F9"/>
<path d="M45.8392 34.1032H6.79193V80.3391H45.8392V34.1032Z" fill="#E6E7E8"/>
<path d="M47.4215 39.6203H8.37427V78.7768H47.4215V39.6203Z" fill="#F9FBFC"/>
<path d="M47.4215 32.5165H8.37427V39.6203H47.4215V32.5165Z" fill="url(#paint0_linear_901_1733)"/>
<path d="M13.949 44.283H21.3982C21.9094 44.283 22.3232 44.698 22.3232 45.2106V52.6806C22.3232 53.1933 21.9094 53.6083 21.3982 53.6083H13.949C13.4378 53.6083 13.0239 53.1933 13.0239 52.6806V45.2106C13.0239 44.698 13.4378 44.283 13.949 44.283Z" fill="#E1E4F9"/>
<path d="M31.6225 53.7303H24.1733C23.5891 53.7303 23.1265 53.2665 23.1265 52.6806V45.2106C23.1265 44.6247 23.5891 44.1609 24.1733 44.1609H31.6225C32.2067 44.1609 32.6692 44.6247 32.6692 45.2106V52.6806C32.6692 53.2421 32.2067 53.7303 31.6225 53.7303ZM24.1733 44.405C23.7351 44.405 23.37 44.7712 23.37 45.2106V52.6806C23.37 53.12 23.7351 53.4862 24.1733 53.4862H31.6225C32.0607 53.4862 32.4258 53.12 32.4258 52.6806V45.2106C32.4258 44.7712 32.0607 44.405 31.6225 44.405H24.1733Z" fill="#E1E4F9"/>
<path d="M34.3977 44.283H41.8468C42.358 44.283 42.7719 44.698 42.7719 45.2106V52.6806C42.7719 53.1933 42.358 53.6083 41.8468 53.6083H34.3977C33.8864 53.6083 33.4726 53.1933 33.4726 52.6806V45.2106C33.4726 44.698 33.8864 44.283 34.3977 44.283Z" fill="#E1E4F9"/>
<path d="M21.3982 63.9588H13.949C13.3648 63.9588 12.9022 63.495 12.9022 62.9091V55.4391C12.9022 54.8532 13.3648 54.3894 13.949 54.3894H21.3982C21.9824 54.3894 22.4449 54.8532 22.4449 55.4391V62.9091C22.4449 63.495 21.9824 63.9588 21.3982 63.9588ZM13.949 54.6579C13.5108 54.6579 13.1457 55.0241 13.1457 55.4635V62.9335C13.1457 63.3729 13.5108 63.7391 13.949 63.7391H21.3982C21.8364 63.7391 22.2015 63.3729 22.2015 62.9335V55.4635C22.2015 55.0241 21.8364 54.6579 21.3982 54.6579H13.949Z" fill="#E1E4F9"/>
<path d="M24.1733 54.5359H31.6225C32.1337 54.5359 32.5475 54.9509 32.5475 55.4635V62.9335C32.5475 63.4462 32.1337 63.8612 31.6225 63.8612H24.1733C23.6621 63.8612 23.2482 63.4462 23.2482 62.9335V55.4635C23.2482 54.9509 23.6621 54.5359 24.1733 54.5359Z" fill="#E1E4F9"/>
<path d="M41.8468 63.9588H34.3977C33.8134 63.9588 33.3509 63.495 33.3509 62.9091V55.4391C33.3509 54.8532 33.8134 54.3894 34.3977 54.3894H41.8468C42.4311 54.3894 42.8936 54.8532 42.8936 55.4391V62.9091C42.8936 63.495 42.4067 63.9588 41.8468 63.9588ZM34.3977 54.6579C33.9595 54.6579 33.5943 55.0241 33.5943 55.4635V62.9335C33.5943 63.3729 33.9595 63.7391 34.3977 63.7391H41.8468C42.285 63.7391 42.6502 63.3729 42.6502 62.9335V55.4635C42.6502 55.0241 42.285 54.6579 41.8468 54.6579H34.3977Z" fill="#E1E4F9"/>
<path d="M21.3982 65.4968C21.4955 65.4968 21.5929 65.5944 21.5929 65.6921V73.1621C21.5929 73.2597 21.4955 73.3573 21.3982 73.3573H13.949C13.8516 73.3573 13.7542 73.2597 13.7542 73.1621V65.6921C13.7542 65.5944 13.8516 65.4968 13.949 65.4968H21.3982ZM21.3982 64.7644H13.949C13.4378 64.7644 13.0239 65.1794 13.0239 65.6921V73.1621C13.0239 73.6747 13.4378 74.0897 13.949 74.0897H21.3982C21.9094 74.0897 22.3232 73.6747 22.3232 73.1621V65.6921C22.3232 65.2038 21.9094 64.7644 21.3982 64.7644Z" fill="#E1E4F9"/>
<path d="M31.6225 74.2118H24.1733C23.5891 74.2118 23.1265 73.748 23.1265 73.1621V65.6921C23.1265 65.1062 23.5891 64.6424 24.1733 64.6424H31.6225C32.2067 64.6424 32.6692 65.1062 32.6692 65.6921V73.1621C32.6692 73.748 32.2067 74.2118 31.6225 74.2118ZM24.1733 64.8865C23.7351 64.8865 23.37 65.2527 23.37 65.6921V73.1621C23.37 73.6015 23.7351 73.9677 24.1733 73.9677H31.6225C32.0607 73.9677 32.4258 73.6015 32.4258 73.1621V65.6921C32.4258 65.2527 32.0607 64.8865 31.6225 64.8865H24.1733Z" fill="#E1E4F9"/>
<path d="M34.3977 64.7644H41.8468C42.358 64.7644 42.7719 65.1794 42.7719 65.6921V73.1621C42.7719 73.6747 42.358 74.0897 41.8468 74.0897H34.3977C33.8864 74.0897 33.4726 73.6747 33.4726 73.1621V65.6921C33.4726 65.2038 33.8864 64.7644 34.3977 64.7644Z" fill="#E1E4F9"/>
<path d="M42.9423 37.6674C43.8297 37.6674 44.549 36.946 44.549 36.0562C44.549 35.1664 43.8297 34.445 42.9423 34.445C42.055 34.445 41.3356 35.1664 41.3356 36.0562C41.3356 36.946 42.055 37.6674 42.9423 37.6674Z" fill="#3D348B"/>
<path d="M42.9423 29.5382C42.4798 29.5382 42.1146 29.9044 42.1146 30.3682V36.0562C42.1146 36.52 42.4798 36.8862 42.9423 36.8862C43.4048 36.8862 43.77 36.52 43.77 36.0562V30.3682C43.77 29.9044 43.4048 29.5382 42.9423 29.5382Z" fill="url(#paint1_linear_901_1733)"/>
<path d="M12.8535 37.6674C13.7409 37.6674 14.4602 36.946 14.4602 36.0562C14.4602 35.1664 13.7409 34.445 12.8535 34.445C11.9662 34.445 11.2468 35.1664 11.2468 36.0562C11.2468 36.946 11.9662 37.6674 12.8535 37.6674Z" fill="#3D348B"/>
<path d="M12.8535 29.5382C12.391 29.5382 12.0258 29.9044 12.0258 30.3682V36.0562C12.0258 36.52 12.391 36.8862 12.8535 36.8862C13.316 36.8862 13.6812 36.52 13.6812 36.0562V30.3682C13.6812 29.9044 13.2917 29.5382 12.8535 29.5382Z" fill="url(#paint2_linear_901_1733)"/>
<path d="M20.3757 37.6674C21.2631 37.6674 21.9824 36.946 21.9824 36.0562C21.9824 35.1664 21.2631 34.445 20.3757 34.445C19.4884 34.445 18.769 35.1664 18.769 36.0562C18.769 36.946 19.4884 37.6674 20.3757 37.6674Z" fill="#3D348B"/>
<path d="M20.3757 29.5382C19.9132 29.5382 19.548 29.9044 19.548 30.3682V36.0562C19.548 36.52 19.9132 36.8862 20.3757 36.8862C20.8382 36.8862 21.2034 36.52 21.2034 36.0562V30.3682C21.2034 29.9044 20.8382 29.5382 20.3757 29.5382Z" fill="url(#paint3_linear_901_1733)"/>
<path d="M27.8979 37.6674C28.7852 37.6674 29.5046 36.946 29.5046 36.0562C29.5046 35.1664 28.7852 34.445 27.8979 34.445C27.0105 34.445 26.2912 35.1664 26.2912 36.0562C26.2912 36.946 27.0105 37.6674 27.8979 37.6674Z" fill="#3D348B"/>
<path d="M27.8979 29.5382C27.4353 29.5382 27.0702 29.9044 27.0702 30.3682V36.0562C27.0702 36.52 27.4353 36.8862 27.8979 36.8862C28.3604 36.8862 28.7256 36.52 28.7256 36.0562V30.3682C28.7256 29.9044 28.3604 29.5382 27.8979 29.5382Z" fill="url(#paint4_linear_901_1733)"/>
<path d="M35.4201 37.6674C36.3074 37.6674 37.0268 36.946 37.0268 36.0562C37.0268 35.1664 36.3074 34.445 35.4201 34.445C34.5328 34.445 33.8134 35.1664 33.8134 36.0562C33.8134 36.946 34.5328 37.6674 35.4201 37.6674Z" fill="#3D348B"/>
<path d="M35.4201 29.5382C34.9576 29.5382 34.5924 29.9044 34.5924 30.3682V36.0562C34.5924 36.52 34.9576 36.8862 35.4201 36.8862C35.8826 36.8862 36.2478 36.52 36.2478 36.0562V30.3682C36.2478 29.9044 35.8826 29.5382 35.4201 29.5382Z" fill="url(#paint5_linear_901_1733)"/>
<path d="M20.7652 67.2788L20.254 66.7662C20.1322 66.6441 19.9375 66.6441 19.8158 66.7662L16.6024 69.9885L15.5313 68.9144C15.4826 68.8656 15.3852 68.8168 15.3122 68.8168C15.2392 68.8168 15.1418 68.8412 15.0931 68.9144L14.5819 69.427C14.4602 69.5491 14.4602 69.7444 14.5819 69.8665L16.3833 71.6729C16.432 71.7218 16.5294 71.7706 16.6024 71.7706C16.6754 71.7706 16.7728 71.7462 16.8215 71.6729L20.7652 67.7182C20.8139 67.6694 20.8626 67.5718 20.8626 67.4985C20.8626 67.4253 20.8382 67.352 20.7652 67.2788Z" fill="url(#paint6_linear_901_1733)"/>
<path d="M101.099 82.0479H65.0706C64.5838 82.0479 64.1943 81.6573 64.1943 81.1691C64.1943 80.6809 64.5838 80.2903 65.0706 80.2903H101.099C101.586 80.2903 101.976 80.6809 101.976 81.1691C102 81.6329 101.586 82.0479 101.099 82.0479Z" fill="#E2E0F9"/>
<path d="M44.9628 83H27.2406C26.7538 83 26.3643 82.6094 26.3643 82.1212C26.3643 81.6329 26.7538 81.2423 27.2406 81.2423H44.9628C45.4497 81.2423 45.8392 81.6329 45.8392 82.1212C45.8392 82.585 45.4497 83 44.9628 83Z" fill="#E2E0F9"/>
<path d="M77.7804 44.7124C79.8073 32.1082 71.2612 20.2426 58.6921 18.21C46.123 16.1774 34.2906 24.7474 32.2636 37.3517C30.2367 49.9559 38.7828 61.8215 51.3519 63.8541C63.921 65.8867 75.7534 57.3167 77.7804 44.7124Z" fill="#E6E7E8"/>
<path d="M95.9872 76.9459C96.6688 78.3862 96.9366 79.4359 96.9366 79.4359C96.9366 79.4359 90.9967 80.8274 90.3395 80.1927C89.6822 79.5579 93.2607 77.6538 93.2607 77.6538C93.2607 77.6538 94.8187 77.6538 95.9872 76.9459Z" fill="#112B46"/>
<path d="M76.9991 78.7768C77.3886 80.4612 77.1451 81.5353 77.1451 81.5353C77.1451 81.5353 70.8158 81.7794 70.2559 80.9738C69.696 80.1438 73.9318 78.9232 73.9318 78.9232C73.9318 78.9232 75.5871 79.265 76.9991 78.7768Z" fill="#112B46"/>
<path d="M93.1876 53.8768C93.4067 53.8279 93.6258 53.8035 93.8692 53.7547C93.0902 58.1732 91.3618 62.3721 90.875 64.3738C90.1933 67.23 92.1165 71.2091 94.1614 73.8944C94.9647 74.9441 95.549 76.0182 95.9871 76.9459C94.8186 77.6782 93.2607 77.6538 93.2607 77.6538C93.2607 77.6538 90.3151 75.4079 87.5886 71.7462C85.6411 69.1341 85.1786 66.2291 85.0812 64.8865C85.9575 63.8368 86.907 62.7871 87.9294 61.7618C91.3862 58.3197 92.7007 55.3903 93.1876 53.8768Z" fill="url(#paint7_linear_901_1733)"/>
<path d="M93.1876 53.8768C92.7007 55.4147 91.3618 58.3197 87.9294 61.7374C86.907 62.7627 85.9332 63.8124 85.0812 64.8621C80.4559 70.4035 78.2406 76.1647 77.0965 79.2162C75.295 79.1674 73.8101 78.8744 73.8101 78.8744C75.3681 67.5474 82.306 56.6841 84.4239 53.6082C85.9819 53.95 89.4143 54.5115 93.1876 53.8768Z" fill="url(#paint8_linear_901_1733)"/>
<path d="M83.9127 34.2253C83.3771 34.86 82.7199 35.9097 82.1356 37.6185C81.8678 38.3997 81.5757 39.1565 81.3079 39.84H78.6058V36.2271C80.7724 35.983 82.8172 34.9088 83.9127 34.2253Z" fill="url(#paint9_linear_901_1733)"/>
<path d="M80.5289 38.595C80.5289 40.7921 80.2124 42.8915 79.6525 44.9177C79.3361 46.065 78.9222 47.1635 78.4354 48.2377C74.7838 56.1959 66.7504 61.7374 57.4754 61.7374C44.7437 61.7374 34.3976 51.3624 34.3976 38.595C34.3976 25.8277 44.7437 15.4771 57.4754 15.4771C70.1828 15.4527 80.5289 25.8277 80.5289 38.595Z" fill="url(#paint10_linear_901_1733)"/>
<path d="M72.2429 53.422C80.4091 45.2329 80.4091 31.9558 72.2429 23.7667C64.0766 15.5776 50.8365 15.5776 42.6702 23.7667C34.504 31.9558 34.504 45.2329 42.6702 53.422C50.8365 61.6111 64.0766 61.6111 72.2429 53.422Z" fill="#878CF0"/>
<path d="M57.4511 58.6859C68.516 58.6859 77.486 49.6909 77.486 38.595C77.486 27.4991 68.516 18.5041 57.4511 18.5041C46.3862 18.5041 37.4163 27.4991 37.4163 38.595C37.4163 49.6909 46.3862 58.6859 57.4511 58.6859Z" fill="#F9FBFC"/>
<path d="M58.7657 38.595C58.7657 39.3274 58.1815 39.9132 57.4512 39.9132C56.7208 39.9132 56.1366 39.3274 56.1366 38.595C56.1366 37.8627 56.7208 37.2768 57.4512 37.2768C58.1815 37.2524 58.7657 37.8627 58.7657 38.595Z" fill="#3D348B"/>
<path d="M57.6702 39.2053C57.3294 39.2053 57.0616 38.9368 57.0616 38.595V24.3141C57.0616 23.9724 57.3294 23.7038 57.6702 23.7038C58.011 23.7038 58.2788 23.9724 58.2788 24.3141V38.595C58.2788 38.9124 58.011 39.2053 57.6702 39.2053Z" fill="#3D348B"/>
<path d="M57.6702 39.2053H46.6912C46.3504 39.2053 46.0826 38.9368 46.0826 38.595C46.0826 38.2532 46.3504 37.9847 46.6912 37.9847H57.6702C58.011 37.9847 58.2788 38.2532 58.2788 38.595C58.2788 38.9368 58.011 39.2053 57.6702 39.2053Z" fill="#3D348B"/>
<path d="M57.6703 21.6288C57.5242 21.6288 57.4268 21.5312 57.4268 21.3847V19.798C57.4268 19.6515 57.5242 19.5538 57.6703 19.5538C57.8163 19.5538 57.9137 19.6515 57.9137 19.798V21.3847C57.9137 21.5312 57.8163 21.6288 57.6703 21.6288Z" fill="#7678ED"/>
<path d="M49.0769 23.8259C49.0039 23.8259 48.9065 23.7771 48.8578 23.7038L48.0788 22.3368C48.0058 22.2147 48.0545 22.0682 48.1762 21.995C48.2979 21.9218 48.444 21.9706 48.517 22.0927L49.296 23.4597C49.369 23.5818 49.3203 23.7282 49.1986 23.8015C49.1499 23.8259 49.1256 23.8259 49.0769 23.8259Z" fill="#7678ED"/>
<path d="M42.7232 30.0265C42.6745 30.0265 42.6502 30.0265 42.6015 30.0021L41.2383 29.2209C41.1165 29.1477 41.0922 29.0012 41.1409 28.8791C41.1896 28.7571 41.36 28.7327 41.4817 28.7815L42.8449 29.5627C42.9667 29.6359 42.991 29.7824 42.9423 29.9044C42.8693 30.0021 42.7963 30.0265 42.7232 30.0265Z" fill="#7678ED"/>
<path d="M40.3132 38.595H38.7309C38.5848 38.595 38.4874 38.4974 38.4874 38.3509C38.4874 38.2044 38.5848 38.1068 38.7309 38.1068H40.3132C40.4593 38.1068 40.5566 38.2044 40.5566 38.3509C40.5566 38.4974 40.4349 38.595 40.3132 38.595Z" fill="#7678ED"/>
<path d="M41.1166 48.018C41.0435 48.018 40.9462 47.9691 40.8975 47.8959C40.8244 47.7738 40.8731 47.6274 40.9948 47.5541L42.3581 46.773C42.4798 46.6997 42.6259 46.7486 42.6989 46.8706C42.7719 46.9927 42.7232 47.1391 42.6015 47.2124L41.2383 47.9936C41.2139 48.018 41.1653 48.018 41.1166 48.018Z" fill="#7678ED"/>
<path d="M47.8841 54.9753C47.8354 54.9753 47.8111 54.9753 47.7624 54.9509C47.6406 54.8777 47.6163 54.7312 47.665 54.6091L48.444 53.2421C48.517 53.12 48.6631 53.0956 48.7848 53.1444C48.9065 53.2177 48.9309 53.3641 48.8822 53.4862L48.1032 54.8532C48.0545 54.9265 47.9815 54.9753 47.8841 54.9753Z" fill="#7678ED"/>
<path d="M57.2321 57.6118C57.086 57.6118 56.9886 57.5141 56.9886 57.3677V55.7809C56.9886 55.6344 57.086 55.5368 57.2321 55.5368C57.3781 55.5368 57.4755 55.6344 57.4755 55.7809V57.3677C57.4755 57.4897 57.3538 57.6118 57.2321 57.6118Z" fill="#7678ED"/>
<path d="M66.6287 55.195C66.5557 55.195 66.4583 55.1462 66.4096 55.0729L65.6306 53.7059C65.5576 53.5838 65.6063 53.4374 65.728 53.3641C65.8497 53.2909 65.9958 53.3397 66.0688 53.4618L66.8478 54.8288C66.9208 54.9509 66.8722 55.0974 66.7504 55.1706C66.7018 55.195 66.6531 55.195 66.6287 55.195Z" fill="#7678ED"/>
<path d="M73.5667 48.4085C73.518 48.4085 73.4936 48.4085 73.4449 48.3841L72.0817 47.6029C71.96 47.5297 71.9356 47.3832 71.9843 47.2612C72.0574 47.1391 72.2034 47.1147 72.3251 47.1635L73.6884 47.9447C73.8101 48.0179 73.8344 48.1644 73.7858 48.2865C73.7127 48.3597 73.6397 48.4085 73.5667 48.4085Z" fill="#7678ED"/>
<path d="M76.1714 39.0588H74.5891C74.443 39.0588 74.3456 38.9612 74.3456 38.8147C74.3456 38.6682 74.443 38.5706 74.5891 38.5706H76.1714C76.3175 38.5706 76.4149 38.6682 76.4149 38.8147C76.4149 38.9368 76.3175 39.0588 76.1714 39.0588Z" fill="#7678ED"/>
<path d="M72.4225 30.4171C72.3495 30.4171 72.2521 30.3683 72.2034 30.295C72.1304 30.173 72.1791 30.0265 72.3008 29.9532L73.6641 29.1721C73.7858 29.0988 73.9318 29.1477 74.0049 29.2697C74.0779 29.3918 74.0292 29.5383 73.9075 29.6115L72.5443 30.3927C72.4956 30.4171 72.4469 30.4171 72.4225 30.4171Z" fill="#7678ED"/>
<path d="M66.2149 24.0456C66.1662 24.0456 66.1419 24.0456 66.0932 24.0212C65.9715 23.9479 65.9471 23.8015 65.9958 23.6794L66.7748 22.3124C66.8478 22.1903 66.9939 22.1659 67.1156 22.2147C67.2373 22.2879 67.2617 22.4344 67.213 22.5565L66.434 23.9235C66.3853 23.9968 66.3123 24.0456 66.2149 24.0456Z" fill="#7678ED"/>
<path d="M79.6526 44.8932C79.3361 46.0406 78.9223 47.1391 78.4354 48.2132C77.1452 48.14 75.4411 48.14 73.8588 46.5776C71.8626 44.6247 71.9356 43.6971 70.5724 41.9394C69.2091 40.1818 68.5032 39.84 68.8196 37.5453L69.7203 38.0091L74.1022 43.9656L79.6526 44.8932Z" fill="#E6E7E8"/>
<path d="M94.064 54.9997C93.8449 55.0485 93.212 55.2438 92.9929 55.2927C89.1952 55.9274 85.7871 55.3903 84.2291 55.0485C83.6449 54.9265 83.3041 54.8288 83.3041 54.8288C83.8883 52.3388 84.1561 48.6527 84.0831 46.8462C84.01 45.6012 83.864 44.5759 83.7423 43.8924C83.2554 44.6491 82.6955 45.4059 82.1599 46.065C81.2349 47.1635 79.9447 47.7006 78.6544 47.7738C77.9241 47.8227 77.1695 47.7006 76.4392 47.4565C76.1714 47.3588 75.8793 47.2612 75.6115 47.1147C75.149 46.895 74.7351 46.6021 74.37 46.2847C73.81 45.7965 73.2988 45.235 72.8363 44.6491C73.1771 44.1365 73.9318 43.0868 74.9055 42.5009C75.5871 42.9891 76.2688 43.3309 76.8773 43.575C77.1695 43.6971 77.4616 43.7947 77.7294 43.8679C77.8024 43.8924 77.8998 43.9168 77.9728 43.9412C78.7518 44.1365 79.5308 43.4041 80.2855 42.1103C80.6506 41.5 80.9914 40.7677 81.3322 39.9377C81.6244 39.2541 81.8921 38.4974 82.1843 37.6918C82.7685 35.9829 83.4258 34.9332 83.9614 34.2985C84.5943 33.5174 85.0812 33.3465 85.0812 33.3465C85.0812 33.3465 85.5924 33.2 86.1766 33.0291L86.4444 32.9559C87.1747 32.7362 87.9781 32.4921 88.0754 32.4677C88.9031 33.3709 90.3394 34.03 91.6296 35.69C93.6258 38.2777 93.5771 42.1103 94.2344 48.1888C94.3561 49.9221 94.4048 53.12 94.064 54.9997Z" fill="url(#paint11_linear_901_1733)"/>
<path d="M84.0831 46.8218C84.0101 45.5768 83.864 44.5515 83.7423 43.8679C85.0082 41.6953 86.4445 39.1809 86.4445 39.1809C86.4445 39.1809 87.7834 44.5515 84.0831 46.8218Z" fill="#E6E7E8"/>
<path d="M88.0024 32.3944C87.832 32.4432 85.0325 33.2732 85.0325 33.2732L84.716 32.6141L84.4726 32.1015C83.9614 32.4188 83.3284 32.4188 83.3284 32.4188C81.8678 31.0762 81.7461 29.1232 81.7705 28.2444C81.7705 28.22 81.7948 28.22 81.8191 28.1956C81.9895 28.0979 82.6712 28.0003 82.7442 27.9759C83.2067 27.8782 83.6693 27.8538 84.1561 27.8538C84.5213 27.8538 84.9595 27.8782 85.3003 28.0491C85.5924 28.1956 85.7385 28.5129 85.9089 28.7815C86.2984 29.4162 86.6635 30.0509 87.0287 30.71C87.1991 31.0029 87.4182 31.2471 87.5399 31.54C87.5399 31.6621 87.8564 32.3944 88.0024 32.3944Z" fill="#FFC8AF"/>
<path d="M74.9055 42.4765C73.9075 43.0868 73.1528 44.1121 72.8363 44.6247C71.5218 42.9647 70.6697 41.2559 70.6697 41.2559C70.6697 41.2559 69.6473 40.3771 69.1117 39.5227C68.5762 38.6683 68.7223 36.6421 69.4039 36.5444C70.1098 36.4468 71.5948 38.473 71.5948 38.473C71.5948 38.473 71.5218 37.2036 71.6678 37.1547C71.8139 37.1059 72.3008 37.4965 72.6172 38.2044C72.9337 38.9124 72.3981 39.8888 72.3981 39.8888C73.1528 41.0118 74.0292 41.8418 74.9055 42.4765Z" fill="#FFC8AF"/>
<path d="M84.643 28.9524C84.4726 28.9524 84.3265 29.05 84.3022 29.2453C84.2779 29.3918 84.4726 29.8312 84.1561 29.7824C83.937 29.758 83.8397 29.3185 83.718 29.1721C83.4989 28.9035 83.2311 28.8547 82.9146 28.8791C82.7199 28.8791 82.6712 28.8791 82.5495 28.7082C82.4521 28.5862 82.4034 28.3665 82.2573 28.2688C82.0869 28.1468 81.8435 28.2444 81.6731 28.2688C81.3566 28.2932 81.0401 28.1712 80.7724 28.0247C79.9934 27.6097 79.6769 26.3159 80.5046 25.7788C80.9184 25.5103 81.4296 25.5835 81.8191 25.8277C82.0626 25.9985 82.306 26.0474 82.5981 25.9253C82.7929 25.8277 82.939 25.7056 83.1337 25.608C83.4015 25.5103 83.5719 25.5347 83.791 25.7056C84.0588 25.8765 84.2292 26.0718 84.57 25.9497C85.0569 25.8032 85.5194 25.608 85.8602 26.0962C85.9819 26.2671 86.0793 26.4624 86.274 26.56C86.4444 26.6577 86.6392 26.6577 86.8096 26.7553C87.0287 26.853 87.2478 27.0727 87.3695 27.2924C87.5643 27.7074 87.4912 28.3177 87.4669 28.7815C87.4182 29.343 87.3695 29.9044 87.3208 30.4659C87.2965 30.7832 87.3208 31.0762 87.3938 31.3447C86.8826 31.3203 85.6655 30.588 85.2516 29.8556C85.1055 29.5871 85.1055 29.0988 84.7404 28.9768C84.7404 28.9524 84.6917 28.9524 84.643 28.9524Z" fill="#112B46"/>
<path d="M84.5456 29.7335C84.6673 29.6359 84.643 29.5871 84.5456 29.4894C84.4482 29.4162 84.4239 29.2697 84.57 29.1965C84.7404 29.1232 84.8864 29.3185 84.9351 29.465C85.0081 29.6603 84.9838 29.8068 84.7647 29.88C84.6673 29.9044 84.4969 29.88 84.5456 29.7335Z" fill="#F4B69D"/>
<path d="M85.1786 29.5382C85.2273 29.8312 85.1543 30.1241 84.8865 30.1729C84.6187 30.2218 85.1299 30.5635 85.422 30.4171C85.422 30.4171 85.3247 30.2218 85.276 30.0265C85.2273 29.8312 85.1786 29.5382 85.1786 29.5382Z" fill="#F4B69D"/>
<path d="M74.6134 42.0615L75.7576 42.8182L73.3475 45.4791L72.4225 44.3318L74.6134 42.0615Z" fill="url(#paint12_linear_901_1733)"/>
<path d="M84.6917 32.6141L84.4482 32.1015C83.937 32.4188 83.3041 32.4188 83.3041 32.4188C83.3041 32.4188 84.5699 31.833 84.789 31.6377C85.0325 31.4424 85.1055 31.2227 85.1785 31.1983C85.2759 31.1738 85.1542 32.248 84.6917 32.6141Z" fill="#F4B69D"/>
<path d="M75.6358 42.9403L75.8793 43.0624L73.8101 45.7477L73.4692 45.3571L75.6358 42.9403Z" fill="#E6E7E8"/>
<path d="M84.4482 33.5418L84.6187 32.785L87.759 31.8329L88.2215 32.6141L84.4482 33.5418Z" fill="url(#paint13_linear_901_1733)"/>
<path d="M39.6559 11.8885H25.4391V19.9932H39.6559V11.8885Z" fill="#878CF0"/>
<path d="M25.4391 19.9932L32.5475 14.4762L39.6559 19.9932H25.4391Z" fill="#737EE5"/>
<path d="M39.6559 11.8885L32.5475 17.43L25.4391 11.8885H39.6559Z" fill="#929CF7"/>
<path d="M18.1117 27.3412H12.9508C12.7561 27.3412 12.5857 27.1703 12.5857 26.975V16.6488C12.5857 16.4535 12.7561 16.2827 12.9508 16.2827H20.8139C21.0086 16.2827 21.179 16.4535 21.179 16.6488V23.5329C21.179 23.6062 21.1547 23.7038 21.106 23.7527L18.4038 27.1703C18.3308 27.2679 18.2334 27.3412 18.1117 27.3412ZM13.316 26.6088H17.9413L20.4487 23.4109V17.015H13.316V26.6088Z" fill="#E2E0F9"/>
<path d="M18.1117 27.3412C18.063 27.3412 18.0387 27.3412 17.99 27.3168C17.844 27.268 17.7466 27.1215 17.7466 26.975V23.5574C17.7466 23.3621 17.917 23.1912 18.1117 23.1912H20.8139C20.9599 23.1912 21.0817 23.2644 21.1547 23.3865C21.2277 23.5085 21.2034 23.655 21.106 23.7771L18.4039 27.1947C18.3308 27.2924 18.2335 27.3412 18.1117 27.3412ZM18.4769 23.8991V25.9009L20.0592 23.8991H18.4769Z" fill="#E2E0F9"/>
<path d="M19.475 18.1135H14.3871V18.8459H19.475V18.1135Z" fill="#E2E0F9"/>
<path d="M19.475 19.5294H14.3871V20.2618H19.475V19.5294Z" fill="#E2E0F9"/>
<path d="M18.4039 20.9209H14.3871V21.6533H18.4039V20.9209Z" fill="#E2E0F9"/>
<path d="M45.1819 5.4194C43.7943 5.4194 42.6745 6.54234 42.6745 7.95823C42.6745 10.4726 45.1819 13.5241 45.1819 13.5241C45.1819 13.5241 47.7136 10.4482 47.7136 7.93381C47.7136 6.54234 46.5695 5.4194 45.1819 5.4194ZM45.1819 9.27646C44.4516 9.27646 43.843 8.66617 43.843 7.93381C43.843 7.20146 44.4516 6.59117 45.1819 6.59117C45.9122 6.59117 46.5208 7.20146 46.5208 7.93381C46.5208 8.66617 45.9122 9.27646 45.1819 9.27646Z" fill="#FC637C"/>
<path d="M92.9685 29.5871L91.6783 31.5156C91.6053 31.6132 91.6783 31.7597 91.8 31.7597H97.8859C98.0077 31.7597 98.0807 31.6132 98.0077 31.5156L96.7174 29.5871H92.9685Z" fill="#F9FBFC"/>
<path d="M23.4917 4.00354H9.42102V14.525H23.4917V4.00354Z" fill="url(#paint14_linear_901_1733)"/>
<path d="M13.9489 6.83529H21.9823V6.10294H13.9489" fill="#F9FBFC"/>
<path d="M13.9489 8.44649H21.9823V7.71414H13.9489" fill="#F9FBFC"/>
<path d="M10.3217 7.2503L11.2955 8.30001L12.8778 6.39589L12.3179 5.93207L11.2711 7.17707L10.8573 6.73766L10.3217 7.2503Z" fill="#F9FBFC"/>
<path d="M13.9489 10.0333H21.9823V9.3009H13.9489" fill="#F9FBFC"/>
<path d="M13.9489 11.6444H18.7203V10.9121H13.9489" fill="#F9FBFC"/>
<path d="M57.305 64.1541H43.2344V74.6756H57.305V64.1541Z" fill="#E6E7E8"/>
<path d="M58.3275 63.1288H44.2568V73.6503H58.3275V63.1288Z" fill="url(#paint15_linear_901_1733)"/>
<path d="M48.7847 65.9362H56.8181V65.2038H48.7847" fill="#F9FBFC"/>
<path d="M48.7847 67.5474H56.8181V66.815H48.7847" fill="#F9FBFC"/>
<path d="M45.1819 66.3512L46.1313 67.4009L47.738 65.4968L47.1781 65.0329L46.1069 66.3023L45.7174 65.8629L45.1819 66.3512Z" fill="#F9FBFC"/>
<path d="M48.7847 69.1341H56.8181V68.4018H48.7847" fill="#F9FBFC"/>
<path d="M48.7847 70.7453H53.5804V70.0129H48.7847" fill="#F9FBFC"/>
<path d="M4.82008 27.4388C4.82008 28.0003 4.35755 28.4641 3.79764 28.4641C3.23774 28.4641 2.77521 28.0003 2.77521 27.4388C2.77521 26.8773 3.23774 26.4135 3.79764 26.4135C4.35755 26.4135 4.82008 26.8773 4.82008 27.4388Z" fill="#E2E0F9"/>
<path d="M79.6039 20.9453H82.1112C82.5007 20.9453 82.8172 20.6279 82.8172 20.2374V19.8468H78.8979V20.2374C78.8979 20.6279 79.2144 20.9453 79.6039 20.9453Z" fill="url(#paint16_linear_901_1733)"/>
<path d="M83.5719 14.6715C83.937 14.0124 84.4483 13.4265 85.1055 12.9382C86.9313 11.5956 88.0024 9.42294 88.0024 7.17706C88.0024 3.22235 84.7891 0 80.8454 0C80.5776 0 80.3098 0.0244118 80.0421 0.0488235C76.8044 0.415 74.1509 3.02706 73.7614 6.27382C73.4449 8.88588 74.5647 11.4735 76.6826 13.0115C77.2912 13.4509 77.8024 14.0368 78.1676 14.6959" fill="url(#paint17_radial_901_1733)"/>
<path d="M81.3809 14.7447L82.8416 9.74029C82.9389 9.39853 82.5738 9.13 82.2817 9.30088L80.8697 10.1553L79.4334 9.30088C79.1413 9.13 78.7762 9.39853 78.8735 9.74029L80.3342 14.7447C80.3829 14.8912 80.5289 14.9644 80.675 14.94C80.821 14.8912 80.8941 14.7447 80.8697 14.5982L79.5065 10.0088L80.8454 10.8144L82.1843 10.0088L80.8454 14.5982C80.7967 14.7447 80.8941 14.8912 81.0401 14.94C81.1862 14.9644 81.3323 14.8912 81.3809 14.7447Z" fill="#F79663"/>
<path d="M83.3528 19.9688H78.338C77.7781 19.9688 77.3156 19.505 77.3156 18.9435V14.6715H84.3752V18.9435C84.3752 19.505 83.9127 19.9688 83.3528 19.9688Z" fill="url(#paint18_linear_901_1733)"/>
<path d="M77.1938 17.9915H84.5213V17.3812H77.1938V17.9915ZM77.1938 19.0656H84.5213V18.4553H77.1938V19.0656ZM77.1938 16.9174H84.5213V16.3071H77.1938V16.9174ZM77.1938 15.2574V15.8676H84.5213V15.2574H77.1938Z" fill="url(#paint19_linear_901_1733)"/>
<path d="M36.6859 59.1253H35.4931V61.0294H36.6859V59.1253Z" fill="#56548C"/>
<path d="M37.8545 59.5159H34.3246C33.9351 59.5159 33.6187 59.1985 33.6187 58.8079V58.6859C33.6187 58.2953 33.9351 57.9779 34.3246 57.9779H37.8545C38.2439 57.9779 38.5604 58.2953 38.5604 58.6859V58.8079C38.5604 59.1985 38.2439 59.5159 37.8545 59.5159Z" fill="#56548C"/>
<path d="M37.0511 59.882H35.1523V61.7862H37.0511V59.882Z" fill="#FBD15B"/>
<path d="M36.1017 82.0479C42.0711 82.0479 46.9103 77.1952 46.9103 71.2091C46.9103 65.223 42.0711 60.3703 36.1017 60.3703C30.1323 60.3703 25.2931 65.223 25.2931 71.2091C25.2931 77.1952 30.1323 82.0479 36.1017 82.0479Z" fill="url(#paint20_linear_901_1733)"/>
<path d="M36.1017 80.3147C41.1165 80.3147 45.1819 76.238 45.1819 71.2091C45.1819 66.1802 41.1165 62.1035 36.1017 62.1035C31.0868 62.1035 27.0215 66.1802 27.0215 71.2091C27.0215 76.238 31.0868 80.3147 36.1017 80.3147Z" fill="#B1B2F3"/>
<path d="M36.1017 79.8753C40.8745 79.8753 44.7437 75.9953 44.7437 71.2091C44.7437 66.4229 40.8745 62.5429 36.1017 62.5429C31.3288 62.5429 27.4597 66.4229 27.4597 71.2091C27.4597 75.9953 31.3288 79.8753 36.1017 79.8753Z" fill="#F9FBFC"/>
<path d="M37.4162 71.2091C37.4162 71.9415 36.832 72.5273 36.1017 72.5273C35.3714 72.5273 34.7871 71.9415 34.7871 71.2091C34.7871 70.4768 35.3714 69.8909 36.1017 69.8909C36.832 69.8909 37.4162 70.4768 37.4162 71.2091Z" fill="#56548C"/>
<path d="M36.126 72.0391H36.053C35.8096 72.0391 35.6392 71.8438 35.6392 71.6241V65.0818C35.6392 64.8376 35.8339 64.6667 36.053 64.6667H36.126C36.3695 64.6667 36.5399 64.862 36.5399 65.0818V71.6241C36.5642 71.8438 36.3695 72.0391 36.126 72.0391Z" fill="#56548C"/>
<path d="M36.1017 64.0076C36.3706 64.0076 36.5886 63.789 36.5886 63.5194C36.5886 63.2497 36.3706 63.0312 36.1017 63.0312C35.8328 63.0312 35.6148 63.2497 35.6148 63.5194C35.6148 63.789 35.8328 64.0076 36.1017 64.0076Z" fill="#B1B2F3"/>
<path d="M36.1017 79.3626C36.3706 79.3626 36.5886 79.144 36.5886 78.8744C36.5886 78.6048 36.3706 78.3862 36.1017 78.3862C35.8328 78.3862 35.6148 78.6048 35.6148 78.8744C35.6148 79.144 35.8328 79.3626 36.1017 79.3626Z" fill="#B1B2F3"/>
<path d="M28.4334 70.7209C28.7012 70.7209 28.9203 70.9406 28.9203 71.2091C28.9203 71.4777 28.7012 71.6974 28.4334 71.6974C28.1656 71.6974 27.9465 71.4777 27.9465 71.2091C27.9465 70.9406 28.1656 70.7209 28.4334 70.7209Z" fill="#B1B2F3"/>
<path d="M43.7699 71.6974C44.0388 71.6974 44.2568 71.4788 44.2568 71.2091C44.2568 70.9395 44.0388 70.7209 43.7699 70.7209C43.501 70.7209 43.283 70.9395 43.283 71.2091C43.283 71.4788 43.501 71.6974 43.7699 71.6974Z" fill="#B1B2F3"/>
</g>
<defs>
<linearGradient id="paint0_linear_901_1733" x1="21.4852" y1="24.9299" x2="34.3622" y2="47.1715" gradientUnits="userSpaceOnUse">
<stop stop-color="#3478FF"/>
<stop offset="1" stop-color="#482EBD"/>
</linearGradient>
<linearGradient id="paint1_linear_901_1733" x1="42.1217" y1="33.2196" x2="43.7803" y2="33.2196" gradientUnits="userSpaceOnUse">
<stop stop-color="#FF697D"/>
<stop offset="1" stop-color="#DE2276"/>
</linearGradient>
<linearGradient id="paint2_linear_901_1733" x1="12.0133" y1="33.2196" x2="13.6719" y2="33.2196" gradientUnits="userSpaceOnUse">
<stop stop-color="#FF697D"/>
<stop offset="1" stop-color="#DE2276"/>
</linearGradient>
<linearGradient id="paint3_linear_901_1733" x1="19.5404" y1="33.2196" x2="21.199" y2="33.2196" gradientUnits="userSpaceOnUse">
<stop stop-color="#FF697D"/>
<stop offset="1" stop-color="#DE2276"/>
</linearGradient>
<linearGradient id="paint4_linear_901_1733" x1="27.0675" y1="33.2196" x2="28.7261" y2="33.2196" gradientUnits="userSpaceOnUse">
<stop stop-color="#FF697D"/>
<stop offset="1" stop-color="#DE2276"/>
</linearGradient>
<linearGradient id="paint5_linear_901_1733" x1="34.5946" y1="33.2196" x2="36.2532" y2="33.2196" gradientUnits="userSpaceOnUse">
<stop stop-color="#FF697D"/>
<stop offset="1" stop-color="#DE2276"/>
</linearGradient>
<linearGradient id="paint6_linear_901_1733" x1="14.4952" y1="69.2358" x2="20.8608" y2="69.2358" gradientUnits="userSpaceOnUse">
<stop stop-color="#FF697D"/>
<stop offset="1" stop-color="#DE2276"/>
</linearGradient>
<linearGradient id="paint7_linear_901_1733" x1="90.5382" y1="85.1602" x2="90.5382" y2="64.9715" gradientUnits="userSpaceOnUse">
<stop stop-color="#435DF1"/>
<stop offset="0.327" stop-color="#4333F1"/>
<stop offset="1" stop-color="#4C008C"/>
</linearGradient>
<linearGradient id="paint8_linear_901_1733" x1="73.8104" y1="66.4136" x2="93.1988" y2="66.4136" gradientUnits="userSpaceOnUse">
<stop stop-color="#435DF1"/>
<stop offset="0.327" stop-color="#4333F1"/>
<stop offset="1" stop-color="#4C008C"/>
</linearGradient>
<linearGradient id="paint9_linear_901_1733" x1="80.1324" y1="34.0894" x2="81.751" y2="38.3135" gradientUnits="userSpaceOnUse">
<stop stop-color="#FF697D"/>
<stop offset="1" stop-color="#DE2276"/>
</linearGradient>
<linearGradient id="paint10_linear_901_1733" x1="57.4526" y1="15.4573" x2="57.4526" y2="61.7176" gradientUnits="userSpaceOnUse">
<stop stop-color="#3478FF"/>
<stop offset="1" stop-color="#482EBD"/>
</linearGradient>
<linearGradient id="paint11_linear_901_1733" x1="83.5715" y1="32.3917" x2="83.5715" y2="55.5852" gradientUnits="userSpaceOnUse">
<stop stop-color="#FF697D"/>
<stop offset="1" stop-color="#DE2276"/>
</linearGradient>
<linearGradient id="paint12_linear_901_1733" x1="74.0854" y1="43.3861" x2="74.0854" y2="46.8056" gradientUnits="userSpaceOnUse">
<stop stop-color="#FF697D"/>
<stop offset="1" stop-color="#DE2276"/>
</linearGradient>
<linearGradient id="paint13_linear_901_1733" x1="86.3312" y1="31.8344" x2="86.3312" y2="33.5302" gradientUnits="userSpaceOnUse">
<stop stop-color="#FF697D"/>
<stop offset="1" stop-color="#DE2276"/>
</linearGradient>
<linearGradient id="paint14_linear_901_1733" x1="12.4236" y1="2.27323" x2="20.5172" y2="16.2527" gradientUnits="userSpaceOnUse">
<stop stop-color="#FBD15B"/>
<stop offset="1" stop-color="#FE9373"/>
</linearGradient>
<linearGradient id="paint15_linear_901_1733" x1="47.2713" y1="61.3791" x2="55.365" y2="75.3586" gradientUnits="userSpaceOnUse">
<stop stop-color="#878CF0"/>
<stop offset="1" stop-color="#685ED7"/>
</linearGradient>
<linearGradient id="paint16_linear_901_1733" x1="78.8913" y1="20.4047" x2="82.8125" y2="20.4047" gradientUnits="userSpaceOnUse">
<stop stop-color="#3478FF"/>
<stop offset="1" stop-color="#482EBD"/>
</linearGradient>
<radialGradient id="paint17_radial_901_1733" cx="0" cy="0" r="1" gradientUnits="userSpaceOnUse" gradientTransform="translate(78.3058 5.96191) scale(10.3931 10.4222)">
<stop stop-color="#FBD15B"/>
<stop offset="1" stop-color="#FE9373"/>
</radialGradient>
<linearGradient id="paint18_linear_901_1733" x1="77.3281" y1="17.315" x2="84.3757" y2="17.315" gradientUnits="userSpaceOnUse">
<stop stop-color="#3478FF"/>
<stop offset="1" stop-color="#482EBD"/>
</linearGradient>
<linearGradient id="paint19_linear_901_1733" x1="77.1915" y1="17.1556" x2="84.5123" y2="17.1556" gradientUnits="userSpaceOnUse">
<stop stop-color="#435DF1"/>
<stop offset="0.327" stop-color="#4333F1"/>
<stop offset="1" stop-color="#4C008C"/>
</linearGradient>
<linearGradient id="paint20_linear_901_1733" x1="30.693" y1="61.8128" x2="41.5486" y2="80.5629" gradientUnits="userSpaceOnUse">
<stop stop-color="#FBD15B"/>
<stop offset="1" stop-color="#FE9373"/>
</linearGradient>
<clipPath id="clip0_901_1733">
<rect width="102" height="83" fill="white"/>
</clipPath>
</defs>
</svg>
