<svg width="91" height="78" viewBox="0 0 91 78" fill="none" xmlns="http://www.w3.org/2000/svg">
<path fill-rule="evenodd" clip-rule="evenodd" d="M38.5771 62.5794C38.2138 70.494 37.2451 72.4919 30.5579 77.0051H45.3799H60.2019C53.5147 72.4974 52.5515 70.494 52.1827 62.5794L45.3799 61.9354L38.5771 62.5794Z" fill="#506DFD"/>
<path fill-rule="evenodd" clip-rule="evenodd" d="M5.7848 0H85.4869C88.3434 0 90.6826 2.60335 90.6826 5.78461V56.9544V57.692C90.6826 60.8732 88.3434 63.4766 85.4869 63.4766H5.7848C2.92827 63.4766 0.589111 60.8732 0.589111 57.692V56.9544V53.8888V5.78461C0.589111 2.60335 2.92827 0 5.7848 0Z" fill="#506DFD"/>
<path d="M3.15393 3.01614H88.0132C88.0462 3.01614 88.0792 3.04917 88.0792 3.08769V53.8888H3.09338V3.08769C3.09338 3.04917 3.1209 3.01614 3.15393 3.01614Z" fill="white"/>
<path d="M88.0792 44.0478H3.09338V53.8888H88.0792V44.0478Z" fill="#EFEEFF"/>
<path d="M52.4139 63.471H38.3404V65.9808H52.4139V63.471Z" fill="#292466"/>
<path d="M52.4139 63.471H38.3404V65.9808H52.4139V63.471Z" stroke="#4C018E" stroke-width="0.216" stroke-miterlimit="22.9256"/>
<path d="M71.0666 46.2658H5.69122V46.3759H71.0666V46.2658Z" fill="#A79FFF"/>
<path d="M71.0666 50.9332H5.69122V51.0432H71.0666V50.9332Z" fill="#A79FFF"/>
<path d="M73.8351 50.746C74.7102 50.6635 75.6074 49.9535 75.6129 49.948L75.767 50.1186C75.7615 50.1186 74.8038 50.8836 73.8351 50.9662V50.746ZM5.72977 51.3239C5.74077 51.3019 8.5918 44.1468 10.6172 45.4072C11.4648 45.9356 12.0593 46.5741 12.5601 47.1079C13.1655 47.7574 13.6169 48.2418 14.1783 48.1482C14.7452 48.0546 15.4221 47.9611 16.0936 48.0216C16.7761 48.0766 17.4476 48.2858 17.9925 48.7921C18.3722 49.1499 18.6089 49.4966 18.8346 49.8269C19.2143 50.3938 19.5666 50.9111 20.6013 51.3129C21.5865 51.6982 22.5717 49.6232 23.3918 47.884C23.8376 46.9428 24.2394 46.1007 24.5917 45.754C24.6137 45.732 24.6302 45.7155 24.6522 45.6934C25.1586 45.2311 25.7034 45.055 26.2318 45.088C26.7602 45.121 27.2611 45.3632 27.6904 45.743C27.7124 45.765 27.7344 45.7815 27.7564 45.8035C28.2352 46.2548 29.27 46.9648 30.3928 47.4877C31.2074 47.862 32.0605 48.1372 32.7815 48.1372C34.0364 48.1372 34.8014 49.3645 35.4123 50.3442C35.693 50.7956 35.9407 51.1918 36.1774 51.3735L36.2159 51.401C36.9699 51.9789 38.1037 52.8485 38.8963 52.4908C39.2265 52.3422 39.8045 51.6762 40.4759 50.9001C41.4887 49.7333 42.7105 48.3243 43.7342 47.9555C44.5708 47.6528 45.6771 46.8878 46.6568 46.2163C47.6145 45.5558 48.4456 44.9779 48.8419 44.9779C49.3868 44.9779 50.9003 46.4365 52.1387 47.6308C52.7221 48.1922 53.245 48.6986 53.5587 48.9518C53.8394 49.1774 54.2027 49.5077 54.5935 49.8654C55.5621 50.7515 56.7125 51.8028 57.1308 51.7312C57.428 51.6762 58.193 51.0928 58.9911 50.3883C59.8717 49.6122 60.7743 48.6931 61.1156 48.1867C61.4568 47.6859 61.9907 46.9098 62.8163 46.3429C63.6474 45.7705 64.7537 45.4293 66.2232 45.8145C66.2948 45.8365 66.3718 45.8531 66.4434 45.8751V46.1117C66.3498 46.0842 66.2507 46.0512 66.1572 46.0292C64.7812 45.6659 63.741 45.9907 62.9649 46.5245C62.1778 47.0639 61.655 47.8235 61.3247 48.3078C60.9725 48.8307 60.0533 49.7608 59.1617 50.5534C58.3361 51.2799 57.527 51.8908 57.1803 51.9514C56.6354 52.0505 55.4356 50.9497 54.4283 50.025C54.0431 49.6728 53.6798 49.3425 53.4101 49.1224C53.0854 48.8637 52.5625 48.3573 51.9736 47.7904C50.7682 46.6291 49.2932 45.2036 48.8529 45.2036C48.5337 45.2036 47.7301 45.7595 46.8109 46.3979C45.8202 47.0804 44.7029 47.8565 43.8333 48.1702C42.8701 48.5169 41.6703 49.8984 40.6796 51.0432C39.9916 51.8413 39.3972 52.5238 39.0174 52.6944C38.0817 53.1182 36.8764 52.1936 36.0783 51.5771L36.0398 51.5496C35.7701 51.346 35.5114 50.9277 35.2197 50.4598C34.6363 49.5242 33.9098 48.3628 32.798 48.3628C32.0384 48.3628 31.1468 48.0766 30.3047 47.6859C29.1544 47.152 28.0976 46.4255 27.6023 45.9631C27.5803 45.9466 27.5638 45.9246 27.5418 45.9081C27.151 45.5613 26.6997 45.3412 26.2318 45.3137C25.7695 45.2862 25.2907 45.4458 24.8393 45.8531C24.8228 45.8696 24.8008 45.8861 24.7843 45.9081C24.4596 46.2218 24.0688 47.0474 23.634 47.9721C22.7699 49.7994 21.7351 51.9844 20.5298 51.5166C19.4235 51.0873 19.0547 50.5424 18.6529 49.9425C18.4383 49.6232 18.2071 49.2875 17.8494 48.9463C17.354 48.4839 16.7321 48.2913 16.1046 48.2418C15.4607 48.1867 14.8057 48.2748 14.2498 48.3683C13.5508 48.4839 13.061 47.9555 12.406 47.251C11.9162 46.7282 11.3327 46.1007 10.5127 45.5889C8.74591 44.4881 5.99395 51.3735 5.98295 51.3955L5.72977 51.3239Z" fill="#F4B1B1"/>
<path fill-rule="evenodd" clip-rule="evenodd" d="M6.24164 4.93149H27.3051C27.7179 4.93149 28.0591 5.26723 28.0591 5.68552C28.0591 6.09832 27.7234 6.43956 27.3051 6.43956H6.24164C5.82885 6.43956 5.48761 6.10382 5.48761 5.68552C5.49311 5.27273 5.82885 4.93149 6.24164 4.93149Z" fill="#FFA73B"/>
<path fill-rule="evenodd" clip-rule="evenodd" d="M6.24165 8.22284H16.7211C17.1339 8.22284 17.4751 8.55858 17.4751 8.97688C17.4751 9.38967 17.1394 9.73091 16.7211 9.73091H6.24165C5.82885 9.73091 5.48761 9.39517 5.48761 8.97688C5.49311 8.56408 5.82885 8.22284 6.24165 8.22284Z" fill="#FFA73B"/>
<path d="M24.3605 20.436H21.8397V31.7025H24.3605V20.436Z" fill="#7366FF"/>
<path d="M23.2377 18.7023H22.9625V33.4418H23.2377V18.7023Z" fill="#7366FF"/>
<path d="M27.9931 15.0147H25.4723V18.3996H27.9931V15.0147Z" fill="#7366FF"/>
<path d="M26.8758 12.7746H26.6006V22.6156H26.8758V12.7746Z" fill="#7366FF"/>
<path d="M45.3469 20.3534H42.8261V31.6199H45.3469V20.3534Z" fill="#7366FF"/>
<path d="M44.2296 18.6142H43.9544V33.3537H44.2296V18.6142Z" fill="#7366FF"/>
<path d="M48.985 14.5248H46.4642V20.2874H48.985V14.5248Z" fill="#7366FF"/>
<path d="M47.8677 14.5248H47.5925V22.6651H47.8677V14.5248Z" fill="#7366FF"/>
<path d="M53.179 12.3563H50.6582V15.0587H53.179V12.3563Z" fill="#7366FF"/>
<path d="M52.0561 9.38416H51.7809V19.5334H52.0561V9.38416Z" fill="#7366FF"/>
<path d="M65.992 15.1577H63.4713V19.3902H65.992V15.1577Z" fill="#7366FF"/>
<path d="M64.8693 13.8533H64.5941V21.102H64.8693V13.8533Z" fill="#7366FF"/>
<path d="M10.0173 27.2553H7.49652V38.5218H10.0173V27.2553Z" fill="#7366FF"/>
<path d="M8.89452 22.2633H8.61932V39.3254H8.89452V22.2633Z" fill="#7366FF"/>
<path fill-rule="evenodd" clip-rule="evenodd" d="M56.2446 15.8788H56.5198V16.4017H57.6426V19.7866H56.5198V20.3094H56.2446V19.7866H55.1218V16.4017H56.2446V15.8788ZM60.4551 17.1942H60.7303V19.6765H61.8531V25.7638H60.7303V28.2461H60.4551V25.7638H59.3323V19.6765H60.4551V17.1942ZM30.8111 19.0435H31.0863V19.9792H32.2091V26.0665H31.0808V27.0077H30.8056V26.0665H29.6828V19.9792H30.8056V19.0435H30.8111ZM35.1812 24.8336H35.4564V25.7638H36.5792V31.7741H35.4564V32.6987H35.1812V31.7741H34.0584V25.7638H35.1812V24.8336ZM39.3972 25.7803H39.6724V31.0861H40.7952V37.7073H39.6668V38.6485H39.3917V37.7073H38.2689V31.0861H39.3917V25.7803H39.3972ZM14.3324 26.1986H14.6076V27.1398H15.7304V33.2271H14.6076V34.1683H14.3324V33.2271H13.2096V27.1398H14.3324V26.1986ZM18.7025 30.7118H18.9777V32.5171H20.1005V35.902H18.9722V37.7018H18.697V35.8965H17.5742V32.5116H18.697V30.7118H18.7025ZM67.8138 23.3641H68.9366V20.8818H69.2118V23.3641H70.3346V29.4514H69.2118V31.9337H68.9366V29.4514H67.8138V23.3641Z" fill="#F6597B"/>
<path fill-rule="evenodd" clip-rule="evenodd" d="M39.4797 39.5236L40.531 41.6371H38.423L39.4797 39.5236Z" fill="#F79646"/>
<path fill-rule="evenodd" clip-rule="evenodd" d="M51.9131 7.60092L50.9389 5.64703H52.8872L51.9131 7.60092Z" fill="#71BDF8"/>
<path fill-rule="evenodd" clip-rule="evenodd" d="M64.6271 12.8351L63.6529 10.8812H65.6013L64.6271 12.8351Z" fill="#71BDF8"/>
<path fill-rule="evenodd" clip-rule="evenodd" d="M18.9666 38.808L20.0179 40.916H17.9099L18.9666 38.808Z" fill="#F79646"/>
<path fill-rule="evenodd" clip-rule="evenodd" d="M60.5101 29.9413L61.5614 32.0493H59.4534L60.5101 29.9413Z" fill="#F79646"/>
<path d="M88.0792 3.08771H72.7784V53.8888H88.0792V3.08771Z" fill="#EFEEFF"/>
<path fill-rule="evenodd" clip-rule="evenodd" d="M85.0961 36.5955C85.0961 39.2043 82.9826 41.3178 80.3738 41.3178C77.7649 41.3178 75.6514 39.2043 75.6514 36.5955C75.6514 33.9866 77.7649 31.8731 80.3738 31.8731V33.9921C78.9373 33.9921 77.7704 35.159 77.7704 36.5955C77.7704 38.032 78.9373 39.1988 80.3738 39.1988C81.8103 39.1988 82.9771 38.032 82.9771 36.5955H85.0961Z" fill="#A79FFF"/>
<path fill-rule="evenodd" clip-rule="evenodd" d="M80.9241 31.5649C83.3789 31.664 85.3548 33.6344 85.4483 36.0891H83.3293C83.2358 34.8012 82.2065 33.7775 80.9241 33.6839V31.5649Z" fill="#F4B1B1"/>
<path fill-rule="evenodd" clip-rule="evenodd" d="M75.767 48.9903H78.8217C79.4932 48.9903 80.0435 49.5407 80.0435 50.2122C80.0435 50.8836 79.4932 51.434 78.8217 51.434H75.767C75.0955 51.434 74.5451 50.8836 74.5451 50.2122C74.5506 49.5407 75.0955 48.9903 75.767 48.9903Z" fill="#7366FF"/>
<path fill-rule="evenodd" clip-rule="evenodd" d="M82.2286 48.9903H85.2833C85.9547 48.9903 86.5051 49.5407 86.5051 50.2122C86.5051 50.8836 85.9547 51.434 85.2833 51.434H82.2286C81.5571 51.434 81.0067 50.8836 81.0067 50.2122C81.0067 49.5407 81.5571 48.9903 82.2286 48.9903Z" fill="#F6597B"/>
<path d="M86.3345 44.0478H74.5451V46.8823H86.3345V44.0478Z" fill="#6494D0"/>
<path d="M80.4398 44.0478H74.5451V46.8823H80.4398V44.0478Z" fill="#A79FFF"/>
<path fill-rule="evenodd" clip-rule="evenodd" d="M75.9541 6.03781H82.168C82.5808 6.03781 82.9221 6.37355 82.9221 6.79185C82.9221 7.20464 82.5863 7.54588 82.168 7.54588H75.9541C75.5413 7.54588 75.2001 7.21014 75.2001 6.79185C75.2056 6.37355 75.5413 6.03781 75.9541 6.03781Z" fill="#FFA73B"/>
<path fill-rule="evenodd" clip-rule="evenodd" d="M75.9541 9.32913H78.552C78.9648 9.32913 79.306 9.66487 79.306 10.0832C79.306 10.496 78.9703 10.8372 78.552 10.8372H75.9541C75.5413 10.8372 75.2001 10.5015 75.2001 10.0832C75.2056 9.66487 75.5413 9.32913 75.9541 9.32913Z" fill="#FFA73B"/>
<path fill-rule="evenodd" clip-rule="evenodd" d="M80.7976 9.32913H85.2722C85.685 9.32913 86.0263 9.66487 86.0263 10.0832C86.0263 10.496 85.6905 10.8372 85.2722 10.8372H80.7976C80.3848 10.8372 80.0435 10.5015 80.0435 10.0832C80.049 9.66487 80.3848 9.32913 80.7976 9.32913Z" fill="#FFA73B"/>
<path fill-rule="evenodd" clip-rule="evenodd" d="M75.9541 12.637H78.552C78.9648 12.637 79.306 12.9727 79.306 13.391C79.306 13.8038 78.9703 14.145 78.552 14.145H75.9541C75.5413 14.145 75.2001 13.8093 75.2001 13.391C75.2056 12.9782 75.5413 12.637 75.9541 12.637Z" fill="#FFA73B"/>
<path fill-rule="evenodd" clip-rule="evenodd" d="M80.7976 12.637H85.2722C85.685 12.637 86.0263 12.9727 86.0263 13.391C86.0263 13.8038 85.6905 14.145 85.2722 14.145H80.7976C80.3848 14.145 80.0435 13.8093 80.0435 13.391C80.049 12.9782 80.3848 12.637 80.7976 12.637Z" fill="#FFA73B"/>
<path d="M78.3483 17.0786H75.4092V18.1354H78.3483V17.0786Z" fill="#7366FF"/>
<path d="M80.8031 18.6142H75.4092V19.671H80.8031V18.6142Z" fill="#7366FF"/>
<path d="M83.3294 20.1498H75.4092V21.2066H83.3294V20.1498Z" fill="#7366FF"/>
<path d="M85.3933 21.6854H75.4092V22.7422H85.3933V21.6854Z" fill="#7366FF"/>
<path d="M81.9534 23.221H75.4092V24.2777H81.9534V23.221Z" fill="#F6597B"/>
<path d="M84.2155 24.7566H75.4092V25.8133H84.2155V24.7566Z" fill="#F6597B"/>
<path d="M85.0906 26.2921H75.4092V27.3489H85.0906V26.2921Z" fill="#F6597B"/>
<path d="M86.0483 27.8223H75.4092V28.879H86.0483V27.8223Z" fill="#F6597B"/>
<path d="M72.4591 55.2097C72.4261 55.4959 72.316 55.628 72.3821 55.9032C72.4316 56.1068 72.4756 56.5031 72.4591 56.7123C72.4481 56.8774 72.3435 57.4553 72.0628 57.4443C72.0298 57.4443 72.0078 57.4333 71.9858 57.4058C71.9307 57.5324 71.7381 57.4168 71.6721 57.3727C71.606 57.4883 71.3914 57.4058 71.3308 57.3287C71.2483 57.5268 70.8685 57.2792 70.7529 56.971C70.5988 56.8223 70.6208 56.36 70.6593 56.1949C70.6483 56.1894 70.6979 56.0903 70.7639 55.9692C70.8795 55.7491 71.0611 55.4464 71.0887 55.3858C71.1657 55.2427 71.2813 55.1216 71.2758 54.951L72.4591 55.2097Z" fill="#F3ADBE"/>
<path fill-rule="evenodd" clip-rule="evenodd" d="M66.9497 44.0092C66.559 43.1892 66.8617 41.5875 67.6928 41.2298C67.9129 41.1362 68.5349 40.8335 68.9422 41.0647C70.3732 41.8682 72.3601 46.9593 72.5802 48.8362C72.7619 50.3718 72.982 54.1144 72.4206 56.1344C72.2995 56.5692 71.7436 56.3325 71.5455 56.2169C71.0557 56.0463 71.0612 52.6889 70.087 49.4086C69.2834 46.6952 67.302 44.7468 66.9497 44.0092Z" fill="#FF3364"/>
<path fill-rule="evenodd" clip-rule="evenodd" d="M54.7366 44.6972L54.3788 44.2569L54.1476 43.0571C54.1586 42.9085 54.0376 42.0168 53.8504 42.3361C53.7183 42.5617 53.5862 43.1506 53.5587 43.1506C53.0414 42.4516 52.2323 41.7361 52.1993 41.7306C51.7699 41.6536 52.4194 42.5837 52.513 42.7433C52.557 42.8204 52.2543 42.4847 52.2103 42.8809C52.1993 43.002 52.2763 42.9965 52.3258 43.1396C52.3589 43.2277 52.1277 42.892 52.0892 43.2057C52.0617 43.4148 52.1222 43.4148 52.1717 43.5359C52.1882 43.5689 52.0947 43.4919 52.0396 43.5194C51.9956 43.5414 51.9736 43.657 52.0231 43.7341C52.5955 44.7193 53.0303 44.312 53.6633 45.5669C54.0321 46.2824 54.72 44.9999 54.7366 44.6972Z" fill="#F3ADBE"/>
<path fill-rule="evenodd" clip-rule="evenodd" d="M59.9268 53.3108C58.7324 55.4023 61.3027 67.2743 61.743 74.4789L61.6715 74.4734C61.6715 74.4734 61.6165 75.0953 61.1376 75.354C60.6588 75.6127 58.903 75.8273 58.6223 76.097C58.4187 76.2897 58.0774 77.0767 60.8679 76.9997C62.8493 76.9501 63.807 77.1152 64.0162 76.796C64.1813 76.5483 64.1207 75.332 64.0877 74.7871H64.0987C64.3574 69.8666 63.84 65.3204 64.8032 59.5303C65.5628 62.9317 66.4269 66.1405 66.9332 67.9402C67.2359 69.0245 68.788 74.2257 68.6394 75.299C68.6064 75.5356 67.4836 75.6457 67.0103 76.0255C66.8121 76.2126 66.4434 77.0052 68.3642 76.9887C70.2851 76.9721 71.2098 77.1042 71.4189 76.7905C71.6116 76.4988 70.4007 68.0008 70.2906 66.856C69.7953 61.8034 69.6412 56.2169 68.9752 52.9256C68.6339 39.1988 61.3413 42.7378 61.9962 51.0487C62.0733 51.9899 60.2515 52.0174 59.9268 53.3108Z" fill="#1B326B"/>
<path d="M65.7004 34.3774C65.7004 34.3774 63.8015 33.6674 62.9319 35.1149C62.7117 35.4782 62.3705 35.5332 62.376 36.0231C62.376 36.1882 62.376 36.5515 62.321 36.8652C62.2769 37.1239 62.0733 37.5146 62.0293 37.7238C61.9742 37.988 62.3705 38.1256 62.376 38.2412C62.442 39.1603 62.4971 39.6006 62.9209 39.7547C63.9886 39.9033 65.4857 39.9694 65.9756 39.0667C66.4654 38.1641 66.9057 36.8597 66.8837 35.9846C66.8672 35.1094 66.1957 34.6251 65.7004 34.3774Z" fill="#F3ADBE"/>
<path d="M63.4107 39.7107C63.4107 39.7107 63.4878 40.2061 63.3612 40.4537C63.2346 40.7014 65.7444 40.7069 65.7444 40.7069C65.7444 40.7069 65.948 39.375 66.3333 38.2522C66.7241 37.1239 63.4107 39.7107 63.4107 39.7107Z" fill="#F3ADBE"/>
<path fill-rule="evenodd" clip-rule="evenodd" d="M65.3316 39.4685C64.8638 39.3309 64.418 39.1878 64.0272 38.7585C63.8896 38.6044 63.6639 37.289 63.5869 37.2615C63.2897 37.1569 63.1521 38.1751 63.1521 38.1751C63.108 38.1201 62.9539 38.076 62.9154 37.9109C62.8989 37.8339 62.9979 37.4156 62.9319 37.311C62.8824 37.2339 62.5631 36.9532 62.4916 36.8542C61.9192 36.0066 61.2697 35.0929 62.0403 34.438C62.0733 34.4104 62.2824 34.2618 62.5301 34.2563C62.8714 34.2508 63.1355 34.1297 63.2731 34.0637C65.139 33.1831 68.7991 34.5315 66.8727 38.3017C66.603 38.8356 65.7774 39.4245 65.3316 39.4685Z" fill="#1B326B"/>
<path d="M63.2126 40.4207C63.2126 40.4207 63.2181 39.9529 63.4327 39.9089C63.6474 39.8648 65.9095 39.7162 66.1682 39.8208L66.1957 40.4152C66.2012 40.4152 65.5352 40.6189 63.2126 40.4207Z" fill="#D1F2FF"/>
<path d="M63.3062 37.5587C63.3447 37.3936 63.752 36.7111 63.9171 37.2229C64.0767 37.7293 63.6749 38.4173 63.4438 38.3567C63.2181 38.2962 63.2016 37.977 63.3062 37.5587Z" fill="#F3ADBE"/>
<path fill-rule="evenodd" clip-rule="evenodd" d="M66.2232 40.2941C67.1974 40.2941 68.5844 40.5913 69.1678 41.2793C70.0099 42.2645 69.8008 54.3126 69.5476 55.8536C68.711 58.1543 61.7871 57.3782 59.624 56.1564L59.8112 42.1324C61.3578 39.7767 63.7795 40.2941 66.2232 40.2941Z" fill="#FF3364"/>
<path fill-rule="evenodd" clip-rule="evenodd" d="M58.6223 49.7333C57.428 50.3222 53.966 46.8052 53.6688 45.787C53.3716 44.7688 54.5604 44.1634 54.5604 44.1634C54.5604 44.1634 57.2518 46.3759 57.7142 46.2273C58.0609 46.1117 59.0351 43.1451 59.9488 41.9288C60.9174 41.0537 62.7778 46.9373 58.6223 49.7333Z" fill="#FF3364"/>
<path fill-rule="evenodd" clip-rule="evenodd" d="M45.6386 56.8113C46.4697 56.8113 47.1412 57.4828 47.1412 58.3139C47.1412 59.145 46.4697 59.8164 45.6386 59.8164C44.8075 59.8164 44.136 59.145 44.136 58.3139C44.136 57.4828 44.8075 56.8113 45.6386 56.8113Z" fill="#DDEAF8"/>
</svg>
