<svg width="94" height="96" viewBox="0 0 94 96" fill="none" xmlns="http://www.w3.org/2000/svg">
<path d="M10.8611 62.4785C10.8903 61.981 10.6093 61.5598 10.2336 61.5378C9.85783 61.5157 9.52955 61.9011 9.50035 62.3986C9.47116 62.8961 9.75209 63.3172 10.1278 63.3393C10.5036 63.3613 10.8319 62.9759 10.8611 62.4785Z" fill="#FF3364"/>
<path d="M12.5744 69.1155V72.0143C12.5744 72.0719 12.536 72.1199 12.4784 72.1295L9.11881 72.9742C9.04202 72.9934 8.96523 72.9358 8.96523 72.859V69.5571C8.96523 69.4995 9.01323 69.4419 9.07082 69.4323L12.4304 68.9907C12.5168 68.9811 12.5744 69.0387 12.5744 69.1155Z" fill="#34A853"/>
<path d="M9.1668 15.9672V18.3093C9.1668 18.3573 9.11881 18.4053 9.07082 18.3957L6.65193 18.1077C6.60394 18.0981 6.57514 18.0693 6.57514 18.0214V15.0553C6.57514 14.9977 6.63273 14.9498 6.69033 14.9785L9.10921 15.8904C9.14761 15.9 9.1668 15.9288 9.1668 15.9672Z" fill="#4285F4"/>
<path d="M68.1223 19.0292V22.1296L70.5604 22.7727V19.9027L68.1223 19.0292Z" fill="#FABB05"/>
<path d="M67.9591 41.6343H67.5752V28.4264L57.4389 25.2108L57.5541 24.8461L67.9591 28.148V41.6343Z" fill="#4285F4"/>
<path d="M0.38395 35.8942H0V8.81613C0 7.92345 0.441542 7.08836 1.17105 6.58922C1.91015 6.08049 2.84123 5.9749 3.67632 6.29166L12.0656 9.39206L11.9312 9.75681L3.54194 6.64681C2.81243 6.36845 2.03493 6.45484 1.39182 6.89638C0.748703 7.33792 0.38395 8.03863 0.38395 8.81613V35.8942Z" fill="#4285F4"/>
<path d="M2.69725 63.9705C2.07333 63.9705 1.45901 63.7498 0.969474 63.3466C0.355154 62.8283 0 62.0796 0 61.2733V36.5949H0.38395V61.2733C0.38395 61.9644 0.69111 62.6171 1.21904 63.0587C1.74697 63.5002 2.43808 63.6826 3.11959 63.5578L10.1363 62.2716L10.2035 62.6459L3.18678 63.9321C3.02361 63.9609 2.86043 63.9705 2.69725 63.9705Z" fill="#FF3364"/>
<path d="M68.6701 41.9185C68.6999 41.3096 68.2992 40.7951 67.775 40.7694C67.2508 40.7437 66.8017 41.2165 66.7718 41.8254C66.742 42.4344 67.1427 42.9488 67.6669 42.9745C68.1911 43.0002 68.6402 42.5274 68.6701 41.9185Z" fill="#34A853"/>
<path d="M67.7 43.8036C67.6712 43.8036 67.652 43.8036 67.6232 43.8036C67.172 43.7844 66.7497 43.554 66.4521 43.1701C66.1546 42.7861 66.0106 42.2966 66.0298 41.7879C66.0586 41.2791 66.2506 40.7992 66.5865 40.4536C66.9225 40.0985 67.3544 39.9161 67.8152 39.9353C68.7462 39.9833 69.4565 40.8856 69.399 41.951C69.3702 42.4598 69.1782 42.9397 68.8422 43.2853C68.5351 43.6212 68.1319 43.8036 67.7 43.8036ZM67.748 40.2137C67.4024 40.2137 67.0665 40.3672 66.8073 40.6456C66.5193 40.9432 66.3561 41.3559 66.337 41.7975C66.3178 42.239 66.4425 42.6614 66.6921 42.9877C66.9417 43.3045 67.2776 43.4964 67.652 43.506C68.0263 43.5252 68.3719 43.3717 68.6503 43.0837C68.9382 42.7861 69.1014 42.3734 69.1206 41.9318C69.1686 41.02 68.5735 40.2521 67.8056 40.2137C67.7864 40.2137 67.7672 40.2137 67.748 40.2137Z" fill="#4285F4"/>
<path d="M10.1075 65.7559C10.0691 65.7559 10.0307 65.7559 9.9923 65.7559C9.30119 65.7175 8.67727 65.324 8.23573 64.6617C7.80378 64.0089 7.58301 63.1643 7.6406 62.2908C7.74619 60.467 8.98443 59.0464 10.3858 59.1232C11.077 59.1616 11.7009 59.5551 12.1424 60.2174C12.5744 60.8701 12.7951 61.7148 12.7375 62.5883C12.632 64.3641 11.4609 65.7559 10.1075 65.7559ZM10.2611 59.4111C9.06122 59.4111 8.01496 60.6878 7.91897 62.31C7.87097 63.1259 8.06295 63.9034 8.4661 64.5081C8.85965 65.0936 9.40677 65.4392 10.0019 65.468C11.2497 65.5447 12.344 64.2393 12.44 62.5787C12.488 61.7628 12.296 60.9853 11.8929 60.3806C11.4993 59.7951 10.9522 59.4495 10.3571 59.4207C10.3283 59.4111 10.2899 59.4111 10.2611 59.4111Z" fill="#4285F4"/>
<path d="M70.2628 25.9403H69.8789V31.8915H70.2628V25.9403Z" fill="#4285F4"/>
<path d="M6.29678 28.9447L5.15452 28.8392C4.63619 28.772 4.18505 29.1751 4.18505 29.6934V51.7994C4.18505 52.2985 4.47301 52.7112 5.09693 52.6632L6.49835 52.4809L6.29678 28.9447Z" fill="#7366FF"/>
<path d="M18.1032 30.9317V50.7531C18.1032 51.1178 17.8249 51.4154 17.4697 51.4538L5.90322 52.548C5.49048 52.5864 5.13532 52.2601 5.13532 51.8473V29.5878C5.13532 29.1751 5.48088 28.8583 5.89362 28.8871L17.4697 30.231C17.8249 30.2598 18.1032 30.5669 18.1032 30.9317Z" fill="#DCE1FE"/>
<path d="M6.8631 33.4273V34.416L11.6625 34.608V33.6193L6.8631 33.4273Z" fill="white"/>
<path d="M6.8631 36.115V37.1037L16.3659 37.2956V36.307L6.8631 36.115Z" fill="white"/>
<path d="M6.8631 38.8986V39.8873L16.3659 39.7913V38.8026L6.8631 38.8986Z" fill="white"/>
<path d="M22.5762 30.7397L21.4628 30.5669C20.954 30.4805 20.4933 30.8741 20.4933 31.3924V49.9948C20.4933 50.5131 20.954 50.9066 21.4628 50.8203L22.5762 50.6475V30.7397Z" fill="#7366FF"/>
<path d="M21.4532 50.1484V31.2292C21.4532 30.8933 21.7411 30.6437 22.0771 30.6821L36.504 32.3715C36.7824 32.4003 36.9936 32.6402 36.9936 32.9186V48.7277C36.9936 49.0061 36.7824 49.2461 36.504 49.2749L22.0771 50.6955C21.7411 50.7339 21.4532 50.4747 21.4532 50.1484Z" fill="#DCE1FE"/>
<path d="M23.9393 36.4125V47.739C23.9393 48.075 24.2272 48.3438 24.5632 48.315L34.4019 47.4319C34.6995 47.4031 34.9202 47.1535 34.9202 46.856V37.142C34.9202 36.8349 34.6803 36.5853 34.3731 36.5661L24.5344 35.8366C24.208 35.827 23.9393 36.0862 23.9393 36.4125Z" fill="#F7F7F7"/>
<path d="M25.1007 47.1535V41.2983L27.5964 39.5705L29.2282 41.4903L30.86 40.7224L32.3958 42.0662L34.1235 40.7224V46.4816L25.1007 47.1535Z" fill="#DCE1FE"/>
<path d="M27.5964 39.9545H27.4044V46.9232H27.5964V39.9545Z" fill="#F7F7F7"/>
<path d="M29.3242 41.6823H29.1322V46.8272H29.3242V41.6823Z" fill="#F7F7F7"/>
<path d="M32.3958 42.191L30.8408 40.828L29.1994 41.6055L27.5772 39.6953L25.1583 41.3751L25.0431 41.2119L27.6156 39.4362L29.257 41.3655L30.8792 40.6072L32.3958 41.9414L34.0659 40.6456L34.1811 40.7896L32.3958 42.191Z" fill="#DF382B"/>
<path d="M27.5196 40.3384C27.7422 40.3384 27.9227 40.1021 27.9227 39.8105C27.9227 39.5189 27.7422 39.2826 27.5196 39.2826C27.2969 39.2826 27.1164 39.5189 27.1164 39.8105C27.1164 40.1021 27.2969 40.3384 27.5196 40.3384Z" fill="#4285F4"/>
<path d="M30.9559 40.9144H30.764V46.7216H30.9559V40.9144Z" fill="#F7F7F7"/>
<path d="M32.4917 42.2582H32.2998V46.5968H32.4917V42.2582Z" fill="#F7F7F7"/>
<path d="M29.2474 41.7782C29.47 41.7782 29.6505 41.5419 29.6505 41.2503C29.6505 40.9587 29.47 40.7224 29.2474 40.7224C29.0247 40.7224 28.8442 40.9587 28.8442 41.2503C28.8442 41.5419 29.0247 41.7782 29.2474 41.7782Z" fill="#4285F4"/>
<path d="M30.8792 41.3943C31.1018 41.3943 31.2823 41.1579 31.2823 40.8663C31.2823 40.5748 31.1018 40.3384 30.8792 40.3384C30.6565 40.3384 30.476 40.5748 30.476 40.8663C30.476 41.1579 30.6565 41.3943 30.8792 41.3943Z" fill="#4285F4"/>
<path d="M32.415 42.3542C32.6376 42.3542 32.8181 42.1178 32.8181 41.8262C32.8181 41.5347 32.6376 41.2983 32.415 41.2983C32.1923 41.2983 32.0118 41.5347 32.0118 41.8262C32.0118 42.1178 32.1923 42.3542 32.415 42.3542Z" fill="#4285F4"/>
<path d="M23.9489 34.0032V34.5792L29.8041 35.1551V34.5792L23.9489 34.0032Z" fill="#F7F7F7"/>
<path d="M23.9489 32.6594V33.2353L27.5004 33.6193V33.0434L23.9489 32.6594Z" fill="#F7F7F7"/>
<path d="M13.947 25.7099L12.5647 25.4988C12.2192 25.4412 11.9696 25.1436 11.9696 24.798V1.50188C11.9696 0.993149 12.4976 0.647595 12.9679 0.849168L13.9662 1.14673L13.947 25.7099Z" fill="#7366FF"/>
<path d="M34.0947 9.19046V28.2536C34.0947 28.6759 33.73 28.9927 33.3172 28.9447L13.6398 25.6715C13.2847 25.6331 13.0255 25.3356 13.0255 24.9804V1.78983C13.0255 1.30029 13.515 0.964333 13.9662 1.13711L33.6436 8.54735C33.9124 8.64333 34.0947 8.9025 34.0947 9.19046Z" fill="#DCE1FE"/>
<path d="M16.5194 5.62935L31.0903 10.3135C31.4071 10.4191 31.6279 10.7167 31.6279 11.0526V24.9228C31.6279 25.4028 31.1959 25.7675 30.716 25.6907L16.1451 22.8879C15.7707 22.8207 15.502 22.5039 15.502 22.12V6.36845C15.502 5.84052 16.0107 5.46617 16.5194 5.62935Z" fill="#F7F7F7"/>
<path d="M29.0554 13.2508C29.0074 13.1932 28.9498 13.1548 28.873 13.1356L19.1591 9.82401C18.8903 9.72802 18.564 9.91999 18.564 10.2368V15.8616C18.564 16.0728 18.7176 16.2552 18.9287 16.2936L28.7003 18.5973C28.969 18.6453 29.2282 18.4341 29.2282 18.1653V13.6059C29.2186 13.4523 29.1514 13.3275 29.0554 13.2508ZM24.7936 14.4218C24.4288 14.5178 24.1025 14.4986 23.8529 14.2586L19.7734 10.4479L28.2587 13.3467L24.7936 14.4218Z" fill="#FFA73B"/>
<path d="M29.2186 19.9699V20.7954L18.564 18.4053V17.5798L29.2186 19.9699Z" fill="#E5E5E5"/>
<path d="M29.2186 21.7937V22.6191L18.564 20.2291V19.4036L29.2186 21.7937Z" fill="#E5E5E5"/>
<path d="M41.6106 33.1586L39.8348 32.957C39.3837 32.9186 38.9997 33.2641 38.9997 33.7153V48.2286C38.9997 48.6797 39.3933 49.0349 39.8348 48.9869L40.9387 48.8717L41.6106 33.1586Z" fill="#7366FF"/>
<path d="M61.528 35.6446V46.4432C61.528 46.7408 61.2976 46.9808 61.0097 47L40.5547 48.9101C40.238 48.9293 39.9692 48.6797 39.9692 48.3534V33.5905C39.9692 33.2737 40.238 33.0242 40.5547 33.0338L61.0097 35.0879C61.2976 35.1071 61.528 35.3471 61.528 35.6446Z" fill="#DCE1FE"/>
<path d="M61.528 35.6446V36.6429L39.9596 35.1551V33.5905C39.9596 33.2737 40.2284 33.0242 40.5451 33.0338L61.0001 35.0879C61.2976 35.1071 61.528 35.3471 61.528 35.6446Z" fill="#DCE1FE"/>
<path d="M48.7617 41.6343C48.7617 42.2678 48.6465 42.8629 48.4353 43.3716C48.013 44.4563 47.1971 45.1858 46.266 45.1858C45.3637 45.1858 44.5766 44.5043 44.1447 43.4964C43.9143 42.9589 43.7703 42.3158 43.7703 41.6343C43.7703 39.6761 44.8838 38.0827 46.266 38.0827C47.6482 38.0827 48.7617 39.6665 48.7617 41.6343Z" fill="#7366FF"/>
<path d="M46.8323 41.759C46.9187 41.6631 46.9859 41.5479 47.0339 41.4135C47.1011 41.2407 47.1395 41.0487 47.1395 40.8376C47.1395 40.1849 46.7651 39.6569 46.314 39.6569C45.8533 39.6569 45.4885 40.1849 45.4885 40.8376C45.4885 41.0679 45.5365 41.2695 45.6133 41.4519C45.6613 41.5671 45.7285 41.6631 45.7957 41.7495C45.0854 41.9606 44.4806 42.6037 44.1351 43.4868C44.5766 44.5043 45.3637 45.1762 46.2564 45.1762C47.1875 45.1762 48.0034 44.4467 48.4257 43.362C48.0898 42.5557 47.5138 41.9606 46.8323 41.759Z" fill="white"/>
<path d="M50.1535 39.9545L55.8167 40.0505V40.7224H50.1535V39.9545Z" fill="white"/>
<path d="M50.1535 41.9702L58.3124 41.7783V42.3542L50.1535 42.7381V41.9702Z" fill="white"/>
<path d="M18.7943 54.439L17.7577 54.5542C17.4217 54.631 17.1914 54.9189 17.1914 55.2645V68.8275C17.1914 69.2883 17.6233 69.6338 18.0744 69.5378L18.7751 69.4034L18.7943 54.439Z" fill="#CBD8EC"/>
<path d="M33.3077 53.124V65.3624C33.3077 65.5928 33.1445 65.8039 32.9237 65.8615L18.7463 69.4035C18.42 69.4802 18.1128 69.2403 18.1128 68.9043V54.9765C18.1128 54.7174 18.3048 54.5062 18.5544 54.4678L32.7317 52.6153C33.0389 52.5769 33.3077 52.8168 33.3077 53.124Z" fill="#DCE1FE"/>
<path d="M29.4298 58.2113V59.6607C29.4298 59.8431 29.2954 60.0062 29.113 60.035L25.3887 60.7454L25.0047 60.8221L23.277 61.1485L22.797 61.2445L22.4899 61.3021C22.2499 61.3501 22.0387 61.1677 22.0387 60.9277V59.4783C22.0387 59.2959 22.1731 59.1328 22.3555 59.104L22.8066 59.0176L23.2866 58.9216L25.0143 58.5952L25.3983 58.5184L28.9786 57.8369C29.209 57.7889 29.4298 57.9713 29.4298 58.2113Z" fill="white"/>
<path d="M29.4298 61.7149V63.1643C29.4298 63.3466 29.305 63.5002 29.1322 63.5386L28.2683 63.7306L26.5405 64.1145L25.3887 64.3737L22.797 64.9496L22.4995 65.0168C22.2595 65.0744 22.0291 64.892 22.0291 64.6425V63.2027C22.0291 63.0203 22.1539 62.8667 22.3267 62.8283L22.7874 62.7227L25.3791 62.1468L26.5309 61.8876L28.2587 61.5037L28.9498 61.3501C29.1994 61.2829 29.4298 61.4653 29.4298 61.7149Z" fill="white"/>
<path d="M33.3077 53.124V54.7078L18.1032 57.2035V54.9669C18.1032 54.7078 18.2952 54.4966 18.5448 54.4582L32.7317 52.6153C33.0389 52.5769 33.3077 52.8168 33.3077 53.124Z" fill="#CBD8EC"/>
<path d="M25.0047 58.5856V60.8221L23.277 61.1485V58.912L25.0047 58.5856Z" fill="#DF382B"/>
<path d="M28.2683 61.4941V63.721L26.5405 64.1049V61.878L28.2683 61.4941Z" fill="#34A853"/>
<path d="M36.9456 51.8953L35.7458 51.9913C35.4194 52.0201 35.1698 52.2985 35.1698 52.6248V73.9724C35.1698 74.4044 35.5634 74.6923 36.0049 74.5868L36.936 74.3564L36.9456 51.8953Z" fill="#CBD8EC"/>
<path d="M61.4896 49.8316V66.7446C61.4896 66.9942 61.3264 67.2149 61.0864 67.2821L36.84 74.3948C36.4848 74.5004 36.1201 74.2316 36.1201 73.8573V52.4809C36.1201 52.1929 36.3409 51.9433 36.6384 51.9241L60.8849 49.2749C61.2112 49.2557 61.4896 49.5052 61.4896 49.8316Z" fill="#DCE1FE"/>
<path d="M38.8077 56.6371L50.5374 55.0629V67.7908L38.8077 71.0064V56.6371Z" fill="white"/>
<path d="M53.7626 55.7348C53.7242 56.1668 53.4362 56.4931 53.1195 56.4643C52.8027 56.4355 52.5723 56.0612 52.6107 55.6292C52.6491 55.1973 52.9371 54.8709 53.2539 54.8997C53.5706 54.9285 53.801 55.3029 53.7626 55.7348Z" fill="#DF382B"/>
<path d="M55.0393 54.8613V56.0132L59.4163 55.4373V54.2758L55.0393 54.8613Z" fill="white"/>
<path d="M53.7626 58.96C53.7242 59.3919 53.4362 59.7183 53.1195 59.6895C52.8027 59.6607 52.5723 59.2864 52.6107 58.8544C52.6491 58.4225 52.9371 58.0961 53.2539 58.1249C53.5706 58.1537 53.801 58.5281 53.7626 58.96Z" fill="#FABB05"/>
<path d="M55.0393 58.0769V59.2384L59.4163 58.5761V57.4146L55.0393 58.0769Z" fill="white"/>
<path d="M53.7626 62.1852C53.7242 62.6171 53.4362 62.9435 53.1195 62.9147C52.8027 62.8859 52.5723 62.5115 52.6107 62.0796C52.6491 61.6477 52.9371 61.3213 53.2539 61.3501C53.5706 61.3789 53.801 61.7532 53.7626 62.1852Z" fill="#34A853"/>
<path d="M55.0393 61.3021V62.4539L59.4163 61.7148V60.5534L55.0393 61.3021Z" fill="#CCCCCC"/>
<path d="M61.4896 49.8316V51.3674L36.1201 54.7654V52.4809C36.1201 52.1929 36.3409 51.9433 36.6384 51.9241L60.8849 49.2749C61.2112 49.2557 61.4896 49.5052 61.4896 49.8316Z" fill="#7366FF"/>
<path d="M45.9399 60.7097C46.0273 59.7595 45.5333 58.9372 44.8365 58.8731C44.1397 58.809 43.5039 59.5273 43.4165 60.4775C43.3291 61.4277 43.8231 62.25 44.5199 62.3141C45.2167 62.3782 45.8525 61.6599 45.9399 60.7097Z" fill="#FABB05"/>
<path d="M40.3627 64.3353V65.2952L49.0016 63.3755V62.5116L40.3627 64.3353Z" fill="#E3E3E3"/>
<path d="M40.3627 66.735V67.6949L49.0016 65.4871V64.6233L40.3627 66.735Z" fill="#E3E3E3"/>
<path d="M38.9229 11.2158L36.9648 10.4383C36.6192 10.3615 36.2833 10.6207 36.2833 10.9759V28.6375C36.2833 28.9447 36.5328 29.1943 36.84 29.1943L38.6542 29.3766L38.9229 11.2158Z" fill="#7366FF"/>
<path d="M59.7906 18.7604V31.9587C59.7906 32.2275 59.5603 32.4483 59.2915 32.4387L55.4424 31.8627L42.1865 29.8662L37.6943 29.3191C37.4351 29.3095 37.2336 29.0983 37.2336 28.8391V11.235C37.2336 10.9279 37.5215 10.6975 37.8287 10.7647L59.4259 18.2901C59.637 18.3477 59.7906 18.5397 59.7906 18.7604Z" fill="#DCE1FE"/>
<path d="M55.4424 17.0519V31.8627L42.1865 29.8662V13.222L55.4424 17.0519Z" fill="#F7F7F7"/>
<path d="M59.7906 18.7604V19.8067L37.2336 13.03V11.2254C37.2336 10.9182 37.5215 10.6879 37.8287 10.7551L59.4259 18.2805C59.637 18.3477 59.7906 18.5397 59.7906 18.7604Z" fill="#DCE1FE"/>
<path d="M43.5399 19.3748V20.2194L54.2137 22.6191V21.784L43.5399 19.3748Z" fill="#E3E3E3"/>
<path d="M43.5399 21.9664V22.8111L49.9423 24.1837V23.339L43.5399 21.9664Z" fill="#E3E3E3"/>
<path d="M45.6229 17.1095L43.5399 16.5719V17.9925L45.6229 18.5205V17.1095Z" fill="#FABB05"/>
<path d="M46.7939 17.695V18.5301L54.2137 20.4306V19.5955L46.7939 17.695Z" fill="#E3E3E3"/>
<path d="M79.4009 55.7253L75.667 56.6756L75.427 54.9382L75.331 54.2567H75.3022C72.1346 54.2375 73.9584 48.507 73.9584 48.507L78.1338 48.3343L79.4009 55.7253Z" fill="#EFC4B0"/>
<path d="M80.4183 47.7679C80.4183 47.7679 77.7787 43.8132 76.5116 44.7923C76.5116 44.7923 76.2813 44.9843 76.3869 45.3106C73.6032 42.9013 73.7184 45.7138 73.7184 45.7138C72.6337 45.589 72.7585 48.7086 75.6862 49.5725C75.6286 49.8892 75.6094 50.3116 75.7821 50.7531C75.8013 50.8107 75.8589 50.8683 75.9165 50.8875C76.0221 50.9259 76.1373 50.8683 76.1853 50.7627C76.2621 50.5803 76.3869 50.3116 76.5884 50.1004C76.7804 49.8988 77.0876 49.8508 77.3083 50.0044C77.4907 50.1292 77.6155 50.3692 77.4907 50.8587C77.4907 50.8587 77.2315 51.7802 76.6076 51.6458C76.6076 51.6458 77.0204 53.7191 78.9305 52.9608C78.9305 52.9704 82.0597 49.6397 80.4183 47.7679Z" fill="#290C0C"/>
<path d="M48.6081 91.3462L39.806 90.6743C39.806 90.6743 40.1804 89.5897 41.9753 89.3497C42.724 89.2537 44.5286 89.1193 45.6421 88.1307C46.506 87.3628 47.3698 85.539 47.3698 85.539L51.1613 85.7694L48.6081 91.3462Z" fill="#FFA73B"/>
<path d="M44.6726 92.2101L35.8705 91.5382C35.8705 91.5382 36.2449 90.4535 38.0399 90.2136C38.7886 90.1176 40.5931 89.9832 41.7066 88.9945C42.5705 88.2266 43.4344 86.4029 43.4344 86.4029L47.2259 86.6332L44.6726 92.2101Z" fill="#FFA73B"/>
<path d="M65.9722 66.2647L59.1475 65.372C59.1475 65.372 56.3927 64.9017 54.8569 68.818L46.8515 87.0748L51.2093 87.3723L61.768 69.5571L65.5115 69.9602L65.9722 66.2647Z" fill="#001B69"/>
<path d="M67.316 69.2019L54.3769 67.9157C54.3769 67.9157 52.5532 67.8293 51.1805 69.893C49.4432 72.5231 41.5434 87.8235 41.5434 87.8235L47.1779 88.6202L56.0567 73.9341L66.6249 74.6348L67.316 69.2019Z" fill="#292466"/>
<path d="M67.5368 64.9976C67.8728 64.9113 80.5527 61.8013 88.8556 65.3048L89.5179 70.277L66.8937 74.8076L67.5368 64.9976Z" fill="#CCCCCC"/>
<path d="M56.9302 69.4995L54.8569 61.2637C54.7609 60.7838 54.9529 60.5918 55.2408 60.4286L64.4172 56.7235C65.1179 56.4644 65.3099 57.2323 65.3099 57.2323L65.0795 57.9906L59.2819 61.1294L70.3301 71.9855L69.7637 72.6287L57.7365 69.9986C57.5445 69.9506 57.0646 69.9026 56.9302 69.4995Z" fill="#290C0C"/>
<path d="M64.5516 57.0403L55.7591 60.7166C55.6152 60.7838 55.4328 60.8798 55.5288 61.2637L57.4773 69.0195C57.5445 69.2307 57.6021 69.4323 57.8133 69.4899C59.8866 69.989 69.9749 72.4079 70.0037 72.3119C70.0229 72.2255 73.2481 68.4532 74.4671 67.0326C74.6783 66.783 74.5631 66.3991 74.2463 66.3127L67.3256 64.4889L65.3963 57.3858C65.3195 56.9443 64.8684 56.8867 64.5516 57.0403Z" fill="#CCCCCC"/>
<path d="M71.0788 66.495L70.6372 66.9269L70.5604 67.0037L67.6712 69.8354L67.6328 69.8738L67.1433 70.3537C67.1145 70.3825 67.0665 70.4017 67.0281 70.3921L59.685 69.1922C59.5603 69.1731 59.5315 69.0003 59.6466 68.9331L60.8177 68.3188L60.9521 68.2516L62.2479 67.5605L62.3727 67.4933L63.6877 66.7926L63.8125 66.7254L64.8876 66.159L65.0123 66.0919L66.1258 65.5063L66.241 65.4487L67.2009 64.94C67.2392 64.9208 67.2776 64.9208 67.316 64.9304L69.1974 65.6023L69.3126 65.6407L71.05 66.2646C71.1267 66.303 71.1555 66.4182 71.0788 66.495Z" fill="#290C0C"/>
<path d="M68.3167 65.2494L61.3147 69.4186L61.3639 69.5011L68.3658 65.3318L68.3167 65.2494Z" fill="white"/>
<path d="M69.2934 65.6407L68.4583 66.1975L68.3623 66.2551L67.4888 66.831L67.3832 66.8982L66.4234 67.5413L66.3178 67.6085L65.2523 68.3092L65.1467 68.3764L64.2061 69.0003L64.1005 69.0771L63.0734 69.749L63.0158 69.6626L63.9661 69.0387L64.0813 68.9715L65.0219 68.3476L65.1275 68.2708L66.193 67.5701L66.2986 67.5029L67.268 66.8694L67.3736 66.7926L68.2471 66.2167L68.3431 66.1495L69.1782 65.6024H69.1878L69.2934 65.6407Z" fill="white"/>
<path d="M67.6808 69.7874L67.6712 69.8354L67.6616 69.8834L67.6328 69.8738L64.1005 69.0771L63.9661 69.0387L60.7985 68.3188L60.9329 68.2516L64.0813 68.9715L64.2061 69.0003L67.6808 69.7874Z" fill="white"/>
<path d="M68.2471 69.1443L68.2183 69.2403L65.1467 68.3764L65.0219 68.3476L62.2287 67.5605L62.3535 67.4933L65.1275 68.2708L65.2523 68.3092L68.2471 69.1443Z" fill="white"/>
<path d="M63.6685 66.8022L66.193 67.5701L66.3178 67.6085L69.0342 68.434L69.063 68.3476L66.4234 67.5413L66.2986 67.5029L63.7837 66.735L63.6685 66.8022Z" fill="white"/>
<path d="M69.8885 67.5413L69.8597 67.6373L67.3832 66.8982L67.2681 66.8694L64.8876 66.1591L65.0027 66.0919L67.3736 66.7926L67.4888 66.831L69.8885 67.5413Z" fill="white"/>
<path d="M70.064 65.9964L64.2446 69.8994L64.2981 69.9791L70.1175 66.0761L70.064 65.9964Z" fill="white"/>
<path d="M64.8396 57.7122L56.2967 61.2637L58.178 68.7412L66.6729 64.3545L64.8396 57.7122Z" fill="white"/>
<path d="M70.6372 66.927L70.6084 67.0134L70.5604 67.0038L68.3623 66.2551L68.2471 66.2167L66.1162 65.5064L66.2314 65.4392L68.3431 66.1495L68.4583 66.1975L70.6372 66.927Z" fill="white"/>
<path d="M63.2366 71.3424L61.9503 71.3136L61.5184 71.3424L60.4625 71.4096C60.2514 71.4192 60.0402 71.3808 59.8482 71.2944L58.8499 70.7473C58.7444 70.6897 58.6484 70.6129 58.5716 70.5265C58.3412 70.2577 58.1588 69.9602 58.0533 69.7586C57.9957 69.653 58.082 69.5282 58.1972 69.5378L59.6562 69.701L60.5201 69.605C59.7522 69.3171 59.9442 68.4532 59.9442 68.4532L61.7296 69.2595L61.8256 69.2979L63.0158 69.2211L63.2366 71.3424Z" fill="#EFC4B0"/>
<path d="M63.2366 71.3425L61.9503 71.3137L61.5184 71.3425C61.5088 70.469 61.6336 69.7299 61.7392 69.2691L61.8352 69.3075L63.0254 69.2307L63.2366 71.3425Z" fill="#EF9992"/>
<path d="M73.1425 64.0474L72.5666 65.9671L71.2899 65.8616L70.0901 66.0727L69.063 66.2551C69.063 65.8712 69.3894 65.6408 69.6389 65.4872L68.6407 65.4104L67.4888 65.5256C67.2585 65.5064 66.9417 65.2952 67.3736 65.0649L68.8039 64.3066C69.063 64.1338 69.3702 64.0666 69.6773 64.105L70.3588 64.0666L70.7428 64.0474H73.1425Z" fill="#EFC4B0"/>
<path d="M73.1425 64.0474L72.5666 65.9671L71.2899 65.8616L70.0901 66.0727C70.1573 65.3432 70.2629 64.6521 70.3588 64.0666L70.7428 64.0474H73.1425Z" fill="#EF9992"/>
<path d="M82.5589 69.7106L82.4725 66.6582C82.4725 66.6582 85.4865 66.3991 83.1924 59.68C82.6068 57.981 81.8869 55.1685 79.1609 54.1607C79.1609 54.1607 75.0718 54.391 73.5456 56.5028C72.3938 58.0962 71.7507 60.2751 70.0997 67.0518L62.0559 69.0387C62.0559 69.0387 61.576 70.9585 62.5359 72.1103L82.5589 69.7106Z" fill="url(#paint0_linear_901_2543)"/>
<path d="M75.7629 63.3947L75.2734 70.9105L74.4191 70.9585L75.7629 63.3947Z" fill="#A3241D"/>
<path d="M88.8556 65.3144C88.8556 65.3144 78.8345 71.1985 63.8413 71.1793C63.8413 71.1793 50.5566 70.181 49.5008 82.8417C49.5008 82.8417 47.4946 89.9832 55.4136 92.8052C55.4136 92.8052 73.1905 98.8237 83.3556 93.9187C83.3652 93.9091 101.42 85.6542 88.8556 65.3144Z" fill="url(#paint1_linear_901_2543)"/>
<path d="M46.138 88.5366L45.0066 91.0061L45.3557 91.166L46.4871 88.6965L46.138 88.5366Z" fill="white"/>
<path d="M76.742 53.6039C76.742 53.6039 76.55 54.2951 75.427 54.9478L75.331 54.2663H75.3022C75.7341 54.1895 76.2813 54.0071 76.742 53.6039Z" fill="#EF9992"/>
<defs>
<linearGradient id="paint0_linear_901_2543" x1="72.9949" y1="54.1607" x2="72.9949" y2="72.1103" gradientUnits="userSpaceOnUse">
<stop stop-color="#FF3364"/>
<stop offset="1" stop-color="#FB1F54"/>
</linearGradient>
<linearGradient id="paint1_linear_901_2543" x1="71.2879" y1="65.3144" x2="71.2879" y2="95.8432" gradientUnits="userSpaceOnUse">
<stop stop-color="#6550F0"/>
<stop offset="1" stop-color="#563FF2"/>
</linearGradient>
</defs>
</svg>
